<svg xmlns="http://www.w3.org/2000/svg" viewBox="0 0 450.47 359.18"><defs><style>.cls-1{isolation:isolate;}.cls-2{fill:#fb7b65;}.cls-3{font-size:26px;font-family:Ubuntu-Regular, Ubuntu;}.cls-13,.cls-3{fill:#fff;}.cls-4{letter-spacing:-0.02em;}.cls-5{letter-spacing:0em;}.cls-6{fill:#d4d9dd;}.cls-7{fill:#8787c6;}.cls-8{fill:#4d4d6d;}.cls-9{fill:#30465a;}.cls-10{fill:#4b78ff;}.cls-11{fill:#3064ff;}.cls-12{fill:#1540bf;}.cls-14{fill:#ffd01f;}.cls-15{fill:#ff63be;}.cls-16{fill:#f2f3f4;}.cls-17{fill:#fbba65;}.cls-18{fill:#fb7b13;}.cls-19{fill:#eddbd9;}.cls-20{fill:#b6b6d1;opacity:0.4;mix-blend-mode:soft-light;}.cls-21{fill:#00aef2;}.cls-22{fill:#ffc1e5;}</style></defs><g class="cls-1"><g id="OBJECTS"><path class="cls-2" d="M396.69,420.22H103.31a6,6,0,0,1-6-6h0a6,6,0,0,1,6-6H396.69a6,6,0,0,1,6,6h0A6,6,0,0,1,396.69,420.22Z" transform="translate(-22.33 -61.04)"/><path class="cls-2" d="M79,420.22H30a6,6,0,0,1-6-6h0a6,6,0,0,1,6-6H79a6,6,0,0,1,6,6h0A6,6,0,0,1,79,420.22Z" transform="translate(-22.33 -61.04)"/><path class="cls-2" d="M417.79,420.22h49a6,6,0,0,0,6-6h0a6,6,0,0,0-6-6h-49a6,6,0,0,0-6,6h0A6,6,0,0,0,417.79,420.22Z" transform="translate(-22.33 -61.04)"/><circle class="cls-2" cx="48.31" cy="116.64" r="36.38"/><text class="cls-3" transform="translate(26.3 124.27)">php</text><circle class="cls-2" cx="409.05" cy="117.14" r="36.38"/><circle class="cls-2" cx="126.24" cy="57.22" r="36.38"/><text class="cls-3" transform="translate(105.03 64.85)">j<tspan class="cls-4" x="6.58" y="0">a</tspan><tspan class="cls-5" x="19.76" y="0">va</tspan></text><circle class="cls-2" cx="330.89" cy="58.05" r="36.38"/><circle class="cls-2" cx="228.23" cy="36.38" r="36.38"/><rect class="cls-6" x="171.07" y="316.76" width="113.2" height="33.73"/><path class="cls-7" d="M159.72,102.53H348.5a0,0,0,0,1,0,0v303a0,0,0,0,1,0,0H159.72a8.22,8.22,0,0,1-8.22-8.22V110.75A8.22,8.22,0,0,1,159.72,102.53Z" transform="translate(481.7 -57.01) rotate(90)"/><path class="cls-8" d="M247.41,216.53H265.5a0,0,0,0,1,0,0v303a0,0,0,0,1,0,0H243.41a8.91,8.91,0,0,1-8.91-8.91V229.44A12.91,12.91,0,0,1,247.41,216.53Z" transform="translate(-140.36 556.99) rotate(-90)"/><path class="cls-8" d="M330.41,411.53H169.59a11,11,0,0,1,11-11H319.44a11,11,0,0,1,11,11Z" transform="translate(-22.33 -61.04)"/><circle class="cls-6" cx="227.67" cy="306.99" r="7.41"/><circle class="cls-9" cx="227.67" cy="103.53" r="3.1"/><rect class="cls-10" x="85.11" y="112.29" width="285.11" height="180.24"/><rect class="cls-11" x="85.11" y="112.29" width="117.98" height="180.24"/><rect class="cls-12" x="85.11" y="112.29" width="285.11" height="17.67"/><path class="cls-13" d="M121.39,182.17a2.92,2.92,0,1,1-2.92-2.92A2.91,2.91,0,0,1,121.39,182.17Z" transform="translate(-22.33 -61.04)"/><path class="cls-14" d="M132.91,182.17a2.92,2.92,0,1,1-2.92-2.92A2.91,2.91,0,0,1,132.91,182.17Z" transform="translate(-22.33 -61.04)"/><path class="cls-15" d="M144.43,182.17a2.92,2.92,0,1,1-2.92-2.92A2.91,2.91,0,0,1,144.43,182.17Z" transform="translate(-22.33 -61.04)"/><rect class="cls-15" x="110.57" y="148.26" width="47.14" height="3.25"/><rect class="cls-16" x="126.5" y="159.63" width="47.14" height="3.25"/><rect class="cls-14" x="142.42" y="170.99" width="47.14" height="3.25"/><rect class="cls-14" x="142.42" y="180.96" width="47.14" height="3.25"/><rect class="cls-14" x="142.42" y="190.93" width="47.14" height="3.25"/><rect class="cls-14" x="142.42" y="200.9" width="47.14" height="3.25"/><rect class="cls-16" x="216.55" y="170.99" width="16.01" height="3.25"/><rect class="cls-16" x="216.55" y="180.96" width="16.01" height="3.25"/><rect class="cls-16" x="216.55" y="190.93" width="16.01" height="3.25"/><rect class="cls-16" x="216.55" y="200.9" width="16.01" height="3.25"/><rect class="cls-16" x="216.55" y="210.87" width="16.01" height="3.25"/><rect class="cls-16" x="216.55" y="220.84" width="16.01" height="3.25"/><rect class="cls-16" x="216.55" y="230.81" width="16.01" height="3.25"/><rect class="cls-16" x="216.55" y="240.77" width="16.01" height="3.25"/><rect class="cls-16" x="216.55" y="250.74" width="16.01" height="3.25"/><rect class="cls-16" x="216.55" y="260.71" width="16.01" height="3.25"/><rect class="cls-16" x="216.55" y="270.68" width="16.01" height="3.25"/><rect class="cls-16" x="260.44" y="170.99" width="16.01" height="3.25"/><rect class="cls-16" x="260.44" y="180.96" width="26.01" height="3.25"/><rect class="cls-16" x="260.44" y="190.93" width="16.01" height="3.25"/><rect class="cls-16" x="260.44" y="200.9" width="26.01" height="3.25"/><rect class="cls-16" x="260.44" y="210.87" width="26.01" height="3.25"/><rect class="cls-16" x="260.44" y="220.84" width="16.01" height="3.25"/><rect class="cls-16" x="260.44" y="230.81" width="26.01" height="3.25"/><rect class="cls-16" x="260.44" y="240.77" width="26.01" height="3.25"/><rect class="cls-16" x="260.44" y="250.74" width="26.01" height="3.25"/><rect class="cls-16" x="260.44" y="260.71" width="16.01" height="3.25"/><rect class="cls-16" x="304.97" y="170.99" width="36.09" height="3.25"/><rect class="cls-16" x="304.97" y="190.93" width="36.09" height="3.25"/><rect class="cls-16" x="304.97" y="220.84" width="36.09" height="3.25"/><rect class="cls-16" x="304.97" y="260.71" width="36.09" height="3.25"/><rect class="cls-16" x="260.44" y="270.68" width="26.01" height="3.25"/><rect class="cls-14" x="311.01" y="180.96" width="30.05" height="3.25"/><rect class="cls-14" x="311.01" y="200.9" width="30.05" height="3.25"/><rect class="cls-14" x="311.01" y="210.87" width="30.05" height="3.25"/><rect class="cls-14" x="311.01" y="230.81" width="30.05" height="3.25"/><rect class="cls-14" x="311.01" y="240.77" width="30.05" height="3.25"/><rect class="cls-14" x="311.01" y="250.74" width="30.05" height="3.25"/><rect class="cls-14" x="311.01" y="270.68" width="30.05" height="3.25"/><rect class="cls-15" x="292.69" y="180.96" width="12.28" height="3.25"/><rect class="cls-15" x="292.69" y="200.9" width="12.28" height="3.25"/><rect class="cls-15" x="292.69" y="210.87" width="12.28" height="3.25"/><rect class="cls-15" x="292.69" y="230.81" width="12.28" height="3.25"/><rect class="cls-15" x="292.69" y="240.77" width="12.28" height="3.25"/><rect class="cls-15" x="292.69" y="250.74" width="12.28" height="3.25"/><rect class="cls-15" x="292.69" y="270.68" width="12.28" height="3.25"/><rect class="cls-14" x="282.44" y="170.99" width="16.01" height="3.25"/><rect class="cls-14" x="282.44" y="190.93" width="16.01" height="3.25"/><rect class="cls-14" x="282.44" y="220.84" width="16.01" height="3.25"/><rect class="cls-14" x="282.44" y="260.71" width="16.01" height="3.25"/><rect class="cls-2" y="297.63" width="24.45" height="38" rx="12.22"/><path class="cls-17" d="M18.52,282.63H46.81a9.4,9.4,0,0,1,9.4,9.4v46.63a11.83,11.83,0,0,1-11.83,11.83H21A11.83,11.83,0,0,1,9.12,338.66V292A9.4,9.4,0,0,1,18.52,282.63Z"/><rect class="cls-18" x="13.69" y="286.11" width="37.96" height="9.51" rx="4.76"/><path class="cls-19" d="M46,357H58s17.67-30,0-55.18.29-59.82.29-59.82S15.87,270.67,41,311.79C53.19,331.72,46,357,46,357Z" transform="translate(-22.33 -61.04)"/><path class="cls-20" d="M425.24,411.53h36.08l9.93-33.78a12.28,12.28,0,0,0-12.15-14.07H426.67a12.28,12.28,0,0,0-12.13,14.24Z" transform="translate(-22.33 -61.04)"/><path class="cls-21" d="M426.09,378.67l5.1-2.09,5.1,2.09a4.76,4.76,0,0,0,4.76-4.76h0a4.76,4.76,0,0,0-4.76-4.75h-10.2a4.75,4.75,0,0,0-4.75,4.75h0A4.76,4.76,0,0,0,426.09,378.67Z" transform="translate(-22.33 -61.04)"/><path class="cls-22" d="M436.08,311v-6.54c0-3.51-1.45-4.95-3.23-4.95h-3.32c-1.78,0-3.22,1.44-3.22,4.95V311Z" transform="translate(-22.33 -61.04)"/><polygon class="cls-13" points="413.74 317.63 412.25 317.63 403.98 317.63 403.98 258.95 408.86 255.46 413.74 258.95 413.74 317.63"/><rect class="cls-14" x="406.81" y="252.22" width="4.09" height="65.4"/><rect class="cls-10" x="403.98" y="249.78" width="9.77" height="9.17"/><path class="cls-21" d="M449,378.67l5.1-2.09,5.1,2.09a4.76,4.76,0,0,0,4.75-4.76h0a4.75,4.75,0,0,0-4.75-4.75H449a4.75,4.75,0,0,0-4.75,4.75h0A4.76,4.76,0,0,0,449,378.67Z" transform="translate(-22.33 -61.04)"/><path class="cls-22" d="M459,311v-6.54c0-3.51-1.44-4.95-3.22-4.95h-3.32c-1.78,0-3.22,1.44-3.22,4.95V311Z" transform="translate(-22.33 -61.04)"/><polygon class="cls-13" points="436.66 317.63 435.17 317.63 426.89 317.63 426.89 258.95 431.78 255.46 436.66 258.95 436.66 317.63"/><rect class="cls-14" x="429.73" y="252.22" width="4.09" height="65.4"/><rect class="cls-10" x="426.89" y="249.78" width="9.77" height="9.17"/><text class="cls-3" transform="translate(212.11 44.01)">css</text><text class="cls-3" transform="translate(305.51 65.68)">html</text><text class="cls-3" transform="translate(401.33 124.77)">js</text></g></g></svg>