<svg xmlns="http://www.w3.org/2000/svg" viewBox="0 0 344.67 308.16"><g style="isolation:isolate"><g id="Layer_1" data-name="Layer 1"><ellipse cx="173.36" cy="286.49" rx="166.48" ry="21.67" style="fill:#c698b5;mix-blend-mode:multiply"/><path d="M106.08,323.56c-3.41-1.3-8.66-2.56-10.61-3.21,0,0-1.11-.66-.2-4.11h6.06s3.76,1.89,7.55,4.11S109.26,324.78,106.08,323.56Z" transform="translate(-72.83 -32.45)" style="fill:#303173"/><path d="M95.05,317.23a3.32,3.32,0,0,0,.52,1.4c.85,1.24,2.69,1.57,4,2.05,1.94.72,3.89,1.4,5.8,2.2a6.86,6.86,0,0,0,2.32.71,10,10,0,0,0,2.19-.2,4.39,4.39,0,0,1-3.81.17c-3.41-1.3-8.66-2.56-10.61-3.21C95.47,320.35,94.58,319.82,95.05,317.23Z" transform="translate(-72.83 -32.45)" style="fill:#7d4177;mix-blend-mode:multiply"/><path d="M89.13,323c-2.68-2.49-7.07-5.62-8.65-7,0,0-.78-1,1.36-3.88l5.62,2.27s2.78,3.16,5.46,6.63S91.62,325.34,89.13,323Z" transform="translate(-72.83 -32.45)" style="fill:#303173"/><path d="M81.26,313a3.45,3.45,0,0,0,0,1.5c.33,1.47,1.92,2.46,3,3.4,1.54,1.39,3.09,2.76,4.56,4.22a7.11,7.11,0,0,0,1.89,1.52,10.19,10.19,0,0,0,2.1.64A4.37,4.37,0,0,1,89.13,323c-2.68-2.49-7.07-5.62-8.65-7C80.48,316.06,79.86,315.24,81.26,313Z" transform="translate(-72.83 -32.45)" style="fill:#7d4177;mix-blend-mode:multiply"/><path d="M89.8,239.81c-.78-11.24-1.16-35.53.41-36.74,3.41-2.64,9.91-2.53,9.91-2.53H106s6.44.13,9,2.67c1.62,1.62.93,25.4.42,36.59Z" transform="translate(-72.83 -32.45)" style="fill:#bdd63b"/><path d="M115.55,237.44c0,.84-.07,1.63-.1,2.37H89.8c0-.73-.1-1.53-.15-2.37Z" transform="translate(-72.83 -32.45)" style="fill:#dbd754;mix-blend-mode:multiply"/><path d="M100.23,200.53s.87,4,2.94,4c2.37,0,3.16-4,3.16-4v-6.4h-6.1Z" transform="translate(-72.83 -32.45)" style="fill:#fabd9e"/><path d="M103,239.66V250.5l-1.23,0s1.67,65,.81,66.5c-.63,1.06-7,1.24-7.6.33s-4.41-77.69-4.41-77.69Z" transform="translate(-72.83 -32.45)" style="fill:#6c3667"/><path d="M102.23,239.66h13.09s.2,10,.15,28.92c0,3-.56,9.15-1.72,12.36-6.19,17.13-24.19,33.87-25.11,34.64s-6.55-2.69-6.87-3.32c-.86-1.72,22.3-24.55,22.71-37.46.47-14.31-.24-24.32-.24-24.32l-2,0Z" transform="translate(-72.83 -32.45)" style="fill:#7d4177"/><path d="M93.11,247.59c-.39.36-1-.18-1.56-.73,1,2,.47,3.23-.34,3.68a1.92,1.92,0,0,1-2.83-.92c-.3-.82-1.48-4.1-1.48-4.1-.35-1.32-.07-1.8,1.07-2.28.81-.34,1.32-.33,2.3.6,0,0,2.76,2.61,2.76,2.61C93.42,246.83,93.58,247.16,93.11,247.59Z" transform="translate(-72.83 -32.45)" style="fill:#fabd9e"/><path d="M88.82,213.22c-4.27,7-4.54,9.31-4.52,9.85.14,3.77,4.21,15.24,6,20.1l-3.83,2.26s-6.42-16.82-6.61-22.2c-.06-1.57.42-4.55,5.16-12.3,2.49-4.08,5-7.5,5.07-7.64a2.2,2.2,0,0,1,3.56,2.58S91.22,209.29,88.82,213.22Z" transform="translate(-72.83 -32.45)" style="fill:#bdd63b"/><path d="M92.5,179.85c-.21,3.14-1.47,5.43-.25,8.22,1.41,3.2,8.56,7,11,7s8.77-3.27,10.79-6.64c1.63-2.72.7-5.74.42-9-.77-9-3.7-13.54-10.82-13.54S93.15,169.72,92.5,179.85Z" transform="translate(-72.83 -32.45)" style="fill:#fabd9e"/><path d="M92.49,179.84c.43-6.67,2-10.63,5.09-12.55-2.28,2.16-3.5,5.88-3.87,11.6-.2,3.14-1.46,5.43-.24,8.22,1.4,3.2,8.55,7,11,7,1.55,0,4.73-1.36,7.35-3.22-2.76,2.33-6.77,4.16-8.57,4.16-2.41,0-9.56-3.79-11-7C91,185.27,92.28,183,92.49,179.84Z" transform="translate(-72.83 -32.45)" style="fill:#fde9e4;mix-blend-mode:multiply"/><path d="M92.89,174.61c.21-2.37,1.43-5.86,5.92-9.26.49-.37,2.22-1.09,1.63-2.77a5,5,0,0,1,3.31,2.15,5.9,5.9,0,0,0-1.77-3.85,16.22,16.22,0,0,1,11.4,11.46,26.12,26.12,0,0,1,1.17,7.44c-1.09-.4-3-4.45-4.07-5.81-.87-1.11-3.36-1.53-6.33-1.53-3.21,0-6.16.19-7.65,1.58-1,.89-1.58,1.19-1.92,6.28-.22,3.24-1.66,3.08-2.74,3.48C91.84,183.78,92.68,176.9,92.89,174.61Z" transform="translate(-72.83 -32.45)" style="fill:#1e1a54"/><path d="M93.73,183.05c0-.87.42-1.6-.45-2.1-1.06-.59-1.64-.43-1.8.82-.26,2.18.64,3.31,1,3.36C94.28,185.33,93.75,183.79,93.73,183.05Z" transform="translate(-72.83 -32.45)" style="fill:#fabd9e"/><path d="M92.75,184.78c-.35,0-1.25-1.18-1-3.36a2.7,2.7,0,0,1,.18-.71,1.45,1.45,0,0,0-.45,1c-.27,2.18.63,3.31,1,3.35.76.09,1.1-.13,1.25-.48A1.46,1.46,0,0,1,92.75,184.78Z" transform="translate(-72.83 -32.45)" style="fill:#fde9e4;mix-blend-mode:multiply"/><path d="M146.26,198c.46.22.22,1-.09,1.68,1.46-1.61,2.74-1.63,3.44-1.07a1.87,1.87,0,0,1,.23,2.9l-3.15,2.85c-1.05.81-1.59.74-2.45-.11-.61-.6-.79-1.07-.31-2.29,0-.06,1.32-3.47,1.32-3.47C145.45,198,145.69,197.73,146.26,198Z" transform="translate(-72.83 -32.45)" style="fill:#fabd9e"/><path d="M125.6,223.36a2.29,2.29,0,0,0,1.51-.57L147,204.86c.93-.83-2.09-4.2-3-3.37l-18.07,16.28-11.19-14.92a2.27,2.27,0,0,0-3.63,2.71l12.68,16.9a2.23,2.23,0,0,0,1.59.89Z" transform="translate(-72.83 -32.45)" style="fill:#bdd63b"/><path d="M141.68,201.72a.64.64,0,0,0,0,1l1,1.08a.67.67,0,0,0,1,.07l6.19-6a.64.64,0,0,0,0-1.06l-1.21-1.18a.6.6,0,0,0-1,0Z" transform="translate(-72.83 -32.45)" style="fill:#1e1a54"/><path d="M142.39,201c-.35.39-.47.56,0,1.05l.41.42,6.16-5.87-.57-.6c-.48-.51-.66-.29-1,0Z" transform="translate(-72.83 -32.45)" style="fill:#fff"/><path d="M363.16,293.28c0,5.87-5.09,10.63-11.38,10.63H151.15c-6.29,0-11.38-4.76-11.38-10.63V145.57c0-5.88,5.09-10.64,11.38-10.64H351.78c6.29,0,11.38,4.76,11.38,10.64Z" transform="translate(-72.83 -32.45)" style="fill:#00002c"/><rect x="79.92" y="113.35" width="197.43" height="147.25" style="fill:#fff"/><path d="M383.58,315.38c0,3.82-2.76,6.92-6.16,6.92H125.52c-3.41,0-6.17-3.1-6.17-6.92v-4.54c0-3.83,2.76-6.93,6.17-6.93h251.9c3.4,0,6.16,3.1,6.16,6.93Z" transform="translate(-72.83 -32.45)" style="fill:#00002c"/><path d="M351.78,134.93H341c-.9,32.18,1.46,114.83-.24,124.06-1.08,5.86-3.06,14-8.1,17.6-6.9,4.91-20.5,5.6-28.61,5.72-11.27.15-164.27-.38-164.27-.38v11.35c0,5.87,5.09,10.63,11.38,10.63H351.78c6.29,0,11.38-4.76,11.38-10.63V145.57C363.16,139.69,358.07,134.93,351.78,134.93Z" transform="translate(-72.83 -32.45)" style="fill:#c8cacb;mix-blend-mode:multiply"/><path d="M252.55,140.38a3.3,3.3,0,1,1-3.3-3.3A3.29,3.29,0,0,1,252.55,140.38Z" transform="translate(-72.83 -32.45)" style="fill:#fff"/><path d="M276.06,32.45c-24.42,0-44.21,15.89-44.21,35.5,0,12.83,8.47,24.06,21.17,30.3L245.83,122,268,102.86a55.72,55.72,0,0,0,8,.59c24.42,0,44.21-15.9,44.21-35.5s-19.79-35.5-44.21-35.5" transform="translate(-72.83 -32.45)" style="fill:#bdd63b"/><path d="M309.82,45c1.25,10.71.21,22.88-5.07,32.26-10,17.82-32.25,25.06-51.87,21.42l-7,23.29L268,102.86a55.72,55.72,0,0,0,8,.59c24.42,0,44.21-15.9,44.21-35.5C320.27,59.22,316.34,51.23,309.82,45Z" transform="translate(-72.83 -32.45)" style="fill:#ded84e;mix-blend-mode:multiply"/><path d="M262.76,67.19A7.56,7.56,0,1,1,255.21,60,7.37,7.37,0,0,1,262.76,67.19Z" transform="translate(-72.83 -32.45)" style="fill:#fff"/><path d="M284.29,67.19A7.56,7.56,0,1,1,276.73,60,7.38,7.38,0,0,1,284.29,67.19Z" transform="translate(-72.83 -32.45)" style="fill:#fff"/><path d="M305.81,67.19A7.56,7.56,0,1,1,298.26,60,7.37,7.37,0,0,1,305.81,67.19Z" transform="translate(-72.83 -32.45)" style="fill:#fff"/><g style="mix-blend-mode:soft-light"><path d="M246.34,51.27a2.11,2.11,0,0,1-1.49-3.6,38.29,38.29,0,0,1,21.67-10.44,2.1,2.1,0,0,1,.39,4.19h0a34.69,34.69,0,0,0-19.08,9.23A2.11,2.11,0,0,1,246.34,51.27Z" transform="translate(-72.83 -32.45)" style="fill:#fff"/></g><g style="mix-blend-mode:soft-light"><path d="M237.14,66.65a2.19,2.19,0,0,1-.36,0,2.11,2.11,0,0,1-1.72-2.44c1.5-8.63,4.95-10.94,5.62-11.31l2,3.68.07,0s-2.42,1.69-3.59,8.39A2.09,2.09,0,0,1,237.14,66.65Z" transform="translate(-72.83 -32.45)" style="fill:#fff"/></g><path d="M312.67,39.87c24.42,0,44.21,15.89,44.21,35.5,0,12.82-8.47,24.06-21.17,30.3l7.19,23.76-22.19-19.15a55.73,55.73,0,0,1-8,.58c-24.42,0-44.21-15.89-44.21-35.49S288.25,39.87,312.67,39.87Z" transform="translate(-72.83 -32.45)" style="fill:#1abab7"/><path d="M278.91,52.46c-1.25,10.71-.21,22.88,5.06,32.26,10,17.82,32.26,25,51.88,21.42l7,23.29-22.19-19.15a55.73,55.73,0,0,1-8,.58c-24.42,0-44.21-15.89-44.21-35.49C268.46,66.63,272.39,58.64,278.91,52.46Z" transform="translate(-72.83 -32.45)" style="fill:#84b7c1;mix-blend-mode:multiply"/><path d="M326,74.6a7.57,7.57,0,1,0,7.55-7.17A7.37,7.37,0,0,0,326,74.6Z" transform="translate(-72.83 -32.45)" style="fill:#fff"/><path d="M304.44,74.6A7.57,7.57,0,1,0,312,67.43,7.38,7.38,0,0,0,304.44,74.6Z" transform="translate(-72.83 -32.45)" style="fill:#fff"/><path d="M282.92,74.6a7.56,7.56,0,1,0,7.55-7.17A7.37,7.37,0,0,0,282.92,74.6Z" transform="translate(-72.83 -32.45)" style="fill:#fff"/><g style="mix-blend-mode:soft-light"><path d="M342.39,58.68a2.1,2.1,0,0,0,1.49-3.59,38.34,38.34,0,0,0-21.67-10.45,2.11,2.11,0,0,0-.39,4.2h0c.11,0,11,1.12,19.08,9.23A2.1,2.1,0,0,0,342.39,58.68Z" transform="translate(-72.83 -32.45)" style="fill:#fff"/></g><g style="mix-blend-mode:soft-light"><path d="M351.59,74.07a2.19,2.19,0,0,0,.36,0,2.11,2.11,0,0,0,1.72-2.44c-1.5-8.63-4.95-10.94-5.62-11.32L346,64l-.07,0s2.42,1.68,3.59,8.39A2.09,2.09,0,0,0,351.59,74.07Z" transform="translate(-72.83 -32.45)" style="fill:#fff"/></g><rect x="130.39" y="128.81" width="97.31" height="61.75" rx="6.8" style="fill:#b85aa1"/><path d="M293.73,161.26h-4.47c-.15,1.89,2.71,50-3.75,52.57-4.41,1.72-9.61,1.39-14.22,1.38-7.35,0-68.07,1-68.07,1A6.8,6.8,0,0,0,210,223h83.71a6.81,6.81,0,0,0,6.8-6.81V168.06A6.8,6.8,0,0,0,293.73,161.26Z" transform="translate(-72.83 -32.45)" style="fill:#f1c0d9;mix-blend-mode:multiply"/><polygon points="168.1 176.01 168.1 143.35 194.97 159.64 168.1 176.01" style="fill:#fff"/><path d="M208.3,190.17a2.22,2.22,0,0,1-2.21-2.13c0-.07-.24-7,0-14.43a9.92,9.92,0,0,1,2.85-7.21,7.89,7.89,0,0,1,5.37-2.06,2.21,2.21,0,0,1-.16,4.42c-.82,0-3.48.34-3.63,5-.24,7.21,0,14.05,0,14.12a2.21,2.21,0,0,1-2.14,2.29Z" transform="translate(-72.83 -32.45)" style="fill:#fff;mix-blend-mode:soft-light"/><g style="mix-blend-mode:soft-light"><path d="M208.55,203.71a2.22,2.22,0,0,1-2.21-2.22v-7.63a2.22,2.22,0,0,1,4.43,0v7.63A2.22,2.22,0,0,1,208.55,203.71Z" transform="translate(-72.83 -32.45)" style="fill:#fff"/></g><path d="M194.35,135c-1.12,1.81-24.73,2.63-25.86-.88-.72-2.24,0-12.78,0-12.78h26S195.31,133.47,194.35,135Z" transform="translate(-72.83 -32.45)" style="fill:#282765"/><path d="M194.52,122.68c.78-11.24,1.16-35.53-.41-36.75-3.41-2.63-9.91-2.52-9.91-2.52h-5.93s-6.43.13-9,2.67c-1.62,1.62-.93,25.4-.42,36.59Z" transform="translate(-72.83 -32.45)" style="fill:#7d4177"/><path d="M168.77,120.31c0,.84.07,1.63.1,2.37h25.65c0-.73.1-1.53.15-2.37Z" transform="translate(-72.83 -32.45)" style="fill:#7d4177;mix-blend-mode:multiply"/><path d="M184.09,83.4s-.87,4-2.94,4c-2.38,0-3.16-4-3.16-4V77h6.1Z" transform="translate(-72.83 -32.45)" style="fill:#fabd9e"/><path d="M191.82,62.72c.2,3.14,1.47,5.43.25,8.22-1.41,3.2-8.56,7-11,7s-8.77-3.27-10.79-6.64c-1.63-2.72-.7-5.74-.42-9,.77-9,3.69-13.54,10.82-13.54S191.17,52.59,191.82,62.72Z" transform="translate(-72.83 -32.45)" style="fill:#fabd9e"/><path d="M175.34,55.83s-2.86.28-3.24,6.51c-.2,3.25-1.54,3.4-2.63,3.8a45.26,45.26,0,0,1,1.44-10.24Z" transform="translate(-72.83 -32.45)" style="fill:#1e1a54"/><path d="M186.26,55.39s2.86.29,3.24,6.52c.2,3.24,1.66,3.08,2.75,3.48a48.29,48.29,0,0,0-1.56-9.92Z" transform="translate(-72.83 -32.45)" style="fill:#1e1a54"/><path d="M171.05,65.92c0-.87.42-1.6-.46-2.1-1.06-.59-1.64-.43-1.8.82-.26,2.18.64,3.31,1,3.35C171.59,68.2,171.06,66.66,171.05,65.92Z" transform="translate(-72.83 -32.45)" style="fill:#fabd9e"/><path d="M170.06,67.65c-.35,0-1.25-1.18-1-3.36a2.26,2.26,0,0,1,.19-.71,1.42,1.42,0,0,0-.46,1c-.27,2.18.63,3.31,1,3.35.76.09,1.1-.13,1.25-.48A1.46,1.46,0,0,1,170.06,67.65Z" transform="translate(-72.83 -32.45)" style="fill:#fde9e4;mix-blend-mode:multiply"/><path d="M190.58,65.92c0-.87-.42-1.6.46-2.1,1.06-.59,1.64-.43,1.8.82.26,2.18-.64,3.31-1,3.35C190,68.2,190.57,66.66,190.58,65.92Z" transform="translate(-72.83 -32.45)" style="fill:#fabd9e"/><path d="M191.57,67.65c.35,0,1.25-1.18,1-3.36a2.26,2.26,0,0,0-.19-.71,1.42,1.42,0,0,1,.46,1c.27,2.18-.63,3.31-1,3.35-.76.09-1.1-.13-1.25-.48A1.44,1.44,0,0,0,191.57,67.65Z" transform="translate(-72.83 -32.45)" style="fill:#fde9e4;mix-blend-mode:multiply"/><path d="M170.59,57.41s2.77-2.22,7.51.07,8.85,3.32,13.83-.63c0,0-2.3-8.12-8.85-8.45C176.92,48.08,172.18,49.11,170.59,57.41Z" transform="translate(-72.83 -32.45)" style="fill:#1e1a54"/><path d="M194.54,85.93c-1.95-1.44-6.1-2.66-9.66-2.48,0,0-.29,31.57,2.51,43,.44,1.83,7.53,0,7.53,0C195.73,115.23,196.18,87.15,194.54,85.93Z" transform="translate(-72.83 -32.45)" style="fill:#1abab7"/><path d="M177.47,83.39c-5.1.29-7.41,1.33-8.85,2.7-1.69,1.62-1,29.19-.48,40.39,0,0,5.85,1.46,6.6,0C177.79,120.55,177.47,83.39,177.47,83.39Z" transform="translate(-72.83 -32.45)" style="fill:#1abab7"/><path d="M178.91,187.57c.26,3.35.82,10.06-2.26,10.52s-4.22-7.13-4.47-10.49,1.08-3.8,3.14-3.95S178.66,184.22,178.91,187.57Z" transform="translate(-72.83 -32.45)" style="fill:#7d4177"/><path d="M172,187.23c.48,1.12,6.62.45,6.78-.3,1.3-6.17-1.37-57.44-1.37-57.44a4.5,4.5,0,0,0-4.91-4.09,4.65,4.65,0,0,0-4.76,4.68S170.67,184.13,172,187.23Z" transform="translate(-72.83 -32.45)" style="fill:#303173"/><path d="M182.67,187.67c-.32,3.34-1,10,2.08,10.55s4.34-7.05,4.66-10.4-1-3.82-3.08-4S183,184.32,182.67,187.67Z" transform="translate(-72.83 -32.45)" style="fill:#7d4177"/><path d="M189.57,187.45c-.5,1.11-6.63.33-6.77-.42-1.2-6.19,2.39-57.41,2.39-57.41a4.5,4.5,0,0,1,5-4,4.64,4.64,0,0,1,4.67,4.77S191,184.37,189.57,187.45Z" transform="translate(-72.83 -32.45)" style="fill:#303173"/><path d="M185,124.38c-.22.53-1.1.31-1.86,0,1.87,1.53,2,2.94,1.38,3.75a2.07,2.07,0,0,1-3.19.41L178,125.22c-1-1.11-.9-1.72,0-2.72.63-.7,1.14-.93,2.52-.47l3.9,1.27C185,123.49,185.27,123.74,185,124.38Z" transform="translate(-72.83 -32.45)" style="fill:#fabd9e"/><path d="M177.84,125.46c-5.11-4-18.66-14.31-18.8-14.41a2.51,2.51,0,0,1-.75-3.07l10.13-21.56A2.5,2.5,0,0,1,173,88.55l-9.27,19.73c3.78,2.87,13.28,9.9,17.27,13.24C181.63,122.09,178.39,125.88,177.84,125.46Z" transform="translate(-72.83 -32.45)" style="fill:#1abab7"/><path d="M177.14,124c.2.54,1.09.35,1.86.07-1.92,1.46-2.06,2.87-1.51,3.7a2.06,2.06,0,0,0,3.17.52c.7-.63,3.46-3.19,3.46-3.19,1-1.08,1-1.69.11-2.71-.61-.73-1.11-1-2.5-.57-.07,0-3.95,1.13-3.95,1.13C177.22,123.08,176.9,123.32,177.14,124Z" transform="translate(-72.83 -32.45)" style="fill:#fabd9e"/><path d="M184.26,125.3c5.25-3.85,19.17-13.62,19.31-13.72a2.49,2.49,0,0,0,.86-3l-9.34-21.92a2.5,2.5,0,0,0-4.61,2L199,108.65c-3.88,2.73-13.63,9.41-17.74,12.61C180.59,121.8,183.7,125.71,184.26,125.3Z" transform="translate(-72.83 -32.45)" style="fill:#1abab7"/><path d="M195.46,129.75a1.34,1.34,0,0,1-1.41,1.26l-26.68,0a1.34,1.34,0,0,1-1.41-1.26L162.73,108a1.34,1.34,0,0,1,1.41-1.26h32.75A1.34,1.34,0,0,1,198.3,108Z" transform="translate(-72.83 -32.45)" style="fill:#00002c"/><path d="M184.61,118.82a4.06,4.06,0,1,1-4.05-4A4.06,4.06,0,0,1,184.61,118.82Z" transform="translate(-72.83 -32.45)" style="fill:#fff"/><path d="M403.56,241.74c-3-10-.82-16.47-.14-23.31.79-8,.53-12.82-.27-13.44-3.41-2.64-9.92-2.53-9.92-2.53h-5.92s-6.44.13-9,2.68c-.86.86-.58,6.16.52,13,1,6.28,2.22,13.75-.93,23.63Z" transform="translate(-72.83 -32.45)" style="fill:#7d4177"/><path d="M393.13,202.45s-.87,4-2.95,4c-2.37,0-3.16-4-3.16-4v-6.39h6.11Z" transform="translate(-72.83 -32.45)" style="fill:#fabd9e"/><path d="M377.91,242.92c.12,10.43,3.25,72.67,4.11,75.18.4,1.15,4.75.73,4.8,0,2.49-33.43,1.66-65.55,1.66-65.55l2.45.07s.91,63.94,1.68,65.42c.57,1.1,4.82,1.29,5.46.38s4.94-65.3,5.44-75.52Z" transform="translate(-72.83 -32.45)" style="fill:#fabd9e"/><path d="M402.63,276.51c4.83-26.63.87-34.92.87-34.92l-25.5-.13s-4.72,5.06,0,34.89Z" transform="translate(-72.83 -32.45)" style="fill:#1abab7"/><path d="M377.39,272.4c.17,1.27.37,2.59.58,4l24.66.16c.26-1.42.49-2.79.7-4.11Z" transform="translate(-72.83 -32.45)" style="fill:#00b4d8;mix-blend-mode:multiply"/><path d="M400.48,181.77c.2,3.13,1.47,5.42.24,8.21-1.4,3.21-8.17,7-10.58,7s-8.33-3.33-10.35-6.7c-1.63-2.72-.7-5.74-.42-9,.77-9,3.41-12.76,10.54-12.76S399.83,171.63,400.48,181.77Z" transform="translate(-72.83 -32.45)" style="fill:#fabd9e"/><path d="M394.09,176.11a10.09,10.09,0,0,1-6.79,2c-3.87-.39-6.2,2.49-7.87,3.66-.31.22-.17-1.86-.12-2.44.25-3.46,1.06-9.74,8.15-11.22,0,0,8.87-1.83,11.32,4.49a28.06,28.06,0,0,1,1.8,8.28S396.47,182.66,394.09,176.11Z" transform="translate(-72.83 -32.45)" style="fill:#1e1a54"/><path d="M397.09,180.31s1.68,1.36,2.13,5.7c.37,3.56.76,5.48,1.36,4.35.93-1.74.8-4.35-.09-10.42-1-6.76-1.63-1.91-1.63-1.91Z" transform="translate(-72.83 -32.45)" style="fill:#1e1a54"/><path d="M376.91,324.27c3.17-1.21,8-2.37,9.85-3,0,0,1-.6.18-3.81,0,0-1.85,0-5,0a54,54,0,0,0-7.58,3.77C370.82,323.35,374,325.4,376.91,324.27Z" transform="translate(-72.83 -32.45)" style="fill:#fabd9e"/><path d="M386.94,317.48a7.09,7.09,0,0,0-.89.44,68.37,68.37,0,0,1-8,3.53c-.84.32-3.6,1.36-3.89-.06-3.23,2-.14,4,2.75,2.88,3.17-1.21,8-2.37,9.85-3C386.76,321.29,387.78,320.69,386.94,317.48Z" transform="translate(-72.83 -32.45)" style="fill:#7d4177"/><path d="M387.14,318.4a3.11,3.11,0,0,1-.48,1.3c-.79,1.15-2.5,1.45-3.71,1.9-1.81.66-3.62,1.3-5.39,2a6.49,6.49,0,0,1-2.14.66,9.34,9.34,0,0,1-2-.19,4.06,4.06,0,0,0,3.53.16c3.17-1.21,8-2.37,9.85-3C386.76,321.29,387.58,320.8,387.14,318.4Z" transform="translate(-72.83 -32.45)" style="fill:#7d4177;mix-blend-mode:multiply"/><path d="M388.26,324c3.17-1.21,8-2.38,9.84-3,0,0,1-.61.18-3.81,0,0-2.44,0-5.62,0a70,70,0,0,0-7,3.79C382.17,323.11,385.32,325.17,388.26,324Z" transform="translate(-72.83 -32.45)" style="fill:#fabd9e"/><path d="M398.28,317.25a6.7,6.7,0,0,0-.88.44,69.52,69.52,0,0,1-8,3.53c-.84.31-3.59,1.35-3.88-.06-3.24,2-.15,4,2.75,2.88,3.17-1.21,8-2.38,9.84-3C398.1,321.06,399.13,320.45,398.28,317.25Z" transform="translate(-72.83 -32.45)" style="fill:#7d4177"/><path d="M398.49,318.17a3.11,3.11,0,0,1-.48,1.3c-.79,1.15-2.5,1.45-3.72,1.9-1.8.66-3.61,1.29-5.38,2a6.23,6.23,0,0,1-2.15.65,9.19,9.19,0,0,1-2-.18,4.06,4.06,0,0,0,3.53.16c3.17-1.21,8-2.38,9.84-3C398.1,321.06,398.93,320.57,398.49,318.17Z" transform="translate(-72.83 -32.45)" style="fill:#7d4177;mix-blend-mode:multiply"/><path d="M398.51,184.6c0-.87-.42-1.6.46-2.1,1.06-.59,1.64-.43,1.79.82.27,2.18-.63,3.31-1,3.35C398,186.88,398.5,185.34,398.51,184.6Z" transform="translate(-72.83 -32.45)" style="fill:#fabd9e"/><path d="M399.5,186.33c.35,0,1.25-1.18,1-3.36a2,2,0,0,0-.18-.71,1.42,1.42,0,0,1,.46,1.05c.26,2.18-.63,3.31-1,3.35-.76.09-1.1-.13-1.25-.48A1.43,1.43,0,0,0,399.5,186.33Z" transform="translate(-72.83 -32.45)" style="fill:#fde9e4;mix-blend-mode:multiply"/><path d="M395.4,165.48a5.55,5.55,0,1,1-5.55-5.24A5.39,5.39,0,0,1,395.4,165.48Z" transform="translate(-72.83 -32.45)" style="fill:#1e1a54"/><path d="M399.49,186.53a.65.65,0,1,1-.65-.65A.65.65,0,0,1,399.49,186.53Z" transform="translate(-72.83 -32.45)" style="fill:#7d4177"/><path d="M347.53,208.43c-.38.31,0,1,.46,1.54-1.73-1.16-2.92-.88-3.44-.21a1.78,1.78,0,0,0,.45,2.74c.71.4,3.57,1.94,3.57,1.94,1.16.51,1.65.32,2.25-.66.43-.7.49-1.17-.23-2.2l-2-2.92C348.28,208.25,348,208.06,347.53,208.43Z" transform="translate(-72.83 -32.45)" style="fill:#fabd9e"/><path d="M372.47,227.29a2.14,2.14,0,0,1-1.53-.19L348.37,215c-1.05-.57,1-4.38,2-3.82l20.48,11,7-16.39a2.16,2.16,0,1,1,4,1.7L373.94,226a2.13,2.13,0,0,1-1.27,1.19A.76.76,0,0,1,372.47,227.29Z" transform="translate(-72.83 -32.45)" style="fill:#7d4177"/><path d="M347,211.18c.33-1.34,12.75-5.43,13.75-5.14.75.22,7.73,5.12,7.58,6-.1.53-10.18,5.23-11,5.15S346.74,212.33,347,211.18Z" transform="translate(-72.83 -32.45)" style="fill:#00002c"/><path d="M363.13,205.24c-.48.32-.09,1.14.36,1.82-1.86-1.52-3.26-1.33-3.94-.6a2.06,2.06,0,0,0,.23,3.2l3.91,2.62c1.28.71,1.87.54,2.66-.53.57-.76.69-1.3,0-2.56,0-.06-2-3.58-2-3.58C364,205.11,363.7,204.85,363.13,205.24Z" transform="translate(-72.83 -32.45)" style="fill:#fabd9e"/><path d="M390.53,229.94a2.52,2.52,0,0,1-1.75-.39L364,213.19c-1.16-.76,1.6-4.95,2.75-4.19l22.46,14.86,9.81-18.17a2.51,2.51,0,0,1,4.41,2.38l-11.11,20.58a2.48,2.48,0,0,1-1.59,1.24Z" transform="translate(-72.83 -32.45)" style="fill:#723b6d"/><path d="M267.38,304.38c.77-11.25,1.16-35.54-.41-36.75-3.41-2.64-9.92-2.53-9.92-2.53h-5.92s-6.44.13-9,2.68c-1.62,1.61-.92,25.39-.41,36.59Z" transform="translate(-72.83 -32.45)" style="fill:#1abab7"/><path d="M241.62,302c0,.83.07,1.63.11,2.37h25.65c.05-.74.1-1.54.14-2.37Z" transform="translate(-72.83 -32.45)" style="fill:#00b4d8;mix-blend-mode:multiply"/><path d="M257,265.09s-.88,4-2.95,4c-2.37,0-3.16-4-3.16-4V258.7H257Z" transform="translate(-72.83 -32.45)" style="fill:#fabd9e"/><path d="M264.68,244.41c.2,3.14,1.46,5.43.24,8.22-1.4,3.2-8.56,7-11,7s-8.77-3.27-10.79-6.64c-1.63-2.72-.71-5.75-.42-9.05.77-9,3.69-13.54,10.81-13.54S264,234.28,264.68,244.41Z" transform="translate(-72.83 -32.45)" style="fill:#fabd9e"/><path d="M264.69,244.4c-.43-6.67-2-10.62-5.1-12.55,2.28,2.16,3.51,5.89,3.87,11.61.21,3.13,1.47,5.42.25,8.21-1.41,3.2-8.56,7-11,7-1.55,0-4.73-1.36-7.34-3.22,2.75,2.33,6.76,4.17,8.57,4.17,2.41,0,9.56-3.8,11-7C266.15,249.83,264.89,247.54,264.69,244.4Z" transform="translate(-72.83 -32.45)" style="fill:#fde9e4;mix-blend-mode:multiply"/><path d="M248.08,237.28s-2.86.29-3.24,6.52c-.2,3.24-1.54,3.4-2.63,3.79a15.2,15.2,0,0,1-.21-6c.2-1.32,1.25-2.09,1.65-4.23Z" transform="translate(-72.83 -32.45)" style="fill:#1e1a54"/><path d="M259,236.85s2.86.29,3.24,6.52c.2,3.24,1.66,3.08,2.75,3.47a15.93,15.93,0,0,0,0-5.81c-.21-1.23-1.1-2.12-1.44-4.21Z" transform="translate(-72.83 -32.45)" style="fill:#1e1a54"/><path d="M243,240.07s1,2.76,2.64.73c2.49-3,6.62-2.1,7.54-1.62,2.24,1.16,6.14,1.27,7.65.12a2.58,2.58,0,0,1,3.22.27,8.1,8.1,0,0,0-1.22-4c-1.32-2-.49-2.83-2.26-3.49-1.12-.42-2-2.74-4.64-2a8.23,8.23,0,0,1-4.54.11,2.86,2.86,0,0,0-3.14.9c-.79.82-1.34,1.91-2.44,2.33C243.07,234.41,244,236.83,243,240.07Z" transform="translate(-72.83 -32.45)" style="fill:#1e1a54"/><path d="M243.73,247.43c0-.87.42-1.61-.46-2.1-1.05-.6-1.64-.43-1.79.82-.26,2.17.63,3.31,1,3.35C244.28,249.71,243.74,248.16,243.73,247.43Z" transform="translate(-72.83 -32.45)" style="fill:#fabd9e"/><path d="M242.75,249.15c-.36,0-1.26-1.17-1-3.35a2.6,2.6,0,0,1,.18-.71,1.34,1.34,0,0,0-.45,1c-.27,2.18.63,3.32,1,3.36.77.09,1.11-.14,1.25-.48A1.42,1.42,0,0,1,242.75,249.15Z" transform="translate(-72.83 -32.45)" style="fill:#fde9e4;mix-blend-mode:multiply"/><path d="M263.27,247.43c0-.87-.42-1.61.46-2.1,1.06-.6,1.64-.43,1.79.82.27,2.17-.63,3.31-1,3.35C262.73,249.71,263.26,248.16,263.27,247.43Z" transform="translate(-72.83 -32.45)" style="fill:#fabd9e"/><path d="M264.26,249.15c.35,0,1.25-1.17,1-3.35a2,2,0,0,0-.18-.71,1.37,1.37,0,0,1,.46,1c.26,2.18-.64,3.32-1,3.36-.76.09-1.11-.14-1.25-.48A1.44,1.44,0,0,0,264.26,249.15Z" transform="translate(-72.83 -32.45)" style="fill:#fde9e4;mix-blend-mode:multiply"/><path d="M258.21,306.26c-.22.53-1.1.31-1.86,0,1.86,1.53,1.95,2.94,1.37,3.75a2.07,2.07,0,0,1-3.19.41l-3.34-3.32c-.95-1.11-.9-1.72,0-2.72.63-.7,1.14-.93,2.52-.47l3.91,1.27C258.16,305.37,258.47,305.62,258.21,306.26Z" transform="translate(-72.83 -32.45)" style="fill:#fabd9e"/><path d="M251,307.33c-5.1-4-18.66-14.3-18.8-14.41a2.49,2.49,0,0,1-.75-3.06l10.13-21.56a2.51,2.51,0,0,1,4.54,2.13l-9.27,19.73c3.78,2.87,13.27,9.9,17.26,13.24C254.83,304,251.59,307.76,251,307.33Z" transform="translate(-72.83 -32.45)" style="fill:#1abab7"/><path d="M249.7,305.87c.2.53,1.08.35,1.86.07-1.92,1.46-2.06,2.87-1.51,3.69a2.06,2.06,0,0,0,3.17.53l3.45-3.2c1-1.08,1-1.69.11-2.71-.6-.73-1.1-1-2.5-.56-.06,0-3.94,1.12-3.94,1.12C249.78,305,249.46,305.23,249.7,305.87Z" transform="translate(-72.83 -32.45)" style="fill:#fabd9e"/><path d="M256.81,307.2c5.26-3.85,19.17-13.62,19.31-13.72a2.51,2.51,0,0,0,.87-3l-9.34-21.92a2.51,2.51,0,1,0-4.61,2l8.55,20.05c-3.89,2.73-13.63,9.41-17.74,12.61C253.15,303.71,256.26,307.61,256.81,307.2Z" transform="translate(-72.83 -32.45)" style="fill:#1abab7"/><path d="M275.42,325c-3.82-1.74-7.44-4.42-9.55-5.5,0,0-3.24-1.22-5.18,2.54l1.38,5s8.1,1.53,13,2.84S279,326.66,275.42,325Z" transform="translate(-72.83 -32.45)" style="fill:#1abab7"/><path d="M261.32,321.09c.47-.33,2.63-.15,3.22-.09a13.52,13.52,0,0,1,4.91,1.63c2.16,1,2.65,1.46,4.85,2.38a7.88,7.88,0,0,1,2.45,1.33,11.67,11.67,0,0,1,1.61,2,5,5,0,0,0-2.94-3.27c-3.82-1.74-7.44-4.42-9.55-5.5A4.14,4.14,0,0,0,261.32,321.09Z" transform="translate(-72.83 -32.45)" style="fill:#0ac;mix-blend-mode:multiply"/><path d="M237.6,316.15c2.66.62,12.81-1.38,17.89-5.12,4.26-3.13,2.88-6.51,2.88-6.51l-16.64-.14a74.87,74.87,0,0,0-19.28,8.4,10.93,10.93,0,0,0-2.64,2.66C219.09,316.94,224.4,313.05,237.6,316.15Z" transform="translate(-72.83 -32.45)" style="fill:#303173"/><path d="M237.12,316c.27-.27-10.21-4.4-15.76-1.6-3,1.48-7,8.3,6.55,10.27,16,2.34,33.7,3.07,34.51,2.79,1.69-.59,2-5.56.6-6.7C262.52,320.3,235.78,317.28,237.12,316Z" transform="translate(-72.83 -32.45)" style="fill:#fabd9e"/><path d="M233.17,325c3.82-1.74,7.44-4.42,9.55-5.5,0,0,3.24-1.22,5.18,2.54l-1.38,5s-8.1,1.53-13,2.84S229.61,326.66,233.17,325Z" transform="translate(-72.83 -32.45)" style="fill:#1abab7"/><path d="M247.27,321.09c-.47-.33-2.63-.15-3.22-.09a13.52,13.52,0,0,0-4.91,1.63c-2.16,1-2.65,1.46-4.85,2.38a7.88,7.88,0,0,0-2.45,1.33,11.61,11.61,0,0,0-1.6,2,5,5,0,0,1,2.93-3.27c3.82-1.74,7.44-4.42,9.55-5.5A4.14,4.14,0,0,1,247.27,321.09Z" transform="translate(-72.83 -32.45)" style="fill:#0ac;mix-blend-mode:multiply"/><path d="M271,316.15c-2.83.66-14.38-2.13-19.38-5.81-2.63-1.93-.69-5.89-.69-5.89l16.46-.07a75.56,75.56,0,0,1,18.76,8.4,10.93,10.93,0,0,1,2.64,2.66C289.5,316.94,284.2,313.05,271,316.15Z" transform="translate(-72.83 -32.45)" style="fill:#303173"/><path d="M271.47,316c-.27-.27,10.21-4.4,15.76-1.6,2.95,1.48,7,8.3-6.55,10.27-16,2.34-33.7,3.07-34.51,2.79-1.69-.59-2-5.56-.6-6.7C246.08,320.3,272.81,317.28,271.47,316Z" transform="translate(-72.83 -32.45)" style="fill:#fabd9e"/><path d="M269.87,315.3a1.39,1.39,0,0,1-1.47,1.3l-27.79,0a1.38,1.38,0,0,1-1.46-1.31l-3.37-22.56a1.39,1.39,0,0,1,1.47-1.31h34.1a1.39,1.39,0,0,1,1.47,1.31Z" transform="translate(-72.83 -32.45)" style="fill:#00002c"/><path d="M258.56,303.91a4.22,4.22,0,1,1-4.22-4.22A4.22,4.22,0,0,1,258.56,303.91Z" transform="translate(-72.83 -32.45)" style="fill:#fff"/><path d="M302,120.78l3.32-3.33a1.62,1.62,0,1,0-2.29-2.29l-3.33,3.33-3.33-3.33a1.62,1.62,0,0,0-2.29,2.3l3.33,3.32-3.33,3.34a1.62,1.62,0,0,0,1.15,2.76,1.64,1.64,0,0,0,1.15-.47l3.32-3.33L303,126.4a1.59,1.59,0,0,0,1.14.48,1.63,1.63,0,0,0,1.15-2.77Z" transform="translate(-72.83 -32.45)" style="fill:#fff"/><path d="M127.73,68.91l-3.33-3.33,3.32-3.33A1.62,1.62,0,0,0,125.43,60l-3.33,3.33L118.77,60a1.62,1.62,0,0,0-2.29,2.3l3.33,3.33-3.33,3.33a1.62,1.62,0,1,0,2.3,2.29l3.32-3.33,3.34,3.32a1.59,1.59,0,0,0,1.14.48,1.63,1.63,0,0,0,1.15-2.77Z" transform="translate(-72.83 -32.45)" style="fill:#fff"/><path d="M416,220.25l-2.22,2.22a1.08,1.08,0,1,0,1.53,1.53l2.22-2.22" transform="translate(-72.83 -32.45)" style="fill:#fff"/><path d="M417.49,218.72l-2.22-2.22a1.08,1.08,0,1,0-1.53,1.53l2.23,2.22" transform="translate(-72.83 -32.45)" style="fill:#fff"/><path d="M126.65,251.46l2.08-2.08a1,1,0,0,0,0-1.43,1,1,0,0,0-1.43,0L125.22,250,123.14,248a1,1,0,0,0-1.43,1.43l2.08,2.08-2.07,2.08a1,1,0,0,0,0,1.43,1,1,0,0,0,.71.3,1,1,0,0,0,.72-.3l2.07-2.08L127.3,255a1,1,0,0,0,.72.29,1,1,0,0,0,.71-.3,1,1,0,0,0,0-1.43Z" transform="translate(-72.83 -32.45)" style="fill:#fff"/><path d="M124.37,146.31h-3v-3a.85.85,0,1,0-1.7,0v3h-3a.85.85,0,1,0,0,1.7h3v3a.85.85,0,1,0,1.7,0v-3h3a.85.85,0,1,0,0-1.7Z" transform="translate(-72.83 -32.45)" style="fill:#fff"/><path d="M400.58,139.78h-3.87v-3.87a1.11,1.11,0,1,0-2.21,0v3.87h-3.87a1.11,1.11,0,1,0,0,2.21h3.87v3.87a1.11,1.11,0,1,0,2.21,0V142h3.87a1.11,1.11,0,1,0,0-2.21Z" transform="translate(-72.83 -32.45)" style="fill:#fff"/><path d="M409.17,110.54a4.26,4.26,0,1,1-4.26-4.26A4.26,4.26,0,0,1,409.17,110.54Z" transform="translate(-72.83 -32.45)" style="fill:#fff"/><path d="M359.81,112.49a4.26,4.26,0,1,1-4.26-4.25A4.26,4.26,0,0,1,359.81,112.49Z" transform="translate(-72.83 -32.45)" style="fill:#fff"/><path d="M349.72,105.1a2.28,2.28,0,1,1-2.28-2.27A2.28,2.28,0,0,1,349.72,105.1Z" transform="translate(-72.83 -32.45)" style="fill:#fff"/><path d="M212.88,50.66a4.26,4.26,0,1,1-4.26-4.26A4.26,4.26,0,0,1,212.88,50.66Z" transform="translate(-72.83 -32.45)" style="fill:#fff"/><path d="M202.79,43.27A2.28,2.28,0,1,1,200.51,41,2.28,2.28,0,0,1,202.79,43.27Z" transform="translate(-72.83 -32.45)" style="fill:#fff"/><path d="M241.41,107.54a4.26,4.26,0,1,1-4.25-4.25A4.25,4.25,0,0,1,241.41,107.54Z" transform="translate(-72.83 -32.45)" style="fill:#fff"/><path d="M231.32,100.15A2.28,2.28,0,1,1,229,97.88,2.28,2.28,0,0,1,231.32,100.15Z" transform="translate(-72.83 -32.45)" style="fill:#fff"/><path d="M100.41,117.72a4.26,4.26,0,1,1-4.26-4.26A4.26,4.26,0,0,1,100.41,117.72Z" transform="translate(-72.83 -32.45)" style="fill:#fff"/><path d="M90.31,110.33A2.28,2.28,0,1,1,88,108.06,2.28,2.28,0,0,1,90.31,110.33Z" transform="translate(-72.83 -32.45)" style="fill:#fff"/><path d="M81.35,205.5a4.26,4.26,0,1,1-4.26-4.26A4.25,4.25,0,0,1,81.35,205.5Z" transform="translate(-72.83 -32.45)" style="fill:#fff"/><path d="M379.82,76.27A4.26,4.26,0,1,1,375.56,72,4.26,4.26,0,0,1,379.82,76.27Z" transform="translate(-72.83 -32.45)" style="fill:#fff"/><circle cx="56.17" cy="74.09" r="4.26" style="fill:#fff"/><path d="M350.27,34.51A4.26,4.26,0,1,1,346,38.77a4.25,4.25,0,0,1,4.25-4.26" transform="translate(-72.83 -32.45)" style="fill:#fff"/></g></g></svg>