<?xml version="1.0" encoding="utf-8"?>
<!-- Generator: Adobe Illustrator 24.1.0, SVG Export Plug-In . SVG Version: 6.00 Build 0)  -->
<svg version="1.1" id="ec500484-8e35-4be5-8191-25e4427db5df"
	 xmlns="http://www.w3.org/2000/svg" xmlns:xlink="http://www.w3.org/1999/xlink" x="0px" y="0px" viewBox="0 0 1145.7 770.6"
	 style="enable-background:new 0 0 1145.7 770.6;" xml:space="preserve">
<style type="text/css">
	.st0{opacity:0.1;fill:#3F3D56;enable-background:new    ;}
	.st1{opacity:0.1;fill:#413E66;enable-background:new    ;}
	.st2{fill:#3A3768;}
	.st3{fill:#3F3D56;}
	.st4{fill:#E6E8EC;}
	.st5{fill:#7A93E2;}
	.st6{opacity:0.1;stroke:#1BB1DC;stroke-miterlimit:10;enable-background:new    ;}
	.st7{opacity:0.1;stroke:#1BB1DC;stroke-width:1;stroke-miterlimit:10.0005;enable-background:new    ;}
	.st8{fill:#FFFFFF;}
	.st9{fill:#413E66;}
	.st10{opacity:0.4;}
	.st11{fill:#FB7B65;}
	.st12{opacity:0.1;fill:none;stroke:#1BB1DC;stroke-width:3;stroke-miterlimit:10;enable-background:new    ;}
	.st13{fill:url(#SVGID_1_);}
	.st14{opacity:0.1;fill:#000FFF;enable-background:new    ;}
	.st15{opacity:0.1;enable-background:new    ;}
	.st16{display:none;opacity:0.1;enable-background:new    ;}
	.st17{opacity:0.1;}
	.st18{fill:#F9C44E;}
	.st19{opacity:0.1;fill:#F9C44E;enable-background:new    ;}
	.st20{opacity:0.1;fill:#06F706;enable-background:new    ;}
</style>
<ellipse class="st0" cx="771.8" cy="757.3" rx="142" ry="10"/>
<path class="st1" d="M909.1,451.1h-40.5v-10.8c0-1.4-0.9-2.6-2.1-2.6l0,0h-11.9v-11.5c0-0.9-0.6-1.6-1.3-1.6h-15.4
	c-0.7,0-1.3,0.7-1.3,1.6v11.5h-14c-1.2,0-2.1,1.2-2.1,2.6l0,0v10.8h-38.7c-0.2,0-0.4,0.2-0.4,0.5v142.7c0,0.3,0.2,0.5,0.4,0.5h25.7
	c0.2,0,0.4-0.2,0.4-0.5v-19.2c0-0.3,0.2-0.5,0.4-0.5h10.9c0.2,0,0.4,0.2,0.4,0.5v19.2c0,0.3,0.2,0.5,0.4,0.5h50.8
	c0.2,0,0.4-0.2,0.4-0.5v-19.2c0-0.3,0.2-0.5,0.4-0.5h10.9c0.2,0,0.4,0.2,0.4,0.5v19.2c0,0.3,0.2,0.5,0.4,0.5H909
	c0.2,0,0.4-0.2,0.4-0.5V451.6C909.6,451.3,909.4,451.1,909.1,451.1z M803.3,567.9c0,0.3-0.2,0.5-0.4,0.5l0,0H787
	c-0.2,0-0.4-0.2-0.4-0.5l0,0v-6.7c0-0.3,0.2-0.5,0.4-0.5h15.8c0.2,0,0.4,0.2,0.4,0.5L803.3,567.9L803.3,567.9z M803.3,550.8
	c0,0.3-0.2,0.5-0.4,0.5l0,0H787c-0.2,0-0.4-0.2-0.4-0.5l0,0v-6.6c0-0.3,0.2-0.5,0.4-0.5l0,0h15.9c0.2,0,0.4,0.2,0.4,0.5l0,0
	L803.3,550.8L803.3,550.8z M803.3,533.6c0,0.3-0.2,0.5-0.4,0.5H787c-0.2,0-0.4-0.2-0.4-0.5V527c0-0.3,0.2-0.5,0.4-0.5h15.9
	c0.2,0,0.4,0.2,0.4,0.5L803.3,533.6L803.3,533.6z M803.3,516.4c0,0.3-0.2,0.5-0.4,0.5l0,0H787c-0.2,0-0.4-0.2-0.4-0.5l0,0v-6.6
	c0-0.3,0.2-0.5,0.4-0.5l0,0h15.9c0.2,0,0.4,0.2,0.4,0.5l0,0L803.3,516.4L803.3,516.4z M803.3,499.3c0,0.3-0.2,0.5-0.4,0.5H787
	c-0.2,0-0.4-0.2-0.4-0.5v-6.7c0-0.3,0.2-0.5,0.4-0.5l0,0h15.9c0.2,0,0.4,0.2,0.4,0.5l0,0L803.3,499.3L803.3,499.3z M803.3,482.1
	c0,0.3-0.2,0.5-0.4,0.5l0,0H787c-0.2,0-0.4-0.2-0.4-0.5l0,0v-6.6c0-0.3,0.2-0.5,0.4-0.5h15.8c0.2,0,0.4,0.2,0.4,0.5L803.3,482.1
	L803.3,482.1z M803.3,464.9c0,0.3-0.2,0.5-0.4,0.5l0,0H787c-0.2,0-0.4-0.2-0.4-0.5l0,0v-6.6c0-0.3,0.2-0.5,0.4-0.5l0,0h15.9
	c0.2,0,0.4,0.2,0.4,0.5l0,0L803.3,464.9L803.3,464.9z M841,567.9c0,0.3-0.2,0.5-0.4,0.5l0,0h-15.9c-0.2,0-0.4-0.2-0.4-0.5v-6.6
	c0-0.3,0.2-0.5,0.4-0.5h15.9c0.2,0,0.4,0.2,0.4,0.5V567.9z M841,550.7c0,0.3-0.2,0.5-0.4,0.5l0,0h-15.9c-0.2,0-0.4-0.2-0.4-0.5v-6.6
	c0-0.3,0.2-0.5,0.4-0.5h15.9c0.2,0,0.4,0.2,0.4,0.5l0,0V550.7z M841,533.6c0,0.3-0.2,0.5-0.4,0.5h-15.9c-0.2,0-0.4-0.2-0.4-0.5V527
	c0-0.3,0.2-0.5,0.4-0.5h15.9c0.2,0,0.4,0.2,0.4,0.5V533.6z M841,516.4c0,0.3-0.2,0.5-0.4,0.5l0,0h-15.9c-0.2,0-0.4-0.2-0.4-0.5v-6.6
	c0-0.3,0.2-0.5,0.4-0.5h15.9c0.2,0,0.4,0.2,0.4,0.5l0,0V516.4z M841,499.2c0,0.3-0.2,0.5-0.4,0.5h-15.9c-0.2,0-0.4-0.2-0.4-0.5v-6.6
	c0-0.3,0.2-0.5,0.4-0.5h15.9c0.2,0,0.4,0.2,0.4,0.5l0,0V499.2z M841,482.1c0,0.3-0.2,0.5-0.4,0.5l0,0h-15.9c-0.2,0-0.4-0.2-0.4-0.5
	v-6.6c0-0.3,0.2-0.5,0.4-0.5h15.9c0.2,0,0.4,0.2,0.4,0.5V482.1z M841,464.9c0,0.3-0.2,0.5-0.4,0.5l0,0h-15.9c-0.2,0-0.4-0.2-0.4-0.5
	v-6.6c0-0.3,0.2-0.5,0.4-0.5h15.9c0.2,0,0.4,0.2,0.4,0.5l0,0V464.9z M866.7,567.9c0,0.3-0.2,0.5-0.4,0.5l0,0h-15.9
	c-0.2,0-0.4-0.2-0.4-0.5v-6.6c0-0.3,0.2-0.5,0.4-0.5h15.9c0.2,0,0.4,0.2,0.4,0.5V567.9z M866.7,550.7c0,0.3-0.2,0.5-0.4,0.5l0,0
	h-15.9c-0.2,0-0.4-0.2-0.4-0.5v-6.6c0-0.3,0.2-0.5,0.4-0.5h15.9c0.2,0,0.4,0.2,0.4,0.5l0,0V550.7z M866.7,533.6
	c0,0.3-0.2,0.5-0.4,0.5h-15.9c-0.2,0-0.4-0.2-0.4-0.5V527c0-0.3,0.2-0.5,0.4-0.5h15.9c0.2,0,0.4,0.2,0.4,0.5V533.6z M866.7,516.4
	c0,0.3-0.2,0.5-0.4,0.5l0,0h-15.9c-0.2,0-0.4-0.2-0.4-0.5v-6.6c0-0.3,0.2-0.5,0.4-0.5h15.9c0.2,0,0.4,0.2,0.4,0.5l0,0V516.4z
	 M866.7,499.2c0,0.3-0.2,0.5-0.4,0.5h-15.9c-0.2,0-0.4-0.2-0.4-0.5v-6.6c0-0.3,0.2-0.5,0.4-0.5h15.9c0.2,0,0.4,0.2,0.4,0.5l0,0
	V499.2z M866.7,482.1c0,0.3-0.2,0.5-0.4,0.5l0,0h-15.9c-0.2,0-0.4-0.2-0.4-0.5v-6.6c0-0.3,0.2-0.5,0.4-0.5h15.9
	c0.2,0,0.4,0.2,0.4,0.5V482.1z M866.7,464.9c0,0.3-0.2,0.5-0.4,0.5l0,0h-15.9c-0.2,0-0.4-0.2-0.4-0.5v-6.6c0-0.3,0.2-0.5,0.4-0.5
	h15.9c0.2,0,0.4,0.2,0.4,0.5l0,0V464.9z M904.3,567.9c0,0.3-0.2,0.5-0.4,0.5H888c-0.2,0-0.4-0.2-0.4-0.5l0,0v-6.6
	c0-0.3,0.2-0.5,0.4-0.5h15.9c0.2,0,0.4,0.2,0.4,0.5L904.3,567.9L904.3,567.9z M904.3,550.7c0,0.3-0.2,0.5-0.4,0.5H888
	c-0.2,0-0.4-0.2-0.4-0.5l0,0v-6.6c0-0.3,0.2-0.5,0.4-0.5l0,0h15.9c0.2,0,0.4,0.2,0.4,0.5L904.3,550.7L904.3,550.7z M904.3,533.6
	c0,0.3-0.2,0.5-0.4,0.5H888c-0.2,0-0.4-0.2-0.4-0.5V527c0-0.3,0.2-0.5,0.4-0.5h15.9c0.2,0,0.4,0.2,0.4,0.5L904.3,533.6L904.3,533.6z
	 M904.3,516.4c0,0.3-0.2,0.5-0.4,0.5H888c-0.2,0-0.4-0.2-0.4-0.5l0,0v-6.6c0-0.3,0.2-0.5,0.4-0.5l0,0h15.9c0.2,0,0.4,0.2,0.4,0.5
	L904.3,516.4L904.3,516.4z M904.3,499.2c0,0.3-0.2,0.5-0.4,0.5H888c-0.2,0-0.4-0.2-0.4-0.5v-6.6c0-0.3,0.2-0.5,0.4-0.5l0,0h15.9
	c0.2,0,0.4,0.2,0.4,0.5L904.3,499.2L904.3,499.2z M904.3,482.1c0,0.3-0.2,0.5-0.4,0.5H888c-0.2,0-0.4-0.2-0.4-0.5l0,0v-6.6
	c0-0.3,0.2-0.5,0.4-0.5h15.9c0.2,0,0.4,0.2,0.4,0.5L904.3,482.1L904.3,482.1z M904.3,464.9c0,0.3-0.2,0.5-0.4,0.5H888
	c-0.2,0-0.4-0.2-0.4-0.5l0,0v-6.6c0-0.3,0.2-0.5,0.4-0.5l0,0h15.9c0.2,0,0.4,0.2,0.4,0.5L904.3,464.9L904.3,464.9z"/>
<path class="st1" d="M1141,465.5c0,129.2-78,250.7-185,259.8c-14.2,0-103.2,3.1-117.2,0.8H414.1c-16.4,2.3-32.9,3.4-49.5,3.4
	c-11.9,0-23.6-0.6-35.2-1.7c-185-18-326-173.5-325.8-359.3c0-199.4,161.6-361,361-361c160.6,0,296.6,104.8,343.5,249.8
	c36.6-52,95.2-64.1,196.2-56.3C951,205.3,1141,239.4,1141,465.5z"/>
<path class="st1" d="M1095,621.4c-33.3,64.6-72,117.9-270.7,103l-418.7,0.9c-21.2,0-29.6,0-50,0c-11.7,0-23.4,1.1-34.9,0
	C156.2,702.1,60.9,604.4,17.8,469.5c34.1-72.4,121.8-118,224.6-118c100.1,0,186,48.9,221.8,118.4c17.7-3.2,35.5-4.8,53.5-4.8
	c103.8,0,192.2,52.6,225.5,126c27.6-8.3,58,2.3,86.9,2.4C914.7,593.5,975.9,592.2,1095,621.4z"/>
<path class="st2" d="M709.2,250.4h4.3c1.3,0,2.3,1,2.3,2.3v68.4c0,1.3-1,2.3-2.3,2.3h-4.3c-1.3,0-2.3-1-2.3-2.3v-68.4
	C707,251.4,708,250.4,709.2,250.4z"/>
<path class="st2" d="M414.8,193.2h0.4c1.3,0,2.3,1,2.3,2.3V215c0,1.3-1,2.3-2.3,2.3h-0.4c-1.3,0-2.3-1-2.3-2.3v-19.5
	C412.5,194.2,413.5,193.2,414.8,193.2z"/>
<path class="st2" d="M414.6,237.2h1c1.3,0,2.3,1,2.3,2.3v37.3c0,1.3-1,2.3-2.3,2.3h-1c-1.3,0-2.3-1-2.3-2.3v-37.3
	C412.3,238.3,413.4,237.2,414.6,237.2z"/>
<path class="st2" d="M414.7,293.7h0.7c1.3,0,2.3,1,2.3,2.3v37.6c0,1.3-1,2.3-2.3,2.3h-0.7c-1.3,0-2.3-1-2.3-2.3V296
	C412.4,294.7,413.4,293.7,414.7,293.7z"/>
<path class="st3" d="M454.3,113.8h218.4c21.5,0,39,17.5,39,39v524.4c0,21.5-17.5,39-39,39H454.3c-21.5,0-39-17.5-39-39V152.8
	C415.3,131.2,432.8,113.8,454.3,113.8z"/>
<path class="st4" d="M538.8,131.8h33.7c2.1,0,3.9,1.7,3.9,3.9v0.7c0,2.1-1.7,3.9-3.9,3.9h-33.7c-2.1,0-3.9-1.7-3.9-3.9v-0.7
	C534.9,133.5,536.7,131.8,538.8,131.8z"/>
<circle class="st4" cx="587.3" cy="136" r="4.8"/>
<path class="st5" d="M668,124.4h-33.9v4.1c0,10.7-8.7,19.4-19.4,19.4l0,0H506.6c-10.7,0-19.4-8.7-19.4-19.4l0,0v-4.1h-31.8
	c-13,0-23.5,10.5-23.5,23.5l0,0v523.9c0,13,10.5,23.5,23.5,23.5l0,0H668c13,0,23.5-10.5,23.5-23.5V147.9
	C691.6,134.9,681,124.4,668,124.4z"/>
<rect x="444.5" y="223.5" class="st6" width="149" height="24"/>
<ellipse transform="matrix(0.4641 -0.8858 0.8858 0.4641 -57.3266 616.222)" class="st7" cx="480.6" cy="355.5" rx="32" ry="32"/>
<path class="st8" d="M471.5,349.5v12h8l10,10.5v-33l-10,10.5H471.5z"/>
<circle class="st6" cx="565.5" cy="355.5" r="32"/>
<path class="st9" d="M694.7,731c1,1.9,2.9,3,4.7,4.1c12.6,7.2,25.8,13.2,39.6,17.8c1.3,0.7,2.9,0.3,3.6-1c0.1-0.2,0.2-0.3,0.2-0.5
	c1.6-2.7,3.3-7,2.9-10.5c1.3-0.8,2.2-2,2.6-3.5c0.5-1.8,1.4-3.5,2.4-5c1.9-2.8,4.1-5.7,4.4-9.1c0-1.2,0.1-2.4,0.3-3.6
	c0.5-1.6,1.9-2.6,3-3.9c1.7-2,2.4-4.6,3.2-7.1c3.1-10.4,6.2-20.9,8.8-31.5c0.8-3.4,1.6-6.9,2.8-10.2c1-2.9,2.3-5.7,3.5-8.5
	c4.5-10.1,9.8-19.9,15.8-29.3c0.9,3.1,2.1,6.2,3.4,9.2c0.7,1.5,1.4,3.1,2.1,4.6c2.6,5.8,2.1,13.3,5.3,18.8c1.3,2.3,2.6,4.5,3.9,6.8
	c0.7,1.1,1.3,2.3,1.7,3.6c0.2,0.9,0.2,1.8,0.4,2.7c0.7,4,3.9,6.8,5.7,10.4c1.7,3.3,2,7,3,10.6c2.4,8.3,8.2,15.5,8.8,24.2
	c0.1,2.3,0,4.7-0.2,7c-0.1,4.1,0.1,8.2,0.8,12.2c0.1,0.4,0.2,0.8,0.3,1.2c-5.1,7.6-13,13-22,14.9c-1.7,0.3-3.7,0.7-4.5,2.3
	c-1.1,1.9,0.1,4.4,2,5.4s4,0.9,6,0.7c14.3-1.2,28.5-3.8,42.4-7.8c0.7-0.1,1.3-0.5,1.8-1c0.5-0.7,0.7-1.6,0.6-2.5
	c0-3.2-0.8-6.4-2.2-9.3l1-0.3c0.6-4-1.5-7.9-3.1-11.6c-2.8-6.5-4.3-13.5-6.5-20.2c-4.2-13-11.1-25.1-12.7-38.7
	c-0.5-3.7-1.6-7.5-1.8-11.3c-0.5-7.7-1-15.4-2.7-22.8c-1.4-6.1-3.6-12-5-18.2s-1.8-12.7,0.2-18.7c0.6-1.7,1.4-3.3,1.9-5
	c2-6.6,0.1-13.8-1.8-20.4c-0.6-2.1-1.2-4.2-1.8-6.3c-0.8-2.8-1.6-5.5-2.5-8.2c0.1-0.1,0.2-0.2,0.3-0.3c1.8-2,1.7-5.1,3-7.5
	c0.6-1.2,1.6-2.2,2.2-3.4c1.2-2.6,1.6-5.5,0.9-8.3c-0.5-2.8-1.6-5.5-2.4-8.2c-2.2-7.5-2.3-15.4-0.5-23c0.8-3.2,2-6.4,2.2-9.7
	c0.1-2.2-0.1-4.5-0.6-6.6c-1.5-8.4-4.6-16.9-10.8-22.5c-3.3-3-7.7-5.6-8.1-10.2c-0.5-0.2-1.1-0.2-1.7-0.1c-0.3-1-0.5-2.1-0.6-3.2
	l0,0c0.3,0,0.6,0,0.9,0c0.3,0,0.5-0.1,0.7-0.2c0.1-0.1,0.2-0.2,0.4-0.3c0.4-0.4,0.7-0.8,1-1.3c0.4-0.7,0.8-1.4,1.1-1.9
	s0.8-1.3,1.2-2c1.2-2,2.3-4,3.3-6.1v-0.1c0.1-0.2,0.2-0.4,0.3-0.6l0.1-0.3l0.2-0.4c0-0.1,0.1-0.2,0.1-0.3s0.1-0.3,0.2-0.4l0.1-0.3
	c0-0.1,0.1-0.2,0.1-0.4c0-0.1,0.1-0.2,0.1-0.3c0-0.1,0.1-0.2,0.1-0.4s0.1-0.2,0.1-0.4s0.1-0.2,0.1-0.4l0.1-0.4
	c0-0.1,0.1-0.2,0.1-0.4l0.1-0.4l0.1-0.4l0.1-0.4c0-0.1,0-0.2,0.1-0.3s0-0.3,0.1-0.4s0-0.2,0-0.3l0.1-0.4v-0.3c0-0.1,0-0.3,0-0.4
	s0-0.2,0-0.3s0-0.3,0-0.4v-0.2c0-0.1,0-0.3,0-0.4s0-0.2,0-0.3s0-0.3,0-0.4s0-0.2,0-0.3c0-0.4-0.1-0.8-0.2-1.2
	c-0.7-2.3-2-4.4-3.9-5.9c-1.8-1.5-3.8-2.7-6-3.6c-0.5-0.2-1-0.5-1.4-0.9c-0.5-0.7-0.9-1.5-1.2-2.2c-0.9-1.5-2.6-2.2-4.3-2.6
	s-3.4-0.7-4.8-1.7c-0.1-0.1-0.3-0.2-0.4-0.2c-0.2,0-0.4,0-0.6,0.1l-3.9,1.7c-0.2-1-1.1-1.7-2.1-1.5l0,0c-0.9,0.2-1.8,0.7-2.5,1.4
	c-0.2-0.2-0.3-0.6-0.2-0.9l-3,2c-0.4,0.2-1,0.3-1-0.2c-1.7,1.8-3.1,3.8-4.3,6c-0.4,0.7-0.7,1.4-0.9,2.1l0,0c0,0.1-0.1,0.3-0.1,0.5
	v0.1c0,0.1-0.1,0.3-0.1,0.4v0.1c0,0.2,0,0.4,0,0.5l0,0c0,0.2,0,0.4,0,0.6c0.1,1.1,0.7,2.1,1.7,2.7c0.4,0.1,0.8,0.2,1.2,0.2
	c0.9-0.1,1.7-0.3,2.5-0.5c0.3-0.1,0.5-0.1,0.8-0.1c0.1,0,0.3,0,0.4,0c0.5,0,1,0.2,1.4,0.5l0.1,0.1c-4.4,3.2-7,8.3-7,13.8
	c0,2.6,0.6,5.3,1.8,7.6c-0.8,0.5-1.3,1.3-1.3,2.3c-0.3-0.8-0.4-1.6-0.4-2.4c-1.6-0.3-2.8,1.6-3.4,3.2c-1.2,3.7-2.2,7.5-2.8,11.4
	c-0.5,2.6-1,5.1-1.5,7.7s-1,5.3-1.4,8c-0.9,6.9-0.6,14,0.9,20.8c-0.1,0.2-0.2,0.5-0.3,0.7c-0.3,0.8-1.2,1.5-1.3,2.3
	c-0.5,5.1,2.7,9.7,5.7,13.7c0.2,0.4,0.6,0.8,1,1s0.9,0.2,1.4,0.2c1.2-0.1,2.4-0.2,3.6-0.4c0.1,0.7,0.2,1.3,0.2,2
	c0.9,7.2,2.3,14.4,2.3,21.6s-1.4,14.6,1.4,21c0.5,1.1,1.3,2,1.4,3.1h0.2c-1.7,3.5-3.1,7-4.1,10.7c-1.1,4.3-1.3,8.9-2.6,13.2
	c-1,3.7-2.8,7-4.2,10.6c-2.3,5.8-3.6,11.9-4,18.1c0,2.9-0.6,5.7-1.7,8.3c-1.6,3.2-3,6.4-4.2,9.8c-2,5.9-5.4,11.6-6,17.9
	c-0.3,3.6,0.2,7.4-1.3,10.6c-0.6,1.3-1.4,2.3-2.1,3.5c-1,1.9-1.8,3.9-2.3,6l-9.9,32.8c-0.4,1.8-1.2,3.5-2.4,4.9
	c-0.9,0.9-2.1,1.4-3,2.3c-1.4,1.4-1.8,3.5-1.8,5.6c-1.1,0.2-2.1,0.5-3.1,1c-8.5,3.6-18,3.6-26.5,0c-1.6-0.7-3.4-1.5-5-0.7
	C694,726.3,693.7,729.1,694.7,731z M773.6,482.3c0.6-2.7,1.7-5.3,3.3-7.6c2.2-3.7,4.6-7.3,6.7-11.1l0.6-0.6c0.2,0.5,0.3,1,0.5,1.5
	c0.4,1.3,0.7,2.6,0.9,3.9c0.3,1.6,0.4,3.3,0.3,5l-0.1,0.1c-0.8,0.5-1.5,1.2-1.9,2.1c-0.3,0.9-0.3,1.8,0,2.6l-0.1,0.1l0.1-0.1
	c0.3,1.4,1,2.8,0.8,4.2c-0.2,1.7-1.6,2.9-2.4,4.4c-2,3.5-1.4,8.8-4.7,10.9l-0.1,0.1l0,0c-1.4-0.3-2.6-1.3-3.2-2.7l0,0
	C774.5,490.9,772.9,486.6,773.6,482.3z"/>
<path class="st8" d="M565.5,368.8c-2.1,0-3.8,1.7-3.8,3.8c0,2.1,1.7,3.8,3.8,3.8s3.8-1.7,3.8-3.8l0,0
	C569.3,370.5,567.6,368.8,565.5,368.8z M554.3,334.5c-2.1,0-3.8,1.7-3.8,3.8c0,2.1,1.7,3.8,3.8,3.8s3.8-1.7,3.8-3.8l0,0
	C558.1,336.2,556.4,334.5,554.3,334.5z M554.3,345.9c-2.1,0-3.8,1.7-3.8,3.8c0,2.1,1.7,3.8,3.8,3.8s3.8-1.7,3.8-3.8l0,0
	C558.1,347.6,556.4,345.9,554.3,345.9L554.3,345.9z M554.3,357.4c-2.1,0-3.8,1.7-3.8,3.8c0,2.1,1.7,3.8,3.8,3.8s3.8-1.7,3.8-3.8l0,0
	C558.1,359.1,556.4,357.4,554.3,357.4z M576.7,342.1c2.1,0,3.8-1.7,3.8-3.8c0-2.1-1.7-3.8-3.8-3.8s-3.8,1.7-3.8,3.8l0,0
	C572.9,340.4,574.6,342.1,576.7,342.1L576.7,342.1z M565.5,357.4c-2.1,0-3.8,1.7-3.8,3.8c0,2.1,1.7,3.8,3.8,3.8s3.8-1.7,3.8-3.8l0,0
	C569.3,359.1,567.6,357.4,565.5,357.4z M576.7,357.4c-2.1,0-3.8,1.7-3.8,3.8c0,2.1,1.7,3.8,3.8,3.8s3.8-1.7,3.8-3.8l0,0
	C580.5,359.1,578.8,357.4,576.7,357.4z M576.7,345.9c-2.1,0-3.8,1.7-3.8,3.8c0,2.1,1.7,3.8,3.8,3.8s3.8-1.7,3.8-3.8l0,0
	C580.5,347.6,578.8,345.9,576.7,345.9L576.7,345.9z M565.5,345.9c-2.1,0-3.8,1.7-3.8,3.8c0,2.1,1.7,3.8,3.8,3.8s3.8-1.7,3.8-3.8l0,0
	C569.3,347.6,567.6,345.9,565.5,345.9L565.5,345.9z M565.5,334.5c-2.1,0-3.8,1.7-3.8,3.8c0,2.1,1.7,3.8,3.8,3.8s3.8-1.7,3.8-3.8l0,0
	C569.3,336.2,567.6,334.5,565.5,334.5z"/>
<g class="st10">
	
		<ellipse transform="matrix(0.4641 -0.8858 0.8858 0.4641 -142.3605 667.6706)" class="st7" cx="480.6" cy="451.5" rx="32" ry="32"/>
	<path class="st8" d="M495.5,453.5h-13v13h-4v-13h-13v-4h13v-13h4v13h13V453.5z"/>
</g>
<circle class="st6" cx="650.5" cy="355.5" r="32"/>
<path class="st8" d="M650.5,336c-10.1,0.1-18.1,8.4-18,18.5l0,0v14.4c0,3.4,2.6,6.1,6,6.2l0,0h6v-16.5h-8v-4c0-7.7,6.3-14,14-14
	s14,6.3,14,14v4h-8V375h6c3.4,0,6-2.8,6-6.1l0,0v-14.4C668.7,344.4,660.6,336.1,650.5,336L650.5,336z"/>
<g class="st10">
	<circle class="st6" cx="565.5" cy="451.5" r="32"/>
	<path class="st8" d="M577.5,448v-8c0-1.3-1.1-2.3-2.3-2.3l0,0h-28.3c-1.3,0-2.3,1-2.3,2.3v22.8c0,1.3,1.1,2.3,2.3,2.3h28.3
		c1.3,0,2.3-1,2.3-2.3v-8l9,9.1v-25L577.5,448z"/>
</g>
<circle class="st6" cx="650.5" cy="451.5" r="32"/>
<path class="st8" d="M648.9,459.7c-3.5,2-7.8,2-11.3,0c-4.4,1.3-7.1,5.8-8.1,9.8H657C656.1,465.5,653.4,461.1,648.9,459.7z
	 M643.3,438.7c-5.5,0-9.9,4.4-9.9,9.9s4.4,9.9,9.9,9.9s9.9-4.4,9.9-9.9l0,0C653.2,443.2,648.8,438.7,643.3,438.7L643.3,438.7z
	 M643.3,456.2c-3.1-0.1-5.8-1.9-6.9-4.7h13.9C649.1,454.3,646.4,456.1,643.3,456.2L643.3,456.2z"/>
<path class="st8" d="M656.8,463.5h14.8c-0.9-4.2-4-7.6-8.1-9c-1.7,1-3.7,1.5-5.7,1.5c-1.3,0-2.6-0.2-3.9-0.7
	c-0.7,1.2-1.6,2.3-2.6,3.3C653.5,459.6,655.4,461.3,656.8,463.5z M655.3,446.2h9.4c-1.2,2.8-3.9,4.7-6.9,4.7c-0.8,0-1.6-0.1-2.4-0.4
	c-0.1,0.8-0.3,1.6-0.6,2.3c5.2,1.7,10.8-1.2,12.5-6.4c1.7-5.2-1.2-10.8-6.4-12.5c-1-0.3-2-0.5-3-0.5c-3.4,0-6.5,1.7-8.4,4.6
	C652.4,439.8,654.6,442.8,655.3,446.2L655.3,446.2z"/>
<circle class="st11" cx="565.5" cy="579.5" r="32"/>
<path class="st8" d="M549.1,587.4c1.8-1.7,3.7-3,5.9-4.1c0.7-0.3,1.1-1,1.1-1.7l0.2-6.2c6.1-1.8,12.7-1.6,18.7,0.5l-0.2,6.2
	c0,0.7,0.4,1.4,1,1.8c2.2,1.1,4.1,2.6,5.8,4.4c0.8,0.8,2,0.8,2.8,0.1l0,0l5.1-4.8c0.8-0.8,0.8-2,0.1-2.8
	c-12.9-13.6-34.4-14.2-48.1-1.3l0,0c-0.8,0.8-0.8,2-0.1,2.8l0,0l4.8,5.1C547,588.1,548.3,588.1,549.1,587.4L549.1,587.4L549.1,587.4
	z"/>
<circle class="st6" cx="654.5" cy="243.5" r="25"/>
<path class="st8" d="M660.2,249.1c-3.5,2-7.8,2-11.3,0c-4.4,1.4-7.1,5.8-8.1,9.8h27.6C667.3,254.9,664.6,250.4,660.2,249.1z
	 M654.5,228.1c-5.5,0-9.9,4.4-9.9,9.9s4.4,9.9,9.9,9.9s9.9-4.4,9.9-9.9l0,0C664.4,232.5,660,228.1,654.5,228.1z M654.5,245.6
	c-3-0.1-5.8-1.9-6.9-4.7h13.9C660.3,243.6,657.6,245.5,654.5,245.6L654.5,245.6z"/>
<path class="st12" d="M351.5,56.2"/>
<path class="st12" d="M397.5,93.3"/>
<path class="st12" d="M404.6,66.4"/>
<path class="st12" d="M808.6,392.6c-1.5-0.9-3.5,0-4.5,1.4c-0.9,1.5-1.5,3.2-1.6,4.9c-0.6,3.8-1,8.2,1.6,11
	c-4.5-12.9-15.9-22.2-29.5-23.9"/>
<path class="st12" d="M299.1,263.4c-1.5-0.9-3.5,0-4.5,1.4"/>
<linearGradient id="SVGID_1_" gradientUnits="userSpaceOnUse" x1="3406.5208" y1="-99.7406" x2="3406.5208" y2="247.6899" gradientTransform="matrix(-1 0 0 -1 4182.8501 667.29)">
	<stop  offset="0" style="stop-color:#808080;stop-opacity:0.25"/>
	<stop  offset="0.54" style="stop-color:#808080;stop-opacity:0.12"/>
	<stop  offset="1" style="stop-color:#808080;stop-opacity:0.1"/>
</linearGradient>
<path class="st13" d="M697.8,733.9c1,1.9,2.9,3,4.6,4.1c12.4,7.2,25.5,13.2,39.1,17.9c1.3,0.7,2.9,0.3,3.6-1
	c0.1-0.2,0.2-0.3,0.2-0.5c1.6-2.7,3.3-7,2.9-10.5c1.3-0.8,2.2-2,2.6-3.5c0.5-1.8,1.4-3.5,2.4-5c1.9-2.8,4-5.7,4.3-9.1
	c0-1.2,0.1-2.4,0.3-3.6c0.5-1.6,1.9-2.6,3-3.9c1.7-2,2.4-4.6,3.2-7.1c3.1-10.4,6.1-21,8.7-31.6c0.8-3.4,1.6-6.9,2.8-10.2
	c1-2.9,2.3-5.7,3.5-8.5c4.4-10.1,9.7-20,15.6-29.4c0.9,3.1,2.1,6.2,3.4,9.2c0.7,1.5,1.4,3.1,2.1,4.6c2.6,5.8,2.1,13.3,5.2,18.9
	c1.3,2.3,2.6,4.5,3.8,6.8c0.7,1.1,1.3,2.3,1.7,3.6c0.2,0.9,0.2,1.8,0.4,2.7c0.7,4,3.8,6.8,5.6,10.4c1.7,3.3,2,7,3,10.6
	c2.4,8.3,8.1,15.6,8.7,24.3c0.1,2.3,0,4.7-0.2,7c-0.1,4.1,0.1,8.2,0.8,12.2c0.1,0.4,0.2,0.8,0.3,1.2c-5,7.6-12.8,13-21.7,15
	c-1.7,0.3-3.7,0.7-4.4,2.3c-1.1,1.9,0.1,4.4,2,5.4s3.9,0.9,5.9,0.7c14.1-1.2,28.1-3.8,41.8-7.8c0.7-0.1,1.3-0.5,1.8-1
	c0.5-0.7,0.7-1.6,0.6-2.5c0-3.2-0.8-6.4-2.2-9.3l1-0.3c0.6-4-1.5-7.9-3.1-11.6c-2.8-6.5-4.2-13.5-6.4-20.3
	c-4.1-13-11-25.2-12.5-38.8c-0.5-3.7-1.6-7.5-1.8-11.3c-0.5-7.7-1-15.5-2.7-22.9c-1.4-6.1-3.6-12-4.9-18.3
	c-1.4-6.2-1.8-12.7,0.2-18.8c0.6-1.7,1.4-3.3,1.9-5c2-6.6,0.1-13.8-1.8-20.5c-0.6-2.1-1.2-4.2-1.8-6.3c-0.8-2.8-1.6-5.5-2.5-8.2
	c0.1-0.1,0.2-0.2,0.3-0.3c1.8-2,1.7-5.1,3-7.5c0.6-1.2,1.6-2.2,2.2-3.4c1.2-2.6,1.6-5.5,0.9-8.3c-0.5-2.8-1.6-5.5-2.4-8.2
	c-2.2-7.5-2.3-15.5-0.5-23.1c0.8-3.2,2-6.4,2.2-9.7c0.1-2.2-0.1-4.5-0.6-6.6c-1.5-8.4-4.5-17-10.7-22.6c-3.3-3-7.6-5.6-8-10.2
	c-0.5-0.2-1.1-0.2-1.7-0.1c-0.3-1-0.5-2.1-0.6-3.2l0,0c0.3,0,0.6,0,0.9,0c0.3,0,0.5-0.1,0.7-0.2c0.1-0.1,0.2-0.2,0.4-0.3
	c0.4-0.4,0.7-0.8,1-1.3c0.4-0.7,0.8-1.4,1.1-1.9s0.8-1.3,1.2-2c1.2-2,2.3-4,3.3-6.1v-0.1c0.1-0.2,0.2-0.4,0.3-0.6l0.1-0.3l0.2-0.4
	c0-0.1,0.1-0.2,0.1-0.3s0.1-0.3,0.2-0.4l0.1-0.3c0-0.1,0.1-0.2,0.1-0.4c0-0.1,0.1-0.2,0.1-0.3c0-0.1,0.1-0.2,0.1-0.4
	c0-0.2,0.1-0.2,0.1-0.4s0.1-0.2,0.1-0.4l0.1-0.4c0-0.1,0.1-0.2,0.1-0.4l0.1-0.4l0.1-0.4l0.1-0.4c0-0.1,0-0.2,0.1-0.3
	c0.1-0.1,0-0.3,0.1-0.4s0-0.2,0-0.3l0.1-0.4V441c0-0.1,0-0.3,0-0.4s0-0.2,0-0.3c0-0.1,0-0.3,0-0.4v-0.2c0-0.1,0-0.3,0-0.4
	s0-0.2,0-0.3s0-0.3,0-0.4s0-0.2,0-0.3c0-0.4-0.1-0.8-0.2-1.2c-0.7-2.3-2-4.4-3.8-5.9s-3.8-2.7-5.9-3.6c-0.5-0.2-1-0.5-1.4-0.9
	c-0.5-0.7-0.9-1.5-1.2-2.2c-0.9-1.5-2.6-2.2-4.2-2.6c-1.7-0.4-3.4-0.7-4.7-1.7c-0.1-0.1-0.3-0.2-0.4-0.2c-0.2,0-0.4,0-0.6,0.1
	l-3.8,1.7c-0.2-1-1.1-1.7-2.1-1.5l0,0c-0.9,0.2-1.8,0.7-2.5,1.4c-0.2-0.2-0.3-0.6-0.2-0.9l-3,2c-0.4,0.2-1,0.3-1-0.2
	c-1.7,1.8-3.1,3.8-4.2,6c-0.4,0.7-0.7,1.4-0.9,2.1l0,0c0,0.1-0.1,0.3-0.1,0.5v0.1c0,0.1-0.1,0.3-0.1,0.4v0.1c0,0.2,0,0.4,0,0.5l0,0
	c0,0.2,0,0.4,0,0.6c0.1,1.1,0.7,2.1,1.7,2.7c0.4,0.1,0.8,0.2,1.2,0.2c0.9-0.1,1.7-0.3,2.5-0.5c0.3-0.1,0.5-0.1,0.8-0.1
	c0.1,0,0.3,0,0.4,0c0.5,0,1,0.2,1.4,0.5l0.1,0.1c-4.3,3.2-6.9,8.3-6.9,13.8c0,2.6,0.6,5.3,1.8,7.6c-0.8,0.5-1.3,1.3-1.3,2.3
	c-0.3-0.8-0.4-1.6-0.4-2.4c-1.6-0.3-2.8,1.6-3.4,3.2c-1.2,3.7-2.2,7.5-2.8,11.4c-0.5,2.6-1,5.1-1.5,7.7s-1,5.3-1.4,8
	c-0.9,6.9-0.6,14,0.9,20.9c-0.1,0.2-0.2,0.5-0.3,0.7c-0.3,0.8-1.2,1.5-1.3,2.3c-0.5,5.1,2.7,9.7,5.6,13.7c0.2,0.4,0.6,0.8,1,1
	s0.9,0.2,1.4,0.2c1.2-0.1,2.4-0.2,3.6-0.4c0.1,0.7,0.2,1.3,0.2,2c0.9,7.2,2.3,14.4,2.3,21.7s-1.4,14.7,1.4,21.1
	c0.5,1.1,1.3,2,1.4,3.1h0.2c-1.7,3.5-3.1,7-4,10.7c-1.1,4.3-1.3,8.9-2.6,13.2c-1,3.7-2.8,7-4.1,10.6c-2.3,5.8-3.6,11.9-3.9,18.2
	c0,2.9-0.6,5.7-1.7,8.3c-1.6,3.2-3,6.4-4.1,9.8c-2,5.9-5.3,11.6-5.9,18c-0.3,3.6,0.2,7.4-1.3,10.6c-0.6,1.3-1.4,2.3-2.1,3.5
	c-1,1.9-1.8,3.9-2.3,6l-9.8,32.9c-0.4,1.8-1.2,3.5-2.4,4.9c-0.9,0.9-2.1,1.4-3,2.3c-1.4,1.4-1.8,3.5-1.8,5.6c-1.1,0.2-2.1,0.5-3.1,1
	c-8.4,3.6-17.8,3.6-26.2,0c-1.6-0.7-3.4-1.5-4.9-0.7C697.1,729.2,696.8,732,697.8,733.9z M775.7,484.3c0.6-2.7,1.7-5.3,3.3-7.6
	c2.2-3.7,4.5-7.3,6.6-11.1l0.6-0.6c0.2,0.5,0.3,1,0.5,1.5c0.4,1.3,0.7,2.6,0.9,3.9c0.3,1.6,0.4,3.3,0.3,5l-0.1,0.1
	c-0.8,0.5-1.5,1.2-1.9,2.1c-0.3,0.9-0.3,1.8,0,2.6l-0.1,0.1l0.1-0.1c0.3,1.4,1,2.8,0.8,4.2c-0.2,1.7-1.6,2.9-2.4,4.4
	c-2,3.5-1.4,8.8-4.6,10.9l-0.1,0.1l0,0c-1.4-0.3-2.6-1.3-3.2-2.7l0,0C776.5,493,775,488.6,775.7,484.3z"/>
<path d="M857.8,752.5c0.1,0.9-0.1,1.7-0.6,2.5c-0.5,0.5-1.2,0.9-1.9,1c-14.4,4-29.2,6.5-44.1,7.7c-2.1,0.2-4.4,0.3-6.3-0.7
	s-3.2-3.5-2-5.3c0.9-1.5,3-1.9,4.7-2.2c9.4-1.8,17.7-7.2,23.2-15c0.7-1.1,1.5-2.1,2.5-2.9c1.9-1.3,4.5-1,6.7-0.5
	c4,0.8,9.3,1.8,12.9,3.8C853.8,741.4,857.7,750.2,857.8,752.5z"/>
<path class="st14" d="M853.8,751.8c0.1,0.9-0.1,1.7-0.6,2.5c-0.5,0.5-1.2,0.9-1.9,1c-14.4,4-29.2,6.5-44.1,7.7
	c-2.1,0.2-4.4,0.3-6.3-0.7s-3.2-3.5-2-5.3c0.9-1.5,3-1.9,4.7-2.2c9.4-1.8,17.7-7.2,23.2-15c0.7-1.1,1.5-2.1,2.5-2.9
	c1.9-1.3,4.5-1,6.7-0.5c4,0.8,9.3,1.8,12.9,3.8S853.7,748,853.8,751.8z"/>
<path d="M741.5,751.5c-0.4,0.8-1.1,1.4-1.9,1.7c-0.7,0.1-1.5,0-2.1-0.3c-14.3-4.6-28.1-10.4-41.2-17.6c-1.9-1-3.8-2.2-4.9-4
	s-0.7-4.7,1.2-5.6c1.6-0.8,3.5,0,5.2,0.7c8.9,3.6,18.7,3.6,27.6,0c1.2-0.6,2.4-0.9,3.7-1.1c2.3,0,4.3,1.6,6,3.2
	c2.9,2.9,6.8,6.6,8.8,10.2S743.6,748.3,741.5,751.5z"/>
<path class="st14" d="M741.5,751.5c-0.4,0.8-1.1,1.4-1.9,1.7c-0.7,0.1-1.5,0-2.1-0.3c-14.3-4.6-28.1-10.4-41.2-17.6
	c-1.9-1-3.8-2.2-4.9-4s-0.7-4.7,1.2-5.6c1.6-0.8,3.5,0,5.2,0.7c8.9,3.6,18.7,3.6,27.6,0c1.2-0.6,2.4-0.9,3.7-1.1
	c2.3,0,4.3,1.6,6,3.2c2.9,2.9,6.8,6.6,8.8,10.2S743.6,748.3,741.5,751.5z"/>
<path class="st3" d="M727.9,712"/>
<path class="st11" d="M784.2,482.2c7-4.2,14-8.5,20.9-12.9c-1.6-2.2-2.6-4.9-2.6-7.7c0-0.1,0-0.2,0-0.3c-0.1-2.7,0.9-5-2.5-4.7
	c-3.3,0.4-6.5,1.1-9.6,2c-0.9,0.2-8.7,3.1-9,2.8c1.7,2.1,3,4.5,3.8,7.1c0.4,1.3,0.7,2.5,0.9,3.8
	C786.8,475.8,786.8,479.8,784.2,482.2z"/>
<path class="st9" d="M774.8,528.3c0.9,7.1,2.4,14.2,2.4,21.3s-1.4,14.4,1.5,20.8c0.5,1.1,1.4,1.9,1.5,3.1c4,0.7,7.9-1.2,11.7-2.5
	c3.5-1.2,7.1-2,10.8-2.4c3-0.3,6.1-0.3,9.1-0.9c3-0.5,5.7-1.9,7.8-4c1.8-2,1.8-5,3.1-7.3c0.7-1.2,1.6-2.2,2.3-3.4
	c1.3-2.5,1.6-5.5,0.9-8.2c-0.7-2.7-1.5-5.4-2.5-8.1c-2.3-7.4-2.4-15.2-0.5-22.7c0.8-3.2,2.1-6.3,2.3-9.6c0.1-2.2-0.2-4.4-0.6-6.5
	c-1.6-8.3-4.8-16.7-11.2-22.2c-3.4-2.9-8.1-5.6-8.4-10c-1.5-0.6-3.1,0.4-4.3,1.3l-14.3,10.5c-0.8,0.5-1.5,1.2-2,2.1
	c-0.9,2.1,1.2,4.5,0.8,6.8c-0.2,1.7-1.7,2.9-2.5,4.3c-2.1,3.4-1.4,8.7-4.8,10.8c-0.3,0.6-0.6,1.3-0.9,2c-1.2,3.5-2,7.1-2.5,10.8
	C773.9,518.9,774,523.6,774.8,528.3z"/>
<path class="st15" d="M781.4,461.5c1.7,2.1,3,4.5,3.8,7.1c1.1,0.3,2.3,0.4,3.5,0.4c5.8,0,9.7-6.7,12.6-11.3c-0.1-2.7,2.1-1.3-1.3-1
	c-3.3,0.4-6.5,1.1-9.6,2C789.5,458.9,781.7,461.8,781.4,461.5z"/>
<path class="st11" d="M782.5,430.6c5.7,7.8,22.5,9.4,22.5,19.1s-8,15.3-17.2,17.7c-8.9,2.3-6.8,7-15-9.6
	C769.4,450.5,772.5,416.7,782.5,430.6z"/>
<path class="st3" d="M779.9,466.9l-3.8-4.1c-1.2-1.4-1.1-3.5,0.2-4.7l12.7-11.6c1.4-1.2,3.5-1.1,4.7,0.2l3.8,4.1
	c1.2,1.4,1.1,3.5-0.2,4.7l-12.7,11.6C783.3,468.4,781.2,468.3,779.9,466.9z"/>
<path class="st15" d="M779.9,466.9l-3.8-4.1c-1.2-1.4-1.1-3.5,0.2-4.7l12.7-11.6c1.4-1.2,3.5-1.1,4.7,0.2l3.8,4.1
	c1.2,1.4,1.1,3.5-0.2,4.7l-12.7,11.6C783.3,468.4,781.2,468.3,779.9,466.9z"/>
<circle class="st8" cx="789.7" cy="454.2" r="1.4"/>
<path class="st16" d="M774.8,528.3c12.6-1.9,24.1-9.4,32.8-18.8c1.6-1.5,2.9-3.4,3.7-5.5c0.4-1.8,0.6-3.6,0.5-5.4l-0.2-7.2
	c-0.1-3.2-0.2-6.4-1.8-9.2s-4.9-4.8-7.9-3.6c-7.7,3-12.8,9.9-17.2,16.9c-1.3,2.2-2.6,4.3-4.1,6.3c-0.8,1-1.8,1.9-3,1.8
	c-0.3,0-0.5-0.1-0.8-0.2c-1.2,3.5-2,7.1-2.5,10.8C773.9,518.8,774,523.6,774.8,528.3z"/>
<path class="st11" d="M773.7,484.1c0.7-2.9,2-5.8,3.7-8.1c5.4-8.4,11.4-16.4,14.2-25.8c-4.2,0.8-4.8,7.9-9.1,8.1l0.3-5.1
	c0-0.9,0-2-0.8-2.4s-2,0.1-2.4,1s-0.5,2-1,2.8c-0.4,0.9-1.4,1.6-2.4,1.3l-0.3-1.7c-1.4-0.3-2.8,0.7-3.1,2.1c0,0.2-0.1,0.4,0,0.7
	c-0.3-0.9-0.4-1.6-0.4-2.5c-1.9-0.3-3.3,1.7-3.9,3.5c-1.4,4-2.4,8-3.2,12.3l-1.7,8.2c-0.5,2.8-1.2,5.8-1.6,8.6
	c-1,7.6-0.7,15.4,1.2,22.9c2.3-1.3,4.5-2.6,6.7-4.1c1.6-1.4,3.5-2.9,4.2-5.1C775.5,495,772.8,489.5,773.7,484.1z"/>
<path class="st3" d="M801.9,476.4c2.9-1.2,6.3,0.8,7.9,3.6s1.7,6,1.8,9.2l0.2,7.2c0.2,1.8,0,3.6-0.4,5.4c-0.8,2.1-2.1,4-3.7,5.5
	c-9.7,10.4-22.7,18.5-36.9,19.2c-0.5,0.1-1,0-1.5-0.2c-0.4-0.3-0.7-0.6-1-1c-3.2-3.9-6.5-8.5-6-13.5c0.1-0.8,1-1.5,1.3-2.3
	c1.9-4.5,5.4-8.2,9.8-10.4l0.9-0.4c0.7,1.3,1.9,2.3,3.4,2.6c1.2,0.1,2.2-0.8,3-1.8c1.5-2,2.9-4.2,4.1-6.4
	C789.2,486.3,794.2,479.5,801.9,476.4z"/>
<path class="st9" d="M802.1,457.3c-1.4-0.7-1.6-2.6-1.8-4.1c-0.2-1.8-0.4-3.6-0.8-5.4c-0.4-2-1.1-4.1-2.8-5.1
	c-1.9-1.2-4.5-0.6-5.7,1.3c-0.3,0.5-0.5,1.1-0.6,1.7c0,0.3-0.1,0.7-0.3,0.9c-0.1,0.1-0.3,0.2-0.5,0.3c-1.6,0.4-3.3-0.6-3.8-2.1
	c-0.3-1-0.1-2.3-0.8-3.1s-1.5-0.8-2.2-1.3c-0.8-0.8-1.3-2-1.1-3.2c0-1.5,0.2-3.3-1-4.2c-1.8-1.4-4.5,0.8-6.7,0
	c-1.2-0.6-1.9-1.9-1.8-3.2c0.1-1.3,0.6-2.6,1.3-3.7c1.3-2.1,2.8-4.1,4.5-5.9c0,0.4,0.7,0.4,1.1,0.1l3.2-1.9c-0.1,0.3,0,0.7,0.3,0.9
	c0.7-0.7,1.6-1.2,2.6-1.4c1-0.2,2,0.5,2.2,1.5l4-1.7c0.3-0.2,0.8-0.2,1.1,0.1c1.4,1,3.3,1.3,5,1.7s3.5,1.1,4.5,2.6
	c0.3,0.8,0.7,1.5,1.3,2.2c0.4,0.4,1,0.7,1.5,0.9c2.3,0.9,4.4,2.1,6.3,3.5c1.9,1.5,3.4,3.5,4.1,5.9c1.1,3.9-0.5,8-2.3,11.6
	c-1.4,2.7-2.9,5.4-4.6,8c-0.6,1-1.5,2.9-2.5,3.5C804.3,457.9,803.1,457.8,802.1,457.3z"/>
<path class="st15" d="M774,428.6c2.1,0.8,4.8-1.4,6.7,0c1.2,0.9,1,2.7,1,4.2c-0.1,1.2,0.3,2.4,1.1,3.2c0.7,0.5,1.7,0.7,2.2,1.3
	s0.5,2.1,0.8,3.1c0.5,1.6,2.2,2.5,3.8,2.1c0.2,0,0.3-0.1,0.5-0.3c0.2-0.3,0.3-0.6,0.3-0.9c0.2-2.3,2.3-3.9,4.6-3.7
	c0.6,0.1,1.2,0.3,1.7,0.6c1.7,1.1,2.4,3.2,2.8,5.1c0.4,1.8,0.7,3.6,0.8,5.4c0.1,1.6,0.4,3.4,1.8,4.1c1.1,0.5,2.3,0.6,3.4,0.3
	c1-0.6,1.9-2.5,2.5-3.5c1.7-2.6,3.3-5.2,4.6-8c1.1-2.1,2-4.4,2.5-6.8c0.7,3.7-0.8,7.5-2.5,10.9c-1.4,2.7-2.9,5.4-4.6,8
	c-0.6,1-1.5,2.9-2.5,3.5c-1.1,0.3-2.4,0.2-3.4-0.3c-1.4-0.7-1.6-2.6-1.8-4.1c-0.2-1.8-0.4-3.6-0.8-5.4c-0.4-2-1.1-4.1-2.8-5.1
	c-1.9-1.2-4.5-0.6-5.7,1.3c-0.3,0.5-0.5,1.1-0.6,1.7c0,0.3-0.1,0.7-0.3,0.9c-0.1,0.1-0.3,0.2-0.5,0.3c-1.6,0.4-3.3-0.6-3.8-2.1
	c-0.3-1-0.1-2.3-0.8-3.1s-1.5-0.8-2.2-1.3c-0.8-0.8-1.3-2-1.1-3.2c0-1.5,0.2-3.3-1-4.2c-1.8-1.4-4.5,0.8-6.7,0
	c-1.2-0.6-1.9-1.9-1.8-3.2c0-0.7,0.2-1.4,0.5-2.1C772.9,428,773.4,428.4,774,428.6z"/>
<g class="st17">
	<path class="st3" d="M1008.9,708.5c-2.1-3.8,0.1-17.3,0.1-21.6c-0.1-4.3,1.1-8.6,3.1-12.3c-2.1-3.8-3.2-8.1-3.2-12.4
		c0-2.9,0.5-5.9,1.5-8.7c0.4-1.3,1-2.5,1.7-3.7c2.9-4.8,7.4-7.9,12.3-7.9s9.4,3.1,12.2,7.9c0.7,1.2,1.3,2.5,1.8,3.8
		c1,2.8,1.5,5.7,1.5,8.6c0.1,4.3,7.5,21.9,5.4,25.6"/>
	<ellipse class="st3" cx="1047.8" cy="594" rx="15.5" ry="20.3"/>
	<ellipse class="st3" cx="1047.8" cy="569.2" rx="15.5" ry="20.3"/>
	<path class="st18" d="M966.2,441.7c-2.1-2.7-4.1-5.5-5.8-8.5l40.7-6.7l-44,0.3c-8.5-18.5-9-39.8-1.4-58.7l59,30.6l-54.4-40
		c1.7-3,3.7-5.9,5.9-8.7c25.3-32.2,71.9-37.7,104.1-12.4c32.2,25.3,37.7,71.9,12.4,104.1c3.3,4.2,6.1,8.7,8.5,13.5l-52.9,27.4
		l56.3-18.9c8.1,23.7,3.6,49.9-11.9,69.6c6.2,7.9,10.7,16.9,13.3,26.5c-9.9,28.6-21.5,56.6-34.9,83.9c-7.1,4.1-14.9,6.9-23,8.4
		c-1.9,0.3-3.7,0.6-5.6,0.8c-5.7,0.6-11.4,0.6-17-0.1c-1.8-0.3-3.6-0.5-5.4-0.9c-11.6-2.3-22.4-7.2-31.6-14.5
		c-32.1-25.3-37.7-71.9-12.4-104.1c-10.3-13-15.9-29.2-15.9-45.8S955.8,454.7,966.2,441.7z"/>
	<path class="st19" d="M989.8,491.4c-9.9-12.6,132.4-54.1,132.4-45.8c0.1,16.6-5.5,32.8-15.9,45.9c6.2,7.9,10.7,16.9,13.3,26.5
		c-9.9,28.6-21.6,56.6-34.9,83.8c-7.1,4.1-14.9,6.9-23,8.4c-1.9,0.3-3.7,0.6-5.6,0.8c-5.7,0.6-11.4,0.6-17-0.1
		c-1.8-0.3-3.6-0.5-5.4-0.9c-34.7-6.8-59.8-37.3-59.8-72.7C973.9,520.6,979.5,504.5,989.8,491.4z"/>
</g>
<path class="st1" d="M751,109.4l21.9,13.7l-13.3-23.8c3.8-3,8.4-4.6,13.3-4.8h0.4c1.6,0,3,0,4.6-0.4l7.4,4.6l-3.2-5.8
	c5.2-1.8,9.8-5.2,13.1-9.7l13.3,8.3L800,76.4c7.8-9.1,18.1-14.9,29.7-14.9c13.9,0,26.1,8.1,33.9,20.7c4.8,7.7,13.3,12.1,22.5,11.9
	h0.8c15.3,0,27.5,17.1,27.5,38.1s-12.2,38.1-27.5,38.1c-3.4,0-6.6-0.8-9.6-2.4c-10.4-5-22.7-5.2-33.3-0.6c-4.4,2-9.2,3-14.3,3
	c-4.8,0-9.6-1-14.1-3c-10.6-4.6-22.7-4.4-32.9,0.6c-3,1.6-6.2,2.4-9.4,2.4c-15.3,0-27.5-17.1-27.5-38.1
	C745.4,124.7,747.2,116.6,751,109.4z"/>
<path class="st1" d="M752.4,112.4l22.2,13.2l-13.4-22.9c3.9-2.9,8.5-4.4,13.4-4.6h0.4c1.6,0,3.1,0,4.7-0.4l7.5,4.4l-3.3-5.5
	c5.3-1.7,10-5,13.2-9.3l13.4,8L802,80.7c7.9-8.8,18.3-14.3,30.1-14.3c14,0,26.4,7.8,34.4,19.8c4.9,7.4,13.4,11.6,22.8,11.4h0.8
	c15.5,0,27.9,16.4,27.9,36.6s-12.4,36.6-27.9,36.6c-3.5,0-6.7-0.8-9.8-2.3c-10.6-4.8-23-5-33.8-0.6c-4.5,1.9-9.4,2.9-14.4,2.9
	c-4.9,0-9.8-1-14.2-2.9c-10.8-4.4-23-4.2-33.4,0.6c-3.1,1.5-6.3,2.3-9.6,2.3c-15.5,0-27.9-16.4-27.9-36.6
	C746.7,127.1,748.5,119.2,752.4,112.4z"/>
<path class="st20" d="M215.9,542.4l-62.5-127.1c-0.5-1.1-1.7-1.5-2.7-0.8c-0.3,0.2-0.5,0.5-0.7,0.8L87.4,542.4
	c-0.5,1.1-0.2,2.5,0.7,3.2c0.3,0.2,0.7,0.4,1,0.4h18.6c1.1,0,2,1.1,2,2.3v27.1c0,1.3,0.9,2.3,2,2.3H136c1.1,0,2-1.1,2-2.3v-13.1
	c0-1.3,0.9-2.3,2-2.3h23.2c1.1,0,2,1.1,2,2.3v13.1c0,1.3,0.9,2.3,2,2.3h24.4c1.1,0,2-1.1,2-2.3v-27.2c0-1.3,0.9-2.3,2-2.3H214
	c1.1,0,2-1.1,2-2.3C216.2,543.2,216.1,542.7,215.9,542.4z M128.7,556.5c-0.4,0.4-0.9,0.7-1.4,0.7h-8.8c-1.1,0-2-1.1-2-2.3
	c0-1.3,0.9-2.3,2-2.3h8.8c1.1,0,2,1.1,2,2.3C129.3,555.5,129.1,556,128.7,556.5L128.7,556.5z M186.2,556.5c-0.4,0.4-0.9,0.7-1.4,0.7
	H176c-1.1,0-2-1.1-2-2.3c0-1.3,0.9-2.3,2-2.3h8.7c1.1,0,2,1.1,2,2.3C186.8,555.5,186.5,556,186.2,556.5L186.2,556.5z"/>
<g class="st17">
	<path class="st3" d="M77.6,583.6c-1-2.3-1.6-4.9-1.6-7.5c0-1.8,0.2-3.5,0.7-5.2c0.2-0.8,0.5-1.6,0.9-2.3c1.4-2.9,3.6-4.8,6.1-4.8
		s4.7,1.9,6.1,4.8c0.3,0.7,0.6,1.5,0.8,2.3c0.5,1.7,0.7,3.5,0.7,5.3c0,2.6-0.5,5.2-1.6,7.6c1,2.3,1.6,4.9,1.5,7.5
		c0,2.6,0.1,4.6-1,6.9"/>
	<ellipse class="st3" cx="83.8" cy="560.1" rx="7.7" ry="12.4"/>
	<ellipse class="st3" cx="83.8" cy="544.9" rx="7.7" ry="12.4"/>
	<path class="st18" d="M120.7,469.6c0,10.1-2.8,20-7.9,27.9c12.6,19.6,9.8,48-6.2,63.5c-4.6,4.5-10,7.4-15.7,8.8
		c-0.9,0.2-1.8,0.4-2.7,0.5c-2.8,0.4-5.6,0.4-8.5,0.1c-0.9-0.1-1.8-0.3-2.8-0.5c-4-0.9-7.9-2.6-11.5-5.1
		C58.7,548.2,53,531.1,48,513.7c1.3-5.9,3.5-11.3,6.6-16.2c-7.7-12-10-28-5.9-42.4l28,11.5l-26.3-16.7c1.2-2.9,2.6-5.7,4.2-8.2
		c-12.6-19.6-9.9-48,6.2-63.5s39.2-12.1,51.8,7.6c1.1,1.7,2.1,3.5,2.9,5.3l-27.1,24.4l29.4-18.7c3.8,11.5,3.5,24.5-0.7,35.8
		l-21.9-0.2l20.3,4.1c-0.8,1.8-1.8,3.5-2.9,5.2C117.9,449.6,120.7,459.5,120.7,469.6z"/>
	<path class="st19" d="M120.7,525.5c0,21.6-12.5,40.2-29.8,44.3c-0.9,0.2-1.8,0.4-2.7,0.5c-2.8,0.4-5.6,0.4-8.5,0.1
		c-0.9-0.1-1.8-0.3-2.8-0.5c-4-0.9-7.9-2.6-11.5-5.1c-6.6-16.6-12.5-33.6-17.4-51.1c1.3-5.9,3.5-11.3,6.6-16.2c-5.2-8-8-17.9-7.9-28
		c0-5.1,70.9,20.2,65.9,27.9C117.9,505.5,120.7,515.3,120.7,525.5z"/>
</g>
<path class="st1" d="M81.3,208.2l15.7,8.4L87.5,202c2.7-1.8,6.1-2.8,9.5-2.9h0.3c1.2,0,2.2,0,3.3-0.2l5.3,2.8l-2.3-3.5
	c3.7-1.1,7.1-3.2,9.4-6l9.5,5.1l-6.1-9.3c5.6-5.6,13-9.1,21.3-9.1c10,0,18.7,5,24.4,12.7c3.5,4.8,9.5,7.4,16.2,7.3h0.6
	c11,0,19.8,10.5,19.8,23.4s-8.8,23.4-19.8,23.4c-2.5,0-4.8-0.5-6.9-1.5c-7.5-3-16.3-3.2-23.9-0.4c-3.2,1.2-6.6,1.8-10.2,1.8
	c-3.5,0-6.9-0.6-10.1-1.8c-7.6-2.8-16.3-2.7-23.7,0.4c-2.2,1-4.5,1.5-6.8,1.5c-11,0-19.8-10.5-19.8-23.4
	C77.3,217.6,78.6,212.6,81.3,208.2z"/>
</svg>
