<?xml version="1.0" encoding="utf-8"?>
<!-- Generator: Adobe Illustrator 24.1.0, SVG Export Plug-In . SVG Version: 6.00 Build 0)  -->
<svg version="1.1" id="Layer_1" xmlns="http://www.w3.org/2000/svg" xmlns:xlink="http://www.w3.org/1999/xlink" x="0px" y="0px"
	 viewBox="0 0 1121 851.8" style="enable-background:new 0 0 1121 851.8;" xml:space="preserve">
<style type="text/css">
	.st0{display:none;}
	.st1{display:inline;opacity:0.9;}
	.st2{opacity:0.1;fill:#1BB1DC;enable-background:new    ;}
	.st3{fill:#3F3D56;}
	.st4{opacity:0.1;enable-background:new    ;}
	.st5{fill:#FBBEBE;}
	.st6{fill:#65617D;}
	.st7{fill:#1BB1DC;}
	.st8{fill:#B2B1BB;}
	.st9{opacity:0.2;enable-background:new    ;}
	.st10{opacity:0.1;fill:#CCCCCC;enable-background:new    ;}
	.st11{fill:#464353;}
	.st12{fill:#333F4F;}
	.st13{fill:#2D394A;stroke:#40868E;stroke-miterlimit:10;}
	.st14{opacity:0.2;}
	.st15{opacity:0.1;}
	.st16{fill:url(#SVGID_1_);}
	.st17{fill:#A1616A;}
	.st18{fill:#FF748E;}
	.st19{fill:#5E5A6B;}
	.st20{fill:#9F9EFF;}
	.st21{display:inline;fill:url(#SVGID_2_);}
	.st22{display:inline;fill:#514E7F;}
	.st23{display:inline;opacity:0.2;enable-background:new    ;}
	.st24{display:inline;opacity:0.1;enable-background:new    ;}
	.st25{display:inline;fill:#1BB1DC;}
	.st26{display:inline;opacity:0.15;enable-background:new    ;}
	.st27{display:inline;fill:#945B79;}
	.st28{display:inline;fill:#FFC1C7;}
	.st29{display:inline;fill:#FF6584;}
	.st30{display:inline;opacity:0.1;}
	
		.st31{display:inline;opacity:0.3;fill:none;stroke:#000000;stroke-width:0.75;stroke-miterlimit:10;stroke-dasharray:12;enable-background:new    ;}
	.st32{display:inline;opacity:0.5;fill:#1BB1DC;enable-background:new    ;}
	.st33{display:inline;}
	.st34{fill:#413E66;stroke:url(#SVGID_3_);stroke-miterlimit:10;}
	.st35{fill:#413E66;stroke:url(#SVGID_4_);stroke-miterlimit:10;}
	.st36{fill:#413E66;stroke:url(#SVGID_5_);stroke-miterlimit:9.9999;}
	.st37{fill:#413E66;stroke:url(#SVGID_6_);stroke-miterlimit:9.9999;}
	.st38{fill:#413E66;stroke:url(#SVGID_7_);stroke-miterlimit:10;}
	.st39{fill:#413E66;stroke:url(#SVGID_8_);stroke-miterlimit:10;}
	.st40{fill:#413E66;stroke:url(#SVGID_9_);stroke-miterlimit:10;}
	.st41{fill:#413E66;stroke:url(#SVGID_10_);stroke-miterlimit:10;}
	.st42{fill:#413E66;stroke:url(#SVGID_11_);stroke-miterlimit:9.9999;}
	.st43{fill:#413E66;stroke:url(#SVGID_12_);stroke-miterlimit:9.9999;}
	.st44{fill:#413E66;stroke:url(#SVGID_13_);stroke-miterlimit:10;}
	.st45{fill:#413E66;stroke:url(#SVGID_14_);stroke-miterlimit:10;}
	.st46{fill:none;stroke:url(#SVGID_15_);stroke-width:4;stroke-miterlimit:9.9999;}
	.st47{fill:none;stroke:url(#SVGID_16_);stroke-width:4;stroke-miterlimit:10;}
	.st48{fill:none;stroke:url(#SVGID_17_);stroke-width:4;stroke-miterlimit:10;}
	.st49{fill:none;stroke:url(#SVGID_18_);stroke-width:4;stroke-miterlimit:10;}
	.st50{fill:none;stroke:url(#SVGID_19_);stroke-width:4;stroke-miterlimit:10;}
	.st51{fill:none;stroke:url(#SVGID_20_);stroke-width:4;stroke-miterlimit:10;}
	.st52{fill:none;stroke:url(#SVGID_21_);stroke-width:4;stroke-miterlimit:10;}
	.st53{fill:url(#SVGID_22_);stroke:url(#SVGID_23_);stroke-miterlimit:10;}
	.st54{fill:url(#SVGID_24_);stroke:url(#SVGID_25_);stroke-miterlimit:10;}
	.st55{fill:url(#SVGID_26_);stroke:#FFFFFF;stroke-miterlimit:10;}
	.st56{fill:#FFFFFF;stroke:#413E66;stroke-miterlimit:10;}
	.st57{fill:#413E66;stroke:#FFFFFF;stroke-miterlimit:10;}
	.st58{fill:url(#SVGID_27_);stroke:#FFFFFF;stroke-miterlimit:10;}
	.st59{fill:url(#SVGID_28_);stroke:#FFFFFF;stroke-miterlimit:10;}
	.st60{fill:#FB7B65;stroke:#FFFFFF;stroke-miterlimit:10;}
	.st61{fill:url(#SVGID_29_);stroke:#FFFFFF;stroke-miterlimit:10;}
	.st62{fill:url(#SVGID_30_);stroke:#FFFFFF;stroke-miterlimit:10;}
	.st63{fill:url(#SVGID_31_);stroke:#FFFFFF;stroke-miterlimit:10;}
	.st64{fill:url(#SVGID_32_);stroke:#413E66;stroke-miterlimit:10;}
	.st65{fill:url(#SVGID_33_);stroke:url(#SVGID_34_);stroke-miterlimit:10;}
	.st66{fill:url(#SVGID_35_);stroke:url(#SVGID_36_);stroke-miterlimit:10;}
</style>
<g id="_x38_13c2686-e70f-4fb0-bf6b-a2eb7b1db384" class="st0">
	<g class="st1">
		<path class="st2" d="M1119.8,402.7v0.1c0,0,0,0,0,0.1c0,0.3-0.1,0.6-0.1,0.9c-0.4,2.4-0.8,4.7-1.3,7.1
			c-3.6,16.2-11,32.2-20.9,46.7c-0.4,0.6-0.8,1.1-1.2,1.7c-0.8,1.1-1.5,2.2-2.3,3.2c-0.6,0.7-1.1,1.5-1.7,2.2
			c-3.9,5-8.1,9.8-12.5,14.4c-2.4,2.5-5,4.8-7.5,7.1l-1.1,1c-1.4,1.2-2.8,2.4-4.2,3.5c-0.6,0.5-1.2,1-1.8,1.5l-1.1,0.8l-0.8,0.6
			c-0.7,0.5-1.4,1-2.1,1.5l-0.5,0.3c-1.7,1.2-3.3,2.3-5.1,3.5c-3.6,2.4-7.4,4.5-11.3,6.5c-1.8,0.9-3.6,1.8-5.4,2.6
			c-2.2,1-4.4,1.9-6.7,2.7c-0.6,0.2-1.2,0.4-1.8,0.7c-1.7,0.6-3.4,1.1-5.2,1.6l-0.9,0.3l-0.4,0.1l0,0l-1.1,0.3
			c-5.1,1.4-10.4,2.5-15.6,3.3l-0.9,0.1l-0.4,0.1c-6.7,1-13.4,1.5-20,1.8c-9.1,0.5-18.3,0.5-27.5,0l-2.5-0.2h-0.5
			c-1.7-0.1-3.5-0.3-5.2-0.5c-1-0.1-2-0.2-3-0.3c-1.5-0.2-3-0.4-4.5-0.6h-0.1l-1.5-0.2c-1.3-0.2-2.6-0.4-3.9-0.7l-1.3-0.2l-2-0.4
			l-0.4-0.1c-4.2-0.9-8.3-2-12.3-3.3l-0.9-0.3c-2.9-1-5.8-2.1-8.6-3.3c-2.1-0.9-4.1-1.9-6.2-2.9c-2.9-1.5-5.7-3-8.4-4.7
			c-3.8-2.3-7.5-4.9-11.1-7.6c-4.7-3.5-9.2-7.3-13.6-11.2l-0.9-0.8l-1.7-1.5c-22.6-20.4-41.6-44.6-56.1-71.4c-1.5-2.8-3-5.7-4.4-8.7
			c-0.4-0.9-0.9-1.8-1.3-2.7c0-0.1-0.1-0.1-0.1-0.2l-0.7-1.4c-1.8-3.9-3.5-7.9-5.1-11.9l-0.7-1.8l-1.1-2.9l-0.5-1.2
			c-1.4-3.7-2.7-7.5-3.9-11.4c-0.2-0.7-0.4-1.3-0.6-2c-0.6-2.1-1.2-4.2-1.8-6.3c-0.5-1.9-1-3.9-1.5-5.9c-0.1-0.3-0.2-0.6-0.2-0.9
			c-4-16.9-5.7-35.1-1.7-53.6c0.3-1.3,0.6-2.5,0.9-3.8c0.5-1.9,1-3.7,1.7-5.6c0.1-0.4,0.3-0.9,0.4-1.3l0.2-0.5
			c0-0.1,0.1-0.2,0.1-0.3c0-0.1,0.1-0.1,0.1-0.2c0.3-0.9,0.7-1.8,1.1-2.8s0.8-1.9,1.2-2.8l0,0l0.1-0.1c0-0.1,0.1-0.2,0.2-0.4
			c0.3-0.7,0.7-1.4,1-2.1l0.4-0.7l0.1-0.4c0.2-0.4,0.4-0.8,0.6-1.1c2.7-5.2,6-10.1,9.7-14.7c2.1-2.5,4.3-5,6.6-7.3
			c3.5-3.5,7.4-6.6,11.6-9.3c0.7-0.4,1.3-0.8,1.9-1.2c5.3-3.2,11.2-5.3,17.4-6.3c7.9-1.1,15.4,0.2,22.6,1.9l0.7,0.2
			c1.2,0.3,2.4,0.6,3.7,0.9c4.2,1.1,8.5,2.2,12.8,3.1c4,0.9,8,1.6,12.1,2.2c4.2,0.5,8.4,0.8,12.5,0.7c0.6,0,1.3,0,1.9-0.1
			c7.7-0.4,15.3-2,22.5-4.9c5.5-2.2,10.5-5.5,14.6-9.7c0.8-0.8,1.6-1.7,2.3-2.6l0,0c1.2-1.6,2.3-3.2,3.2-5c0.3-0.5,0.5-1.1,0.8-1.6
			l0,0c0.1-0.2,0.2-0.4,0.3-0.6l0,0l1.5-3l0,0c0.1-0.1,0.1-0.2,0.2-0.3c0.7-1.4,1.5-2.8,2.2-4.2c3-5.7,6.6-11.1,10.8-15.9l0,0
			c4.4-5,9.9-8.9,16.1-11.5c1-0.4,2-0.8,3.1-1.2c4.7-1.6,9.5-2.5,14.5-2.6c0.6,0,1.2,0,1.7,0c4.9,0.1,9.8,1,14.4,2.6l0,0
			c7.1,2.4,13.8,5.9,19.8,10.3c9.2,6.5,17.5,14.2,24.8,22.8c0.6,0.7,1.2,1.4,1.7,2.1c6.2,7.7,11.8,15.9,16.6,24.5
			c14.5,25.6,23.9,55.6,30.8,86.2l0.3,1.5c0.2,0.7,0.3,1.4,0.5,2.1c0.3,1.5,0.6,3,0.9,4.4c0.2,1.1,0.5,2.2,0.7,3.3l0,0
			c0.2,0.8,0.3,1.6,0.5,2.4c0.1,0.5,0.2,1,0.3,1.5c1.6,8.2,2.9,16.4,3.6,24.8c0,0.3,0,0.6,0.1,0.9
			C1121.4,382.3,1121.2,392.6,1119.8,402.7z"/>
		<path class="st3" d="M1046.9,484c-1.1-0.3-3,1-5.4,3.1c-1.2,1-2.5,2.2-3.9,3.6l-0.7,0.7l-0.3,0.3c-1.9,1.8-3.9,3.8-6.1,5.8
			c-1.4,1.3-2.8,2.5-4.2,3.8c-1.9,1.7-3,6.2-3.5,12.4c-5.1,1.4-10.4,2.5-15.6,3.3l-0.9,0.1l-0.4,0.1c-0.3-1.9-0.5-3.1-0.5-3.1
			s-9-7.5-6.4-16.9c1.5-5.4,16.3-15.5,28.6-23.1c1.5-0.9,3-1.8,4.4-2.7l0.9-0.5c0.6-0.3,1.1-0.7,1.7-1l4.1-2.4
			c2.8-1.6,4.9-2.8,5.6-3.2l0.3-0.2C1044.4,464.1,1049.7,484.7,1046.9,484z"/>
		<path class="st4" d="M1046.9,484c-1.1-0.3-3,1-5.4,3.1c-1.2,1-2.5,2.2-3.9,3.6l-0.7,0.7l-0.3,0.3c-1.9,1.8-3.9,3.8-6.1,5.8
			c-1.4,1.3-2.8,2.5-4.2,3.8c-1.9,1.7-3,6.2-3.5,12.4c-5.1,1.4-10.4,2.5-15.6,3.3l-0.9,0.1l-0.4,0.1c-0.3-1.9-0.5-3.1-0.5-3.1
			s-9-7.5-6.4-16.9c1.5-5.4,16.3-15.5,28.6-23.1c1.5-0.9,3-1.8,4.4-2.7l0.9-0.5c0.6-0.3,1.1-0.7,1.7-1l4.1-2.4
			c2.8-1.6,4.9-2.8,5.6-3.2l0.3-0.2C1044.4,464.1,1049.7,484.7,1046.9,484z"/>
		<path class="st3" d="M1044.7,472.7c0,0-1.8,1.9-4.7,4.9c-1.2,1.3-2.6,2.7-4.1,4.3l-0.1,0.1l-0.8,0.8c-1.8,1.9-3.7,3.9-5.7,6
			c-10.2,10.9-21.8,23.8-21.8,25.8c0,0.8-0.2,1.5-0.5,2.2l-0.9,0.1l-0.4,0.1c-6.7,1-13.4,1.5-20,1.8c-9.1,0.5-18.3,0.5-27.5,0
			l-2.5-0.2h-0.5c-1.7-0.1-3.5-0.3-5.2-0.5c-1-0.1-2-0.2-3-0.3c1.2-1.6,2.4-3.4,3.6-5.1c2.5-3.5,4.9-7.2,6.9-10.5
			c0.1-0.2,0.2-0.4,0.3-0.6c1.2-2,2.3-3.9,3.1-5.5c0.8-1.4,1.3-3,1.6-4.6c0.4-2,1-3.9,1.8-5.7c4.4-11.2,15.9-34,22.4-46.6l0.6-1.1
			l0.6-1.1c2.1-4,3.4-6.6,3.4-6.6l15.8-4.3l1-0.3l3.5-0.9l1.3-0.4l7.4-2h0.1l0.3-0.1l7.9-2.1l2.6-0.7l3-0.8l7.6,13l2.2,32.3
			L1044.7,472.7z"/>
		<path class="st4" d="M937.3,516.3c-3.1-4-4.9-6.5-4.9-6.5s4.4-1.1,10.1-2.7c2.9-0.8,6.2-1.8,9.4-2.8c2-0.7,4-1.4,5.9-2.1
			c1-0.4,1.9-0.7,2.8-1.1c4.1-1.7,7.3-3.5,7.9-5.1c0.1-0.6,0.1-1.3-0.2-1.9c-1-2.9-2.2-5.7-3.7-8.3c-0.5-1-1.1-2.1-1.7-3.2
			c-2-3.6-4.4-7.8-7-12.2c-2.2-3.7-4.5-7.5-6.9-11.4c-2.1-3.4-4.2-6.8-6.3-10.1c-0.1-0.1-0.1-0.2-0.2-0.3
			c-9.5-15.1-18.1-28-18.4-28.5l0,0l-5.6,13.5l-0.2,0.2L909,442l-0.2,0.2c-2.9,2.5-6.2,5.5-9.5,8.5c-2.5,2.2-5,4.5-7.3,6.6
			c-3.4,3.1-6.6,6-9.2,8.3c-2.2,1.9-4.3,3.9-6.2,6c-1.7,3.5-3,7.1-4,10.8c4.4,3.9,8.9,7.7,13.6,11.2c3.6,2.7,7.3,5.2,11.1,7.5
			c2.7,1.7,5.5,3.3,8.4,4.7c2,1,4.1,2,6.2,2.9c2.8,1.2,5.7,2.3,8.6,3.3l0.9,0.3c4,1.3,8.1,2.4,12.3,3.3l0.4,0.1l2,0.4L937.3,516.3z"
			/>
		<path class="st3" d="M1014,421.5l-0.9,1.4c-0.4,0.6-0.8,1.3-1.4,2.2s-1.4,2.1-2.2,3.5l-0.6,1c-1.5,2.3-3.2,4.9-5,7.8
			c-0.2,0.4-0.5,0.7-0.7,1.1s-0.5,0.7-0.7,1.1c-12,18.8-29.7,46.7-34.2,54.7c-0.4,0.6-0.7,1.2-1,1.9c-0.6,1.4-3.1,3-6.7,4.6
			c-0.8,0.4-1.6,0.7-2.5,1.1c-1.9,0.8-4.1,1.5-6.2,2.3c-3.2,1.1-6.4,2-9.4,2.9c-6.3,1.8-11.2,3-11.2,3s1.7,2.3,4.7,6.2l-2-0.4
			l-0.4-0.1c-4.2-0.9-8.3-2-12.3-3.3l-0.9-0.3c-2.9-1-5.8-2.1-8.6-3.3c-2.1-0.9-4.1-1.9-6.2-2.9c-2.9-1.5-5.7-3-8.4-4.7
			c-3.8-2.3-7.5-4.9-11.1-7.6c-4.7-3.5-9.2-7.3-13.6-11.2l-0.9-0.8c1-3.4,2.3-6.8,3.8-10c0-0.2,2.9-3,7.2-6.9
			c2.7-2.4,5.8-5.3,9.2-8.3l7.3-6.6l8.7-7.8l0.2-0.2l9-8l0.2-0.2l5.6-13.5h1.1l20.5,0.3h0.1h2h1.1l6.4,0.1l7.6,0.1l8.9,0.1l34.9,0.5
			h1.1l6.6,0.1L1014,421.5z"/>
		<path class="st5" d="M1014.6,282.2l-3.4,30.7c0,0-34.6,13.8-35.5,13.5s-23.1-20.3-19.4-33.5c1.8-6.6,2.7-15.8,3.1-23.3
			s0.3-13.3,0.3-13.3s50.4-18,45.9-5.6c-1.6,4.5-0.9,9.9,0.7,14.9C1008.3,271.5,1011.1,277,1014.6,282.2z"/>
		<path class="st4" d="M1006.3,265.6c-0.3,0.4-0.6,0.7-0.9,1c-12.2,12.9-32.3,14.2-46,2.9c0.4-7.5,0.3-13.3,0.3-13.3
			s50.4-18,45.9-5.6C1004,255.1,1004.7,260.5,1006.3,265.6z"/>
		<path class="st5" d="M1014.6,242.3c0,18.6-15.1,33.8-33.8,33.7c-18.6,0-33.8-15.1-33.7-33.8c0-18.6,15.1-33.7,33.7-33.7
			c18.5-0.1,33.7,14.8,33.8,33.3C1014.6,242,1014.6,242.1,1014.6,242.3z"/>
		<path class="st4" d="M972.9,314c0,0-13.2-29.3-17.7-29.3s-11.5,151.6-11.5,151.6l69,1.1l2.8-79.6l-14.1-70.6
			C1001.4,287.2,988.7,315.1,972.9,314z"/>
		<path class="st4" d="M972.9,316.3c0,0-13.2-29.3-17.7-29.3s-11.5,151.7-11.5,151.7l78.3,1.2l-6.5-79.7l-14.1-70.6
			C1001.4,289.5,988.7,317.4,972.9,316.3z"/>
		<path class="st6" d="M972.9,315.1c0,0-13.2-29.3-17.7-29.3s-11.5,151.6-11.5,151.6l78.3,1.2l-6.5-79.8l-14.1-70.6
			C1001.4,288.3,988.7,316.2,972.9,315.1z"/>
		<path class="st4" d="M960.1,276.6c0,0-2.4-3.5-5.7-2.3s-5.9-2-9.3,1.1s-16.9,7.3-19.4,5.9s-11.5,4.8-13.5,8.5s-8.5,13.5-8.5,13.5
			s-5.6,6.8-4.8,10.4s-2,7.9-5.3,9.6s-10.1,18.6-10.1,18.6s1.8,22.6-5.8,26.5s-2,21.1-2,21.1l35.9-8.5l10.2-23.1
			c0,0-3.9,67.5-8.7,73.7s-5.3,10.1-5.3,10.1s18.6,3.9,22.5,7.3s14.4-0.8,14.4-0.8l10.1-89.8c0,0,3.7-16.9,3.7-25.6
			S960.1,276.6,960.1,276.6z"/>
		<path class="st7" d="M959,276.6c0,0-2.4-3.5-5.8-2.3s-5.9-2-9.3,1.1s-16.9,7.3-19.4,5.9s-11.5,4.8-13.5,8.5s-8.4,13.5-8.4,13.5
			s-5.6,6.8-4.8,10.4s-2,7.9-5.3,9.6s-10.1,18.6-10.1,18.6s1.8,22.6-5.8,26.5c-1.9,1-3,3.2-3.5,5.9c-2.2,11,6.9,21.1,18.1,20.8
			l19.3-8l10.1-29.2c0,0-3.9,67.5-8.7,73.7s-5.3,10.1-5.3,10.1s18.6,3.9,22.5,7.3s14.3-0.8,14.3-0.8l10.1-89.8
			c0,0,3.7-16.9,3.7-25.6S959,276.6,959,276.6z"/>
		<path class="st4" d="M896.9,325.5c0,0,3.4,9.3,12.7,8.5S896.9,325.5,896.9,325.5z"/>
		<path class="st4" d="M906,311.4c0,0,6.2,1.1,8.4,6.5S906,311.4,906,311.4z"/>
		<path class="st4" d="M923.4,301.9c0,1.1,3.9,20.8,0,29s-3.4,17.7-3.4,17.7L923.4,301.9z"/>
		<path class="st4" d="M1006.5,269.8c0,0,2.2-2.6,4.5-2.3s3.7,1.7,6.5,2.8s9.6,1.4,9.6,2.3s5.9,4.2,9.9,5.1s16.3,9.3,19.4,25.6
			s8.4,21.1,8.4,21.1L1035,339c0,0,23.1,98,25.9,105s3.1,48.7,3.1,48.7s-18.3,8.2-23.1,10.7s-2.8-24.2-12.7-39.7s-21.1-38-21.1-38
			l-17.2-48.1c0,0-11-64.2-1.7-76S1007.3,274.1,1006.5,269.8z"/>
		<path class="st7" d="M1065,492.1c0,0.4,0,0.6,0,0.6l-1.1,0.5l-0.8,0.3l-7.6,3.5c-4.2,1.9-8.8,4-11.7,5.5c-0.7,0.3-1.3,0.7-1.8,0.9
			c-0.3,0.2-0.8,0.2-1.1,0c-1.5-1-2.2-6.1-3.2-12.7c-0.4-2.7-0.9-5.7-1.6-8.8c-0.1-0.5-0.2-1-0.3-1.4c-0.7-3.3-1.7-6.5-2.9-9.6
			c-0.9-2.5-2.1-4.9-3.5-7.1c-1.3-2-2.6-4.2-3.9-6.4c-3.5-5.9-7-12.2-9.9-17.6c-0.2-0.4-0.4-0.8-0.6-1.1c-0.7-1.4-1.4-2.7-2.1-3.9
			c-1.3-2.5-2.4-4.6-3.2-6.2l-1.3-2.5c0-0.1-0.1-0.2-0.1-0.3l-1.6-4.3l-3-8.4l-3.5-9.8l-1.7-4.6l-1.2-3.4l-0.4-1.1l-5.9-16.6
			c0,0-0.4-2.4-1-6.4c-1.6-10.4-4.4-31.7-4.4-48.3c0-4.1,0.2-8.1,0.7-12.1c0.1-0.4,0.1-0.9,0.2-1.3s0.2-0.9,0.3-1.4
			c0.4-2.3,1.2-4.6,2.6-6.5c9.3-11.8,19.2-27.5,18.3-31.7l0.2-0.2c0.4-0.4,0.9-0.8,1.4-1.2c0.6-0.4,1.3-0.7,2-0.9c0.3,0,0.6,0,0.9,0
			l0,0c2.3,0.3,3.7,1.7,6.5,2.8s9.6,1.4,9.6,2.3s5.9,4.2,9.8,5.1s16.3,9.3,19.4,25.6c3,15.7,8.1,20.7,8.4,21.1l0,0l-1.1,0.5
			l-16.9,8.3l-3.6,1.8l-8.2,4c0,0,2.1,9.1,5.2,21.9c0,0.2,0.1,0.4,0.1,0.5c0.1,0.4,0.2,0.8,0.3,1.2c2.2,9.4,4.9,20.6,7.6,31.6l0,0
			l0.2,1l0.8,3.2c0.2,1,0.5,2,0.7,3l0.4,1.6c0.7,3.1,1.5,6.1,2.2,9c1.1,4.3,2.1,8.4,3,12.2c2.6,10.4,4.6,18,5.3,19.7
			c1,2.6,1.7,9.8,2.2,18C1064.8,474.5,1064.9,489.1,1065,492.1z"/>
		<path class="st4" d="M1068.6,393.1c-0.8,0.1-1.9,0.3-3.1,0.4c-9,0.8-26.7,1-26.7,1s-13.2-26.2-24.5-25.3c0,0,10.4-11.8,14.6-10.4
			c0.7,0.2,1.1-0.3,1.4-1.3c1.1-5-2.8-22.4-2.8-22.4l-5.3-23.4l31,7.6c2.8,0.6,11.5,5.1,11.5,5.1s0.3,12.1,2.5,14.9
			s4.8,16.3,4.5,19.7s3.1,19.1-0.3,23.4S1075.7,391.9,1068.6,393.1z"/>
		<path class="st7" d="M1069.8,393.1c-0.8,0.1-1.9,0.3-3.1,0.4c-9,0.8-26.7,1-26.7,1s-13.2-26.2-24.5-25.3c0,0,10.4-11.8,14.6-10.4
			c0.7,0.2,1.2-0.3,1.4-1.3c1.1-5-2.8-22.4-2.8-22.4l-5.3-23.4l31,7.6c2.8,0.6,11.5,5.1,11.5,5.1s0.3,12.1,2.5,14.9
			s4.8,16.3,4.5,19.7s3.1,19.1-0.3,23.4S1076.8,391.9,1069.8,393.1z"/>
		<path class="st4" d="M1038,331.7c0,0,25.9,2.8,27,9.3S1038,331.7,1038,331.7z"/>
		<path class="st4" d="M1014.6,242.3c0,8.6-3.3,16.9-9.2,23.2c0,0-0.1-0.1-0.1-0.2c-1-2.1-2-4.4-1.9-6.7c0.1-2.8,1.7-5.4,2.3-8.2
			c0.7-3.5-0.5-7.1-1.6-10.5c-0.8-2.5-2.4-5.5-5.1-5.2c-0.5,0.1-1,0.2-1.6,0.2c-1.4-0.2-1.7-2-1.8-3.4c-0.9-6.8-6-12.2-12.7-13.4
			c-0.7-0.2-1.5-0.1-2.2,0.1c-1,0.4-1.5,1.5-2.4,2.1c-2.9,2-6.5-1.8-10-1.5c-3,0.3-4.8,3.3-6,6s-2.7,5.8-5.6,6.4
			c-0.5,0.1-1,0.1-1.4-0.1c-0.9-0.7-0.3-2,0.2-3.1c1.2-2.7,0.4-4.8-1.1-6.7c11.6-14.6,32.9-17,47.4-5.3
			C1009.9,222.3,1014.5,232,1014.6,242.3L1014.6,242.3z"/>
		<path class="st8" d="M905.6,505.9c-2.9-1.5-5.7-3-8.4-4.7c-3.8-2.3-7.5-4.9-11.1-7.6l-3.5-28l-0.1-0.9l-6.5-53.3l-0.4-3.1
			l10.9-0.3l7.7-0.2l0.5,4.5l4.4,37.5l0.1,0.9L905.6,505.9z"/>
		<path class="st4" d="M897.2,501.2c-3.8-2.3-7.5-4.9-11.1-7.6l-3.5-28l-0.1-0.9l-6.5-53.3l-0.4-3.1l10.9-0.3l-0.5,1.7l0.3,2.2
			l5.5,44.5l0.1,0.9L897.2,501.2z"/>
		<path class="st8" d="M972.1,408.8l-0.6,4.8l-0.9,7.2l-2,15.9l-0.1,1.1l-0.1,1.1l-5.5,43.6l-1.7,13.6l-0.6,4.5l-0.1,0.5l-2.2,17.7
			l-2.5-0.2h-0.5c-1.7-0.1-3.5-0.3-5.2-0.5c-1-0.1-2-0.2-3-0.3c-1.5-0.2-3-0.4-4.5-0.6h-0.1L941,517l1.4-9.9v-0.3l6.4-47.9l2.7-20.3
			l0.2-1.1l0.2-1.1l2.1-15.9l0.9-6.7l0.5-3.9h0.7L972.1,408.8z"/>
		<path class="st9" d="M962.8,411.4l-0.3,2.4l-0.8,6.9l-1.9,15.9l-0.1,1.1l-0.2,1.2l-3.7,31.5l-4,33.6v0.4l-1,8.4l-0.6,5.5
			c-1-0.1-2-0.2-3-0.3c-1.5-0.2-3-0.4-4.5-0.6h-0.1l-1.5-0.2l1.4-9.9V507l6.4-47.9l2.7-20.3l0.2-1.1l0.2-1.1l2.1-15.9l0.9-6.7
			l0.5-3.9h0.7L962.8,411.4z"/>
		<path class="st6" d="M1043.7,502.5l0.4,2.9c-1.8,0.9-3.6,1.8-5.4,2.6c-2.2,1-4.4,1.9-6.7,2.7l-1.7-13.2l-1.1-8.6l-1.9-14.8
			l-1.8-14.3l-0.3-2.4l-4.4-34.8l-0.8-6.1l-0.2-2l-0.2-1.8l-0.5-4.2h0.3h0.1l7.6-0.8l2.4-0.3l0.8,5.1l1.1,7.2l7.1,47.7l1.5,10.1
			l1.4,9.5l2.2,14.9L1043.7,502.5z"/>
		<path class="st10" d="M1043.7,502.5l0.4,2.9c-1.8,0.9-3.6,1.8-5.4,2.6c-2.2,1-4.4,1.9-6.7,2.7l-1.7-13.2l-1.1-8.6l-1.9-14.8
			l-1.8-14.3l-0.3-2.4l-4.4-34.8l-0.8-6.1l-0.2-2l-0.2-1.8l-0.5-4.2h0.3h0.1l7.6-0.8l2.4-0.3l0.8,5.1l1.1,7.2l7.1,47.7l1.5,10.1
			l1.4,9.5l2.2,14.9L1043.7,502.5z"/>
		<path class="st8" d="M1044.2,505.4c-1.8,0.9-3.6,1.8-5.4,2.6l-1.1-9.9l-0.8-6.7l-1.1-9.3l-0.2-1.6l-1.2-10.6l-5.7-49.4l-0.9-7.9
			l-0.3-2.6l-0.5-2.3l2.4-0.3l0.8,5.1l1.1,7.2l7.1,47.7l1.5,10.1l1.4,9.5l2.2,14.9l0.1,0.5L1044.2,505.4z"/>
		<path class="st6" d="M1068.1,408l-0.1,3.8l-1.2,78.9c-0.6,0.5-1.2,1-1.8,1.5c0,0.4,0,0.6,0,0.6l-1.1,0.5l-0.8,0.3
			c-0.7,0.5-1.4,1-2.1,1.5l-0.5,0.3c-1.7,1.2-3.3,2.3-5.1,3.5V497v-0.5l1-68l0.1-4.2l0.2-12.3l0.1-5.5l7.6,1L1068.1,408z"/>
		<path class="st10" d="M1068.1,408l-0.1,3.8l-1.2,78.9c-0.6,0.5-1.2,1-1.8,1.5c0,0.4,0,0.6,0,0.6l-1.1,0.5l-0.8,0.3
			c-0.7,0.5-1.4,1-2.1,1.5l-0.5,0.3c-1.7,1.2-3.3,2.3-5.1,3.5V497v-0.5l1-68l0.1-4.2l0.2-12.3l0.1-5.5l7.6,1L1068.1,408z"/>
		<path class="st8" d="M1068.1,408l-0.1,3.8l-1.2,78.9c-0.6,0.5-1.2,1-1.8,1.5c0,0.4,0,0.6,0,0.6l-1.1,0.5V493l0.2-31l0.3-50.1v-4.4
			L1068.1,408z"/>
		<path class="st6" d="M1119.7,402.9L1119.7,402.9c0,0.4-0.1,0.6-0.1,0.9c-0.4,2.4-0.8,4.7-1.3,7.1l-50.3,0.9l-3.7,0.1l-7.6,0.1
			l-3.2,0.1h-1.1l-22.1,0.4h-2.4l-8,0.1h-0.2l-6.1,0.1l-9.9,0.2h-1.1l0,0l-31,0.6l-9,0.2l-7.6,0.1l-6.6,0.1h-1.1h-2.4h-0.1l-5,0.1
			l-22.8-1h-1.1l-21.2-0.9l-8.4-0.4l-10.3-0.5l-62.2-2.7c-1.5-2.8-3-5.7-4.4-8.7c-0.4-0.9-0.9-1.8-1.3-2.7l63.3-1l0,0l39-0.6l0,0
			l7.4-0.1h1.1l20-0.3l6.8,0.4h0.1l3.4,0.2l1.1,0.1l13.7,0.8l0,0l33.2,1.8l1.2,0.1l15.5,0.9l4.7,0.3h0.1l31,1.7l1.1,0.1h0.3
			L1119.7,402.9z"/>
		<path class="st8" d="M1119.7,402.9L1119.7,402.9c0,0.4-0.1,0.6-0.1,0.9c-0.4,2.4-0.8,4.7-1.3,7.1l-50.3,0.9l-3.6,0.1l-7.6,0.1
			l-3.2,0.1h-1.1l-22.1,0.4h-2.4l-8,0.1h-0.2l-6.1,0.1l-9.9,0.2h-1.1l0,0l-31,0.6l-9,0.2l-7.6,0.1l-6.6,0.1h-1.1H945h-0.1l-5,0.1
			l-22.8-1H916l-21.2-0.9l-8.4-0.4l-10.3-0.4l-62.2-2.7c-1.5-2.8-3-5.7-4.4-8.7c-0.4-0.9-0.9-1.8-1.3-2.7l63.3-1l0,0l39-0.6l0,0
			l7.4-0.1h1.1l20-0.3l6.8,0.4h0.1l3.4,0.2l1.1,0.1l13.7,0.8l0,0l33.2,1.8l1.1,0.1l15.5,0.9l4.7,0.3h0.1l31,1.7l1.1,0.1h0.3
			L1119.7,402.9z"/>
		<path class="st4" d="M1119.7,402.9L1119.7,402.9l-68.4,0.2h-1.1l-31.2,0.1h-5.2h-13.7H999l-49.4,0.1h-4.3l-27.3,0.1h-1l-28.5,0.1
			l-79.2-3.4c-0.4-0.9-0.9-1.8-1.3-2.7l63.3-1l0,0l39-0.6l0,0l7.4-0.1h1.1l20-0.3l6.8,0.4h0.1l3.4,0.2l1.1,0.1l13.7,0.8l0,0
			l33.2,1.8l1.1,0.1l15.5,0.9l4.7,0.3h0.1l31,1.7l1.1,0.1h0.3L1119.7,402.9z"/>
		<path class="st4" d="M1053.4,357c1.7,0.6,11.5,3.1,13.5,9S1053.4,357,1053.4,357z"/>
		<path class="st5" d="M1024.4,366.9c0,0-14.3,4.4-20.8,4.4s-31.8-0.1-31.8-0.1s-66.2-22.1-46.3,8.2s51.2,13.4,51.2,13.4
			s2.5,0.6,5.6,1.3c3.1,0.7,62.9,0.1,64.9-2.3S1024.4,366.9,1024.4,366.9z"/>
		<path class="st4" d="M1065.5,393.4c-9,0.8-26.7,1-26.7,1s-13.2-26.2-24.5-25.3c0,0,10.4-11.8,14.6-10.4c0.7,0.2,1.1-0.3,1.4-1.3
			c11,3.4,32,11.6,34.1,26.1C1065,387.4,1065.3,390.6,1065.5,393.4z"/>
		<path class="st11" d="M1066.6,393.4c-9,0.8-26.7,1-26.7,1s-13.2-26.2-24.5-25.3c0,0,10.4-11.8,14.6-10.4c0.7,0.2,1.2-0.3,1.4-1.3
			c11,3.4,32,11.6,34.1,26.1C1066.1,387.4,1066.4,390.6,1066.6,393.4z"/>
		<path class="st4" d="M1065.5,393.4c-9,0.8-26.7,1-26.7,1s-13.2-26.2-24.5-25.3c0,0,10.4-11.8,14.6-10.4c0.7,0.2,1.1-0.3,1.4-1.3
			c11,3.4,32,11.6,34.1,26.1C1065,387.4,1065.3,390.7,1065.5,393.4z"/>
		<path class="st4" d="M987.6,468.8c0,0,25.3-6.2,29.3-2.8S987.6,468.8,987.6,468.8z"/>
		<path class="st4" d="M915,493c0,0,10.7,6.2,11.8,11.3S915,493,915,493z"/>
		<path class="st12" d="M869.7,282.9v110.9c0,1.9,1,2.2,2.7,3.1c5.6,3.1,19.5,8.7,36.1-0.1c1.7-0.9,2.8-1.2,2.8-3.1V283.6
			C911.3,283.6,890.1,292.1,869.7,282.9z"/>
		<ellipse class="st13" cx="890.5" cy="282.8" rx="20.8" ry="4.4"/>
		<g class="st14">
			<circle cx="871.6" cy="329" r="0.5"/>
			<circle cx="873.9" cy="329.6" r="0.5"/>
			<circle cx="876.9" cy="330.5" r="0.5"/>
			<circle cx="882.1" cy="331.7" r="0.5"/>
			<circle cx="887.6" cy="332.3" r="0.5"/>
			<circle cx="893.4" cy="332.6" r="0.5"/>
			<circle cx="901.6" cy="331.5" r="0.5"/>
			<circle cx="898.9" cy="332.1" r="0.5"/>
			<circle cx="906.7" cy="330.5" r="0.5"/>
			<circle cx="904.2" cy="331" r="0.5"/>
			<circle cx="909.4" cy="329.6" r="0.5"/>
			<circle cx="879.5" cy="331.2" r="0.5"/>
			<circle cx="885" cy="332.1" r="0.5"/>
			<circle cx="890.8" cy="332.6" r="0.5"/>
			<circle cx="896.2" cy="332.6" r="0.5"/>
		</g>
		<g class="st14">
			<circle cx="871.6" cy="331.2" r="0.5"/>
			<circle cx="873.9" cy="331.9" r="0.5"/>
			<circle cx="876.9" cy="332.8" r="0.5"/>
			<circle cx="882.1" cy="334" r="0.5"/>
			<circle cx="887.6" cy="334.6" r="0.5"/>
			<circle cx="893.4" cy="334.9" r="0.5"/>
			<circle cx="901.6" cy="333.8" r="0.5"/>
			<circle cx="898.9" cy="334.4" r="0.5"/>
			<circle cx="906.7" cy="332.8" r="0.5"/>
			<circle cx="904.2" cy="333.3" r="0.5"/>
			<circle cx="909.4" cy="331.9" r="0.5"/>
			<circle cx="879.5" cy="333.5" r="0.5"/>
			<circle cx="885" cy="334.4" r="0.5"/>
			<circle cx="890.8" cy="334.9" r="0.5"/>
			<circle cx="896.2" cy="334.9" r="0.5"/>
		</g>
		<g class="st14">
			<circle cx="871.6" cy="333.5" r="0.5"/>
			<circle cx="873.9" cy="334.2" r="0.5"/>
			<circle cx="876.9" cy="335.1" r="0.5"/>
			<circle cx="882.1" cy="336.3" r="0.5"/>
			<circle cx="887.6" cy="336.9" r="0.5"/>
			<circle cx="893.4" cy="337.2" r="0.5"/>
			<circle cx="901.6" cy="336.1" r="0.5"/>
			<circle cx="898.9" cy="336.7" r="0.5"/>
			<circle cx="906.7" cy="335.1" r="0.5"/>
			<circle cx="904.2" cy="335.6" r="0.5"/>
			<circle cx="909.4" cy="334.2" r="0.5"/>
			<circle cx="879.5" cy="335.8" r="0.5"/>
			<circle cx="885" cy="336.7" r="0.5"/>
			<circle cx="890.8" cy="337.2" r="0.5"/>
			<circle cx="896.2" cy="337.2" r="0.5"/>
		</g>
		<g class="st14">
			<circle cx="871.6" cy="335.8" r="0.5"/>
			<circle cx="873.9" cy="336.5" r="0.5"/>
			<circle cx="876.9" cy="337.4" r="0.5"/>
			<circle cx="882.1" cy="338.6" r="0.5"/>
			<circle cx="887.6" cy="339.2" r="0.5"/>
			<circle cx="893.4" cy="339.5" r="0.5"/>
			<circle cx="901.6" cy="338.4" r="0.5"/>
			<circle cx="898.9" cy="339" r="0.5"/>
			<circle cx="906.7" cy="337.4" r="0.5"/>
			<circle cx="904.2" cy="337.9" r="0.5"/>
			<circle cx="909.4" cy="336.5" r="0.5"/>
			<circle cx="879.5" cy="338.1" r="0.5"/>
			<circle cx="885" cy="339" r="0.5"/>
			<circle cx="890.8" cy="339.5" r="0.5"/>
			<circle cx="896.2" cy="339.5" r="0.5"/>
		</g>
		<g class="st14">
			<circle cx="871.6" cy="338.1" r="0.5"/>
			<circle cx="873.9" cy="338.8" r="0.5"/>
			<circle cx="876.9" cy="339.7" r="0.5"/>
			<circle cx="882.1" cy="340.9" r="0.5"/>
			<circle cx="887.6" cy="341.5" r="0.5"/>
			<circle cx="893.4" cy="341.8" r="0.5"/>
			<circle cx="901.6" cy="340.7" r="0.5"/>
			<circle cx="898.9" cy="341.3" r="0.5"/>
			<circle cx="906.7" cy="339.7" r="0.5"/>
			<circle cx="904.2" cy="340.2" r="0.5"/>
			<circle cx="909.4" cy="338.8" r="0.5"/>
			<circle cx="879.5" cy="340.4" r="0.5"/>
			<circle cx="885" cy="341.3" r="0.5"/>
			<circle cx="890.8" cy="341.8" r="0.5"/>
			<circle cx="896.2" cy="341.8" r="0.5"/>
		</g>
		<g class="st14">
			<circle cx="871.6" cy="340.4" r="0.5"/>
			<circle cx="873.9" cy="341.1" r="0.5"/>
			<circle cx="876.9" cy="342" r="0.5"/>
			<circle cx="882.1" cy="343.1" r="0.5"/>
			<circle cx="887.6" cy="343.8" r="0.5"/>
			<circle cx="893.4" cy="344.1" r="0.5"/>
			<circle cx="901.6" cy="343" r="0.5"/>
			<circle cx="898.9" cy="343.6" r="0.5"/>
			<circle cx="906.7" cy="342" r="0.5"/>
			<circle cx="904.2" cy="342.5" r="0.5"/>
			<circle cx="909.4" cy="341.1" r="0.5"/>
			<circle cx="879.5" cy="342.7" r="0.5"/>
			<circle cx="885" cy="343.6" r="0.5"/>
			<circle cx="890.8" cy="344.1" r="0.5"/>
			<circle cx="896.2" cy="344.1" r="0.5"/>
		</g>
		<g class="st14">
			<circle cx="871.6" cy="342.7" r="0.5"/>
			<circle cx="873.9" cy="343.4" r="0.5"/>
			<circle cx="876.9" cy="344.3" r="0.5"/>
			<circle cx="882.1" cy="345.5" r="0.5"/>
			<circle cx="887.6" cy="346.1" r="0.5"/>
			<circle cx="893.4" cy="346.4" r="0.5"/>
			<circle cx="901.6" cy="345.3" r="0.5"/>
			<circle cx="898.9" cy="345.9" r="0.5"/>
			<circle cx="906.7" cy="344.3" r="0.5"/>
			<circle cx="904.2" cy="344.8" r="0.5"/>
			<circle cx="909.4" cy="343.4" r="0.5"/>
			<circle cx="879.5" cy="345" r="0.5"/>
			<circle cx="885" cy="345.9" r="0.5"/>
			<circle cx="890.8" cy="346.4" r="0.5"/>
			<circle cx="896.2" cy="346.4" r="0.5"/>
		</g>
		<g class="st14">
			<circle cx="871.6" cy="345" r="0.5"/>
			<circle cx="873.9" cy="345.7" r="0.5"/>
			<circle cx="876.9" cy="346.6" r="0.5"/>
			<circle cx="882.1" cy="347.7" r="0.5"/>
			<circle cx="887.6" cy="348.4" r="0.5"/>
			<circle cx="893.4" cy="348.7" r="0.5"/>
			<circle cx="901.6" cy="347.5" r="0.5"/>
			<circle cx="898.9" cy="348.2" r="0.5"/>
			<circle cx="906.7" cy="346.6" r="0.5"/>
			<circle cx="904.2" cy="347.1" r="0.5"/>
			<circle cx="909.4" cy="345.7" r="0.5"/>
			<circle cx="879.5" cy="347.3" r="0.5"/>
			<circle cx="885" cy="348.2" r="0.5"/>
			<circle cx="890.8" cy="348.7" r="0.5"/>
			<circle cx="896.2" cy="348.7" r="0.5"/>
		</g>
		<g class="st14">
			<circle cx="871.6" cy="347.3" r="0.5"/>
			<circle cx="873.9" cy="348" r="0.5"/>
			<circle cx="876.9" cy="348.9" r="0.5"/>
			<circle cx="882.1" cy="350" r="0.5"/>
			<circle cx="887.6" cy="350.7" r="0.5"/>
			<circle cx="893.4" cy="351" r="0.5"/>
			<circle cx="901.6" cy="349.8" r="0.5"/>
			<circle cx="898.9" cy="350.5" r="0.5"/>
			<circle cx="906.7" cy="348.9" r="0.5"/>
			<circle cx="904.2" cy="349.4" r="0.5"/>
			<circle cx="909.4" cy="348" r="0.5"/>
			<circle cx="879.5" cy="349.6" r="0.5"/>
			<circle cx="885" cy="350.5" r="0.5"/>
			<circle cx="890.8" cy="351" r="0.5"/>
			<circle cx="896.2" cy="351" r="0.5"/>
		</g>
		<g class="st14">
			<circle cx="871.6" cy="349.6" r="0.5"/>
			<circle cx="873.9" cy="350.3" r="0.5"/>
			<circle cx="876.9" cy="351.2" r="0.5"/>
			<circle cx="882.1" cy="352.3" r="0.5"/>
			<circle cx="887.6" cy="353" r="0.5"/>
			<circle cx="893.4" cy="353.3" r="0.5"/>
			<circle cx="901.6" cy="352.1" r="0.5"/>
			<circle cx="898.9" cy="352.8" r="0.5"/>
			<circle cx="906.7" cy="351.2" r="0.5"/>
			<circle cx="904.2" cy="351.7" r="0.5"/>
			<circle cx="909.4" cy="350.3" r="0.5"/>
			<circle cx="879.5" cy="351.9" r="0.5"/>
			<circle cx="885" cy="352.8" r="0.5"/>
			<circle cx="890.8" cy="353.3" r="0.5"/>
			<circle cx="896.2" cy="353.3" r="0.5"/>
		</g>
		<g class="st14">
			<circle cx="871.6" cy="351.9" r="0.5"/>
			<circle cx="873.9" cy="352.6" r="0.5"/>
			<circle cx="876.9" cy="353.5" r="0.5"/>
			<circle cx="882.1" cy="354.6" r="0.5"/>
			<circle cx="887.6" cy="355.3" r="0.5"/>
			<circle cx="893.4" cy="355.6" r="0.5"/>
			<circle cx="901.6" cy="354.4" r="0.5"/>
			<circle cx="898.9" cy="355.1" r="0.5"/>
			<circle cx="906.7" cy="353.5" r="0.5"/>
			<circle cx="904.2" cy="354" r="0.5"/>
			<circle cx="909.4" cy="352.6" r="0.5"/>
			<circle cx="879.5" cy="354.2" r="0.5"/>
			<circle cx="885" cy="355.1" r="0.5"/>
			<circle cx="890.8" cy="355.6" r="0.5"/>
			<circle cx="896.2" cy="355.6" r="0.5"/>
		</g>
		<g class="st14">
			<circle cx="871.6" cy="354.2" r="0.5"/>
			<circle cx="873.9" cy="354.9" r="0.5"/>
			<circle cx="876.9" cy="355.8" r="0.5"/>
			<circle cx="882.1" cy="356.9" r="0.5"/>
			<circle cx="887.6" cy="357.6" r="0.5"/>
			<circle cx="893.4" cy="357.9" r="0.5"/>
			<circle cx="901.6" cy="356.7" r="0.5"/>
			<circle cx="898.9" cy="357.4" r="0.5"/>
			<circle cx="906.7" cy="355.8" r="0.5"/>
			<circle cx="904.2" cy="356.3" r="0.5"/>
			<circle cx="909.4" cy="354.9" r="0.5"/>
			<circle cx="879.5" cy="356.5" r="0.5"/>
			<circle cx="885" cy="357.4" r="0.5"/>
			<circle cx="890.8" cy="357.9" r="0.5"/>
			<circle cx="896.2" cy="357.9" r="0.5"/>
		</g>
		<g class="st14">
			<circle cx="871.6" cy="356.5" r="0.5"/>
			<circle cx="873.9" cy="357.2" r="0.5"/>
			<circle cx="876.9" cy="358.1" r="0.5"/>
			<circle cx="882.1" cy="359.2" r="0.5"/>
			<circle cx="887.6" cy="359.9" r="0.5"/>
			<circle cx="893.4" cy="360.1" r="0.5"/>
			<circle cx="901.6" cy="359" r="0.5"/>
			<circle cx="898.9" cy="359.7" r="0.5"/>
			<circle cx="906.7" cy="358.1" r="0.5"/>
			<circle cx="904.2" cy="358.6" r="0.5"/>
			<circle cx="909.4" cy="357.2" r="0.5"/>
			<circle cx="879.5" cy="358.8" r="0.5"/>
			<circle cx="885" cy="359.7" r="0.5"/>
			<circle cx="890.8" cy="360.1" r="0.5"/>
			<circle cx="896.2" cy="360.1" r="0.5"/>
		</g>
		<g class="st14">
			<circle cx="871.6" cy="358.8" r="0.5"/>
			<circle cx="873.9" cy="359.5" r="0.5"/>
			<circle cx="876.9" cy="360.4" r="0.5"/>
			<circle cx="882.1" cy="361.5" r="0.5"/>
			<circle cx="887.6" cy="362.2" r="0.5"/>
			<circle cx="893.4" cy="362.5" r="0.5"/>
			<circle cx="901.6" cy="361.3" r="0.5"/>
			<circle cx="898.9" cy="362" r="0.5"/>
			<circle cx="906.7" cy="360.4" r="0.5"/>
			<circle cx="904.2" cy="360.9" r="0.5"/>
			<circle cx="909.4" cy="359.5" r="0.5"/>
			<circle cx="879.5" cy="361" r="0.5"/>
			<circle cx="885" cy="362" r="0.5"/>
			<circle cx="890.8" cy="362.5" r="0.5"/>
			<circle cx="896.2" cy="362.5" r="0.5"/>
		</g>
		<g class="st14">
			<circle cx="871.6" cy="361.1" r="0.5"/>
			<circle cx="873.9" cy="361.8" r="0.5"/>
			<circle cx="876.9" cy="362.7" r="0.5"/>
			<circle cx="882.1" cy="363.8" r="0.5"/>
			<circle cx="887.6" cy="364.5" r="0.5"/>
			<circle cx="893.4" cy="364.8" r="0.5"/>
			<circle cx="901.6" cy="363.6" r="0.5"/>
			<circle cx="898.9" cy="364.3" r="0.5"/>
			<circle cx="906.7" cy="362.7" r="0.5"/>
			<circle cx="904.2" cy="363.1" r="0.5"/>
			<circle cx="909.4" cy="361.8" r="0.5"/>
			<circle cx="879.5" cy="363.4" r="0.5"/>
			<circle cx="885" cy="364.3" r="0.5"/>
			<circle cx="890.8" cy="364.8" r="0.5"/>
			<circle cx="896.2" cy="364.8" r="0.5"/>
		</g>
		<g class="st14">
			<circle cx="871.6" cy="363.4" r="0.5"/>
			<circle cx="873.9" cy="364" r="0.5"/>
			<circle cx="876.9" cy="365" r="0.5"/>
			<circle cx="882.1" cy="366.1" r="0.5"/>
			<circle cx="887.6" cy="366.8" r="0.5"/>
			<circle cx="893.4" cy="367" r="0.5"/>
			<circle cx="901.6" cy="365.9" r="0.5"/>
			<circle cx="898.9" cy="366.6" r="0.5"/>
			<circle cx="906.7" cy="365" r="0.5"/>
			<circle cx="904.2" cy="365.4" r="0.5"/>
			<circle cx="909.4" cy="364" r="0.5"/>
			<circle cx="879.5" cy="365.6" r="0.5"/>
			<circle cx="885" cy="366.6" r="0.5"/>
			<circle cx="890.8" cy="367" r="0.5"/>
			<circle cx="896.2" cy="367" r="0.5"/>
		</g>
		<g class="st14">
			<circle cx="871.6" cy="365.7" r="0.5"/>
			<circle cx="873.9" cy="366.3" r="0.5"/>
			<circle cx="876.9" cy="367.3" r="0.5"/>
			<circle cx="882.1" cy="368.4" r="0.5"/>
			<circle cx="887.6" cy="369.1" r="0.5"/>
			<circle cx="893.4" cy="369.3" r="0.5"/>
			<circle cx="901.6" cy="368.2" r="0.5"/>
			<circle cx="898.9" cy="368.9" r="0.5"/>
			<circle cx="906.7" cy="367.3" r="0.5"/>
			<circle cx="904.2" cy="367.7" r="0.5"/>
			<circle cx="909.4" cy="366.3" r="0.5"/>
			<circle cx="879.5" cy="367.9" r="0.5"/>
			<circle cx="885" cy="368.9" r="0.5"/>
			<circle cx="890.8" cy="369.3" r="0.5"/>
			<circle cx="896.2" cy="369.3" r="0.5"/>
		</g>
		<g class="st14">
			<circle cx="871.6" cy="368" r="0.5"/>
			<circle cx="873.9" cy="368.6" r="0.5"/>
			<circle cx="876.9" cy="369.6" r="0.5"/>
			<circle cx="882.1" cy="370.7" r="0.5"/>
			<circle cx="887.6" cy="371.4" r="0.5"/>
			<circle cx="893.4" cy="371.6" r="0.5"/>
			<circle cx="901.6" cy="370.5" r="0.5"/>
			<circle cx="898.9" cy="371.2" r="0.5"/>
			<circle cx="906.7" cy="369.6" r="0.5"/>
			<circle cx="904.2" cy="370" r="0.5"/>
			<circle cx="909.4" cy="368.6" r="0.5"/>
			<circle cx="879.5" cy="370.2" r="0.5"/>
			<circle cx="885" cy="371.2" r="0.5"/>
			<circle cx="890.8" cy="371.6" r="0.5"/>
			<circle cx="896.2" cy="371.6" r="0.5"/>
		</g>
		<g class="st14">
			<circle cx="871.6" cy="370.3" r="0.5"/>
			<circle cx="873.9" cy="370.9" r="0.5"/>
			<circle cx="876.9" cy="371.9" r="0.5"/>
			<circle cx="882.1" cy="373" r="0.5"/>
			<circle cx="887.6" cy="373.7" r="0.5"/>
			<circle cx="893.4" cy="373.9" r="0.5"/>
			<circle cx="901.6" cy="372.8" r="0.5"/>
			<circle cx="898.9" cy="373.5" r="0.5"/>
			<circle cx="906.7" cy="371.9" r="0.5"/>
			<circle cx="904.2" cy="372.3" r="0.5"/>
			<circle cx="909.4" cy="370.9" r="0.5"/>
			<circle cx="879.5" cy="372.5" r="0.5"/>
			<circle cx="885" cy="373.5" r="0.5"/>
			<circle cx="890.8" cy="373.9" r="0.5"/>
			<circle cx="896.2" cy="373.9" r="0.5"/>
		</g>
		<g class="st14">
			<circle cx="871.6" cy="372.6" r="0.5"/>
			<circle cx="873.9" cy="373.2" r="0.5"/>
			<circle cx="876.9" cy="374.2" r="0.5"/>
			<circle cx="882.1" cy="375.3" r="0.5"/>
			<circle cx="887.6" cy="376" r="0.5"/>
			<circle cx="893.4" cy="376.2" r="0.5"/>
			<circle cx="901.6" cy="375.1" r="0.5"/>
			<circle cx="898.9" cy="375.8" r="0.5"/>
			<circle cx="906.7" cy="374.2" r="0.5"/>
			<circle cx="904.2" cy="374.6" r="0.5"/>
			<circle cx="909.4" cy="373.2" r="0.5"/>
			<circle cx="879.5" cy="374.8" r="0.5"/>
			<circle cx="885" cy="375.8" r="0.5"/>
			<circle cx="890.8" cy="376.2" r="0.5"/>
			<circle cx="896.2" cy="376.2" r="0.5"/>
		</g>
		<g class="st14">
			<circle cx="871.6" cy="374.9" r="0.5"/>
			<circle cx="873.9" cy="375.5" r="0.5"/>
			<circle cx="876.9" cy="376.5" r="0.5"/>
			<circle cx="882.1" cy="377.6" r="0.5"/>
			<circle cx="887.6" cy="378.3" r="0.5"/>
			<circle cx="893.4" cy="378.5" r="0.5"/>
			<circle cx="901.6" cy="377.4" r="0.5"/>
			<circle cx="898.9" cy="378" r="0.5"/>
			<circle cx="906.7" cy="376.5" r="0.5"/>
			<circle cx="904.2" cy="376.9" r="0.5"/>
			<circle cx="909.4" cy="375.5" r="0.5"/>
			<circle cx="879.5" cy="377.1" r="0.5"/>
			<circle cx="885" cy="378" r="0.5"/>
			<circle cx="890.8" cy="378.5" r="0.5"/>
			<circle cx="896.2" cy="378.5" r="0.5"/>
		</g>
		<g class="st14">
			<circle cx="871.6" cy="377.2" r="0.5"/>
			<circle cx="873.9" cy="377.8" r="0.5"/>
			<circle cx="876.9" cy="378.8" r="0.5"/>
			<circle cx="882.1" cy="379.9" r="0.5"/>
			<circle cx="887.6" cy="380.5" r="0.5"/>
			<circle cx="893.4" cy="380.8" r="0.5"/>
			<circle cx="901.6" cy="379.7" r="0.5"/>
			<circle cx="898.9" cy="380.4" r="0.5"/>
			<circle cx="906.7" cy="378.8" r="0.5"/>
			<circle cx="904.2" cy="379.2" r="0.5"/>
			<circle cx="909.4" cy="377.8" r="0.5"/>
			<circle cx="879.5" cy="379.4" r="0.5"/>
			<circle cx="885" cy="380.4" r="0.5"/>
			<circle cx="890.8" cy="380.8" r="0.5"/>
			<circle cx="896.2" cy="380.8" r="0.5"/>
		</g>
		<g class="st14">
			<circle cx="871.6" cy="379.5" r="0.5"/>
			<circle cx="873.9" cy="380.1" r="0.5"/>
			<circle cx="876.9" cy="381" r="0.5"/>
			<circle cx="882.1" cy="382.2" r="0.5"/>
			<circle cx="887.6" cy="382.9" r="0.5"/>
			<circle cx="893.4" cy="383.1" r="0.5"/>
			<circle cx="901.6" cy="382" r="0.5"/>
			<circle cx="898.9" cy="382.6" r="0.5"/>
			<circle cx="906.7" cy="381" r="0.5"/>
			<circle cx="904.2" cy="381.5" r="0.5"/>
			<circle cx="909.4" cy="380.1" r="0.5"/>
			<circle cx="879.5" cy="381.7" r="0.5"/>
			<circle cx="885" cy="382.6" r="0.5"/>
			<circle cx="890.8" cy="383.1" r="0.5"/>
			<circle cx="896.2" cy="383.1" r="0.5"/>
		</g>
		<g class="st14">
			<circle cx="871.6" cy="381.8" r="0.5"/>
			<circle cx="873.9" cy="382.4" r="0.5"/>
			<circle cx="876.9" cy="383.3" r="0.5"/>
			<circle cx="882.1" cy="384.5" r="0.5"/>
			<circle cx="887.6" cy="385.1" r="0.5"/>
			<circle cx="893.4" cy="385.4" r="0.5"/>
			<circle cx="901.6" cy="384.3" r="0.5"/>
			<circle cx="898.9" cy="384.9" r="0.5"/>
			<circle cx="906.7" cy="383.3" r="0.5"/>
			<circle cx="904.2" cy="383.8" r="0.5"/>
			<circle cx="909.4" cy="382.4" r="0.5"/>
			<circle cx="879.5" cy="384" r="0.5"/>
			<circle cx="885" cy="384.9" r="0.5"/>
			<circle cx="890.8" cy="385.4" r="0.5"/>
			<circle cx="896.2" cy="385.4" r="0.5"/>
		</g>
		<path class="st3" d="M945.8,226.7c0,0,13.7-5.1,18.2,5.4l1.3,0.3l2.9,0.7c7.3-10.8,26.3,0,26.3,0l26.8,11.9l-1,1.7l-26.9-9.4
			c0,0-3.6,11-8.2,13.6s-12.2-1.5-12.2-1.5c-4.7-1.9-5.1-10.2-5-14.2l-4.1-0.8c-0.3,4-1.8,11.7-9,12.6c-9.8,1.2-10.5-7.5-10.5-7.5
			S944.1,228.5,945.8,226.7z"/>
		<path class="st11" d="M955.5,226.8c-0.5,1-1.1,2.4-0.2,3.1c0.4,0.2,0.9,0.3,1.4,0.2c2.9-0.6,4.4-3.7,5.6-6.4s3-5.7,6-6
			c3.5-0.3,7.1,3.5,10,1.5c0.9-0.6,1.4-1.7,2.4-2.1c0.7-0.3,1.5-0.3,2.2-0.1c6.7,1.2,11.9,6.6,12.7,13.3c0.2,1.4,0.4,3.2,1.8,3.4
			c0.5,0,1-0.1,1.6-0.2c2.6-0.3,4.2,2.7,5.1,5.2c1.1,3.4,2.3,7,1.6,10.5c-0.5,2.8-2.2,5.4-2.3,8.2c-0.1,2.3,0.9,4.6,1.9,6.7
			s2.6,4.6,4.9,4.3c1.9-0.3,2.9-2.3,3.9-4s2.6-3.5,4.4-3c0.8,0.2,1.7,0.9,2.4,0.5c0.4-0.3,0.7-0.7,0.7-1.2c0.9-3.9-0.4-8.4,1.5-11.9
			c1.5-2.7,4.5-4.2,6.9-6.1c8.5-6.8,9.9-19.2,3.1-27.7c-0.1-0.2-0.3-0.4-0.4-0.5c-2.6-3-6.3-5.7-6.5-9.7c-0.2-3,1.9-5.8,1.9-8.9
			s-1.9-5.6-4-7.6c-6.4-5.8-15.2-8.1-23.6-6.2c-2.2,0.5-4.4,1.3-6.6,1.1c-2.6-0.3-4.7-2-7.1-3.2c-7.6-3.9-17.9-1.1-22.5,6.1
			c-2.7,4.1-3.7,9.6-7.7,12.5c-2.6,1.9-6.4,2.6-7.8,5.5c-0.9,1.7-0.6,3.8-0.4,5.7c0.4,3.2,1.9,6.1,4.3,8.2
			C955,220.5,957.1,223.1,955.5,226.8z"/>
		<g class="st15">
			<path d="M1027.3,199.4c0.3-0.8,0.5-1.5,0.6-2.3C1027.7,197.8,1027.5,198.6,1027.3,199.4z"/>
			<path d="M956.1,224.4c0.1-0.5,0.3-1,0.6-1.5c1.6-3.7-0.5-6.3-2.9-8.8c-2.4-2.1-3.9-5-4.3-8.2c-0.1-0.9-0.2-1.7-0.2-2.6
				c-0.2,0.3-0.4,0.5-0.5,0.8c-0.9,1.7-0.6,3.8-0.4,5.7c0.4,3.2,1.9,6.1,4.3,8.2C954.5,219.9,956.1,221.9,956.1,224.4z"/>
			<path d="M1019.5,257.6c-1.8-0.5-3.5,1.3-4.4,3s-2,3.7-3.9,4c-2.3,0.3-3.9-2.2-4.9-4.3s-2-4.4-1.9-6.7c0-0.3,0-0.6,0.1-0.8
				c-0.7,1.5-1.1,3.1-1.2,4.8c-0.1,2.3,0.9,4.6,1.9,6.7s2.6,4.6,4.9,4.3c1.9-0.3,2.9-2.3,3.9-4s2.6-3.5,4.4-3
				c0.8,0.2,1.7,0.9,2.4,0.5c0.4-0.3,0.7-0.7,0.7-1.2c0.2-0.9,0.3-1.8,0.3-2.7C1021.2,258.5,1020.3,257.9,1019.5,257.6z"/>
			<path d="M1031.1,238.9c-2.4,1.9-5.4,3.4-6.9,6.1c-0.6,1.2-0.9,2.5-1,3.8c1.5-2.6,4.4-4.1,6.8-6c3.7-3,6.2-7.3,7.1-12
				C1035.8,234,1033.8,236.8,1031.1,238.9z"/>
			<path d="M1005.7,248.8c0.4-1.1,0.8-2.3,1.1-3.5c0.7-3.5-0.5-7.1-1.6-10.5c-0.8-2.5-2.4-5.5-5-5.2c-0.5,0.1-1,0.2-1.6,0.2
				c-1.4-0.2-1.7-2-1.8-3.4c-0.9-6.7-6-12.1-12.7-13.3c-0.7-0.2-1.5-0.1-2.2,0.1c-1,0.4-1.5,1.5-2.4,2.1c-2.9,2-6.5-1.8-10-1.5
				c-2.9,0.2-4.8,3.3-6,6s-2.7,5.8-5.6,6.4c-0.5,0.1-0.9,0.1-1.4-0.2c-0.3-0.2-0.4-0.5-0.5-0.8c-0.1,0.6-0.3,1.2-0.5,1.7
				c-0.5,1-1.1,2.4-0.2,3.1c0.4,0.2,0.9,0.3,1.4,0.2c2.9-0.6,4.4-3.7,5.6-6.4s3-5.7,6-6c3.5-0.3,7.1,3.5,10,1.5
				c0.9-0.6,1.4-1.7,2.4-2.1c0.7-0.3,1.5-0.3,2.2-0.1c6.7,1.2,11.9,6.6,12.7,13.3c0.2,1.4,0.4,3.2,1.8,3.4c0.5,0,1-0.1,1.6-0.2
				c2.6-0.3,4.2,2.7,5.1,5.2C1005.1,242,1006.2,245.4,1005.7,248.8z"/>
		</g>
	</g>
	<g class="st1">
		<path class="st2" d="M0,206.8c0,0.9,0,1.9,0.1,2.8C0.5,219.8,1.7,230,3.6,240c5.7,29.8,17.7,59.6,31.9,88c0.2,0.5,0.5,0.9,0.7,1.4
			c0.3,0.7,0.7,1.3,1,2c0.7,1.4,1.4,2.7,2.1,4.1l1.6,3l0,0c0.4,0.7,0.8,1.4,1.1,2.2c0.2,0.4,0.5,0.9,0.7,1.3
			c3.9,7.5,8.2,14.7,12.8,21.8l0.5,0.8c5.8,8.8,12.7,16.8,20.4,24c13.5,12.5,30.7,21.5,49.1,26.6c0.6,0.2,1.2,0.3,1.9,0.5
			c1.2,0.3,2.4,0.6,3.6,0.9c0.8,0.2,1.7,0.4,2.5,0.6c5.9,1.3,11.8,2.1,17.8,2.6c3.2,0.3,6.5,0.4,9.7,0.4h1.4c4,0,8-0.3,11.9-0.7
			l0.6-0.1c10.8-1.2,21.3-4,31.2-8.4c1.6-0.7,3.1-1.5,4.6-2.3l0.8-0.4l0.4-0.2l0,0c5.1-2.7,10-5.8,14.7-9.2
			c5.5-3.9,10.6-8.1,15.6-12.5c7.4-6.5,14.4-13.4,21-20.7l0.3-0.3c2.8-3.2,5.5-6.4,8.1-9.8v-0.1c1.8-2.3,3.5-4.7,5.1-7.1
			c0.1-0.1,0.1-0.2,0.2-0.3c2.4-3.6,4.6-7.2,6.6-11l0.5-0.9c1.5-2.8,2.8-5.6,4-8.4c6.9-16.1,10-33.5,11.7-50.9
			c3.5-35.3,1.4-71.6-7.9-106.9c-1.3-4.8-2.7-9.5-4.2-14.3c-0.2-0.6-0.4-1.3-0.6-1.9c-0.3-1-0.7-2-1-3.1c-0.1-0.4-0.3-0.9-0.4-1.3
			c-1.3-3.8-2.8-7.7-4.3-11.4l-0.8-2c-0.9-2-1.7-4.1-2.6-6.1c-0.8-1.9-1.7-3.7-2.6-5.6c-0.1-0.3-0.3-0.6-0.4-0.9
			c-7.7-15.8-17.8-31.2-32.2-42.8c-1-0.8-2-1.6-3-2.3c-1.5-1.1-3-2.2-4.6-3.2l-1.1-0.7l-0.4-0.3l-0.3-0.2l-0.2-0.1
			c-0.8-0.5-1.6-1-2.5-1.4s-1.7-0.9-2.6-1.3l0,0h-0.1l-0.3-0.2c-0.7-0.3-1.4-0.7-2-1l-0.7-0.3l-0.3-0.1l-1.1-0.5
			c-5.1-2.1-10.5-3.7-15.9-4.8c-3-0.6-6.1-0.9-9.2-1.1c-4.7-0.3-9.3,0-13.9,0.8c-0.7,0.1-1.4,0.3-2.1,0.4c-5.8,1.2-11.3,3.6-16.1,7
			c-6.3,4.6-10.7,10.7-14.8,17l-0.4,0.6c-0.7,1.1-1.3,2.1-2,3.2c-2.3,3.7-4.6,7.5-7.1,11.2c-2.3,3.4-4.6,6.8-7.2,10
			c-2.6,3.2-5.4,6.3-8.4,9.1c-0.4,0.4-0.9,0.8-1.4,1.3c-5.6,5-12,8.9-18.9,11.6c-6.3,2.4-13,3.4-19.5,2.1l0,0
			c-1.9-0.4-3.7-1-5.4-1.7c-3.3-1.4-6.4-2.9-9.6-4.1c-5.6-2.4-11.5-4.1-17.5-5l0,0c-6.2-0.8-12.6-0.1-18.5,2c-1,0.4-1.9,0.8-2.9,1.2
			c-4.4,1.9-8.4,4.6-11.8,7.9c-0.4,0.4-0.8,0.8-1.2,1.2c-8.8,8.9-13.6,21.3-16.2,33.4C0.9,183.5-0.2,195.2,0,206.8z"/>
		
			<linearGradient id="SVGID_1_" gradientUnits="userSpaceOnUse" x1="2630.229" y1="324.1" x2="2630.229" y2="-95.8072" gradientTransform="matrix(-1 0 0 1 2852.72 95.9)">
			<stop  offset="0" style="stop-color:#808080;stop-opacity:0.25"/>
			<stop  offset="0.54" style="stop-color:#808080;stop-opacity:0.12"/>
			<stop  offset="1" style="stop-color:#808080;stop-opacity:0.1"/>
		</linearGradient>
		<path class="st16" d="M127.5,412.7l-2,2.3c0.6,0.2,1.2,0.3,1.9,0.5c1.2,0.3,2.4,0.6,3.6,0.9c0.8,0.2,1.7,0.4,2.5,0.6
			c5.9,1.3,11.8,2.1,17.8,2.6c3.2,0.3,6.5,0.4,9.7,0.4c0.6-0.9,1.2-1.9,1.6-2.9c1.3-3.1,6.5-8.6,12-13.8c-0.1,0.9-0.2,1.4-0.2,1.4
			v0.4l-0.1,14.3l0.6-0.1c10.8-1.2,21.3-4,31.2-8.4c1.6-0.7,3.1-1.5,4.6-2.3l0.8-0.4l0.4-0.2c0.7-3.4,1.3-6.7,1.8-9.4l0.1-0.4
			c0.1-0.4,0.1-0.7,0.2-1s0.1-0.6,0.2-0.9s0.1-0.4,0.1-0.6c0.3-1.8,0.5-2.9,0.5-2.9c0-0.5,0.1-1.1,0.2-1.6l0,0
			c0.4-3,1.8-5.9,3.9-8.1c0.9-0.9,1.5-2,1.9-3.2l0,0c1.1-3.4,0.9-7.8,0.8-9.9c0-0.7-0.1-1.1-0.1-1.1s3.8-2,6.1-8.2
			c0.5-1.3,0.8-2.6,1.1-4c1.6-8.8,6.7-27.3,7.3-29.6l0,0l0.1-0.2c0,0,0.1-0.3,0.4-0.9c0-0.1,0-0.1,0.1-0.2l0.1-0.2l0,0
			c2.3-6.2,11-31.3,10.3-47.9c-0.8-19.1,1.2-29.1,1.2-29.1l2.3-41.6v-0.4l0.1-2.4v-0.7c0.3,0.3,0.6,0.5,0.9,0.7l0.5,0.5l0.2,0.2
			c0,0,0-0.2,0-0.5c0.4,0.3,0.5,0.5,0.5,0.5s1-16.1,0.9-25.3c0-1.1,0-2.1-0.1-2.9c6.8-2.3,17-6.1,17.6-8c0.5-1.6,4.3-5.1,7.6-7.9
			l1.8-1.5l0.9-0.8c1.3-1.1,2.2-1.8,2.2-1.8c-0.3,0-0.5-0.1-0.7-0.3c0.4-0.2,0.8-0.4,1.1-0.6c1-0.5,2-1.2,3.2-1.9
			c4.8-3.2,10.7-8.2,14-13c1.8-2.7,2.8-5.4,2.4-7.6c0-0.2-0.1-0.4-0.2-0.6l13.8-19.9l1.6-2.3c1-1.5,0.9-3.4-0.3-4.7l0.1-0.1
			l-0.1-0.1l-0.6-0.4l0.1,0.1c-0.9-0.5-2-0.3-2.6,0.6l-0.2,0.4l-13.3,19.1l-2.4,3.4c-5.2-1.6-12.8,2.9-18.7,7.4
			c-2.2,1.6-4.1,3.3-5.7,4.6l-1,0.9c-0.5-1-0.7-1.7-0.7-1.7c-0.3,3.2-11.5,7.9-14,9.6c-1.2,0.7-2.5,1.2-3.9,1.3
			c0.4-12-8.9-24.6-8.9-24.6l-18-22.9l0,0l-1.1-1.4l-3.6-4.5c-0.3-1.4-0.4-2.8-0.3-4.3c0-2.3,0.4-4.7,1-6.9c0.1-0.4,0.2-0.7,0.4-1.1
			c0.3-1,0.8-2,1.3-3c0.2-0.4,0.4-0.8,0.6-1.1h0.1c-0.4,1.4-0.8,2.8-1.1,4.2c-0.1,0.4-0.1,0.8-0.2,1.1l-0.1,0.5
			c-0.1,0.6-0.1,1.2-0.1,1.8c0,0.1,0,0.2,0,0.3c0.2,2.4,2,11.2,4.4,10.8c0.5,0,1-0.2,1.3-0.6c0.3-0.3,0.5-0.6,0.7-1
			c0.2-0.3,0.3-0.6,0.4-0.8c0.2-0.4,0.3-0.8,0.4-1.2c0.5-2.3,0.7-4.7,0.6-7c0,1.1-0.2,2.2-0.4,3.3c0.1-2.5-0.1-5.2-0.2-7.3
			c0-0.5,0-0.9,0-1.3s0-0.9,0-1.4l0,0c0-0.5,0-0.9,0-1.4h0.1h0.2c0,0.3,0,0.7,0,1.1c0-0.4,0-0.8,0-1.1h0.1h0.2
			c2.3-0.4,4.5-1.1,6.6-2c2.6-1.1,5-2.6,7.2-4.4c0.5,0,1-0.1,1.4-0.2c1.4-0.3,2.6-1,3.6-2l0.2-0.2c0.5,1.6,0.2,3.3-0.9,4.6
			c0,0.1-0.1,0.1-0.1,0.1h0.1c2.9-0.2,5.3-2.4,6.5-5c0-0.1,0.1-0.2,0.1-0.3c1-2.8,1.3-5.9,0.9-8.9s-0.7-6-0.6-9
			c0-0.7,0.1-1.5,0.2-2.2c0-0.1,0-0.2,0-0.3c0.1-0.8,0.1-1.6,0-2.4c0-0.1,0-0.1,0-0.2c0-0.4-0.1-0.9-0.2-1.3h0.1
			c0.7,0,1.3-0.3,1.6-0.9l0.2-0.2c0.2-0.2,0.4-0.4,0.6-0.7s0.4-0.6,0.5-1c0.3-0.8,0.5-1.6,0.7-2.4c0.9-3.4,1.3-6.8,1.2-10.3
			c-0.1,1-0.2,2.1-0.4,3.2c0.3-4-0.3-7.8-2.9-10.7c-1.8-2-4.3-3.2-6.8-4.3c-0.9-0.3-1.6-0.9-2.2-1.6c-0.4-0.9-0.7-1.8-0.7-2.7
			c-0.9-5.8-6.3-9.9-11.8-12.2c-7-3-15.4-4.4-22.2-0.7c-3.3,1.8-5.9,4.5-8.8,6.8c-3.7,2.8-8,4.8-12,7.3s-7.8,5.6-9.7,9.8
			s-1.6,9.2-1.1,14c0.3,2.4,0.6,4.9,0.7,7.3c0,0.2,0,0.4,0,0.6c0.2,5.5-0.8,11-3,16.1c-2.2,5.2-5.8,9.8-10.3,13.2
			c-1.1,0.7-2.1,1.5-2.9,2.5c-0.8,1-0.9,2.5-0.2,3.6c0.2,0.3,0.5,0.5,0.8,0.8c0.3,0.2,0.6,0.5,0.9,0.8c0.2,0.3,0.4,0.6,0.5,0.9
			c0.3,0.9,0.3,2,0.1,2.9c0,0.1,0,0.2-0.1,0.3l-0.1,0.5c-1.3,5-4,9.5-7.7,13.1c0.2,1.2,1.6,1.6,2.8,1.8l0,0c3.1,0.5,6.3,0.7,9.4,0.7
			h1.4c-0.1,0.4-0.3,0.7-0.4,1.1l0,0c-0.3,0.9-0.7,1.8-1,2.8l0,0c-1.4,4.3-2.8,9.4-2.2,12.9c1.2,6.7,4.6,37.3,2.9,42.7
			s2.7,44.6,2.7,44.6s0.1,0.6,0.4,1.7c0.3,1.3,0.7,3.3,1.3,5.8c0,0.1-0.1,0.2-0.1,0.3c-2.7,6.4-5.7,13.3-7.3,16.1
			c-2.1,3.8-2.1,17.8,1.2,30.7c1.7,6.6,4.3,12.9,8,17.3c0,0,3.8,5.3,3.5,8c0,0.2-0.1,0.4-0.2,0.6c-0.8,1.6-0.4,4-0.1,5.4
			c0.1,0.6,0.3,0.9,0.3,0.9v1l1.7,36.9c0,3.9-0.3,7.7-0.8,11.6c-4.6,5.7-11.7,14-15.1,15.4c-5.2,2.1-43.8,49-43.8,49
			s0.3,0.6,0.9,1.5L127.5,412.7z"/>
		<path class="st17" d="M282.3,159c-1.1,0.7-2.4,1.2-3.7,1.4c-4.8,0.1-8.8-12.9-8.8-12.9s1.4-1.4,3.6-3.3c6.5-5.8,20-16.4,26.4-10.4
			C306.9,140.4,290.6,154.5,282.3,159z"/>
		<path class="st17" d="M133.5,417c5.9,1.3,11.8,2.1,17.8,2.6c-2.5-4.5-19-9.8-19-9.8l-2.2,2.6l-1.1,1.3l-1.6,1.9
			c1.2,0.3,2.4,0.6,3.6,0.9C131.8,416.6,132.7,416.8,133.5,417z"/>
		<path class="st4" d="M282.3,159c-1.1,0.7-2.4,1.2-3.7,1.4c-4.8,0.1-8.8-12.9-8.8-12.9s1.4-1.4,3.6-3.3
			C274.9,147.7,279.2,157.3,282.3,159z"/>
		<path class="st18" d="M251.3,154.3c0,0,4,0.3,6.5-1.4c2.5-1.7,13.5-6.4,13.8-9.5c0,0,6.5,15.9,10.2,16.5c0,0-11.4,8.9-12.2,11.8
			s-23,9.8-23,9.8L251.3,154.3z"/>
		<path class="st19" d="M251.3,154.3c0,0,4,0.3,6.5-1.4c2.5-1.7,13.5-6.4,13.8-9.5c0,0,6.5,15.9,10.2,16.5c0,0-11.4,8.9-12.2,11.8
			s-23,9.8-23,9.8L251.3,154.3z"/>
		<path class="st4" d="M129,413.6c0.5,0.8,1.2,1.7,2,2.8c0.8,0.2,1.7,0.4,2.5,0.6c5.9,1.3,11.8,2.1,17.8,2.6c-2.5-4.5-19-9.8-19-9.8
			l-2.2,2.6L129,413.6z"/>
		<path class="st19" d="M129.2,410.9c0,0,0.3,0.6,0.9,1.5c1.1,1.6,2.2,3.2,3.5,4.6c5.9,1.3,11.8,2.1,17.8,2.6
			c3.2,0.3,6.5,0.4,9.7,0.4h1.4c0.4-0.6,0.7-1.3,1-2c1.2-2.9,5.9-8,11-13c0.2-0.3,0.5-0.5,0.7-0.7c7.3-7.1,15.2-13.8,15.2-13.8
			l0.8-48.7c0,0-1.7,2.3-4.2,5.4c-4.5,5.6-11.5,13.9-14.8,15.3C167,364.5,129.2,410.9,129.2,410.9z"/>
		<path class="st4" d="M129.2,410.9c0,0,0.3,0.6,0.9,1.5c1.1,1.6,2.2,3.2,3.5,4.6c5.9,1.3,11.8,2.1,17.8,2.6
			c3.2,0.3,6.5,0.4,9.7,0.4h1.4c0.4-0.6,0.7-1.3,1-2c1.2-2.9,5.9-8,11-13c0.2-0.3,0.5-0.5,0.7-0.7c7.3-7.1,15.2-13.8,15.2-13.8
			l0.8-48.7c0,0-1.7,2.3-4.2,5.4c-4.5,5.6-11.5,13.9-14.8,15.3C167,364.5,129.2,410.9,129.2,410.9z"/>
		<path class="st4" d="M149,404c4.2,0.4,8.4,0.4,12.6,0C169.2,403.3,163.5,407.8,149,404z"/>
		<path class="st4" d="M145.6,408.8c0,0,9.9,5.7,13.8,2.8S155.7,414.4,145.6,408.8z"/>
		<path class="st19" d="M185.7,289.2c0.4,0.9,0.5,1.9,0.2,2.8c-0.4,1-0.6,2.1-0.4,3.2c0.1,0.6,0.2,1.3,0.3,1.9
			c0.2,0.7,0.3,1.1,0.3,1.1l1.7,37.5c0,3.8-0.3,7.7-0.8,11.5c-0.5,4-1.5,8.1-3,10.5c-3.4,5.2-7.8,39.2-8.7,46.5l-0.2,1.4l-0.1,13.5
			c10.8-1.2,21.3-4,31.2-8.4c1.6-0.7,3.1-1.5,4.6-2.3l0.8-0.4l0.4-0.2l0,0c0.7-3.5,1.3-6.8,1.8-9.4l0.1-0.4c0.1-0.4,0.1-0.7,0.2-1
			s0.1-0.6,0.2-0.9s0.1-0.4,0.1-0.6c0.2-1.1,0.3-1.8,0.3-1.8c0.1-0.9,0.2-1.9,0.4-2.8l0,0c0.5-2.6,1.7-5,3.6-6.9
			c1.1-1.2,1.9-2.8,2.2-4.4l0,0c0.6-3.2,0.7-6.4,0.3-9.6c0.2-0.1,0.4-0.2,0.5-0.4c1.2-0.8,4.3-3.5,6-9.3c0.2-0.8,0.4-1.7,0.6-2.5
			c1.7-9.3,7.2-29.6,7.2-29.6s0.2-0.5,0.6-1.5l0,0c0.1-0.3,0.3-0.7,0.4-1.1c0-0.1,0-0.1,0.1-0.2l0.1-0.2l0,0
			c2.9-8.2,10.1-30.5,9.5-45.7c-0.8-18.9,1.1-28.8,1.1-28.8l2.4-44V206v-0.4l0.2-4.1l-21.8-0.6h-1.3l-5.2-0.2h-0.2h-0.6l-7-0.2
			l-3.1-0.1l-5.6-0.2H204h-1.1l-4.4-0.1l-12.7,7.4c0,0-0.5,1.2-1.3,3.2c-0.2,0.4-0.4,0.9-0.6,1.4s-0.4,1.1-0.7,1.7l-1.8,4.3
			c-0.2,0.5-0.4,1-0.6,1.5c-2.7,6.4-5.7,13.4-7.3,16.3c-1.9,3.5-2,16,0.6,28c1.6,7.4,4.4,14.7,8.4,19.6
			C183.8,285.3,184.8,287.2,185.7,289.2z"/>
		<path class="st4" d="M199.9,390.3c0,0,7.8,6.1,11,6.1S199.9,390.3,199.9,390.3z"/>
		<path class="st17" d="M246.6,133.9v12.5l-8.3-3.6l-8.2-3.6l-17.9-17.6c0,0-14.2-9.2-21.8-17.6c-4.3-4.8-6.5-9.3-2.7-11.7
			c1.8-1.2,3.5-2.7,4.9-4.3c3.8-4.5,7.1-9.4,9.9-14.6c0.1-0.2,0.2-0.4,0.4-0.6c3.7-6.8,6.1-12.6,6.1-12.6s10.4,3.3,17.1,8
			c0.5,0.4,1,0.8,1.5,1.2c3.7,3.1,5.6,6.6,2.1,10.1c-0.9,0.9-1.7,1.9-2.5,2.9l0,0c-0.6,0.8-1.1,1.6-1.5,2.4
			c-0.2,0.4-0.4,0.7-0.6,1.1c-2.3,4.7-3.1,10-2.3,15.2L246.6,133.9z"/>
		<path class="st11" d="M245.1,44.6c0.4,0.7,1,1.4,1.4,2.2c0.8,1.6,0.7,3.5,0.6,5.3c-0.2,2.8,0,5.7,0.5,8.5c0.6,2.5,1.7,4.9,1.8,7.5
			c0.1,3.6-1.8,7-3.6,10.1c2-0.1,3.9-0.9,5.2-2.4c0.5,1.6,0.1,3.4-1,4.7c3-0.1,5.5-2.5,6.6-5.2c1-2.8,1.3-5.8,0.9-8.8
			c-0.4-2.9-0.7-5.9-0.6-8.9c0.2-1.6,0.3-3.2,0.3-4.8c-0.3-3.2-2.3-6-4.2-8.6l-3.9-5.3c-0.3-0.4-0.6-0.8-1.1-1
			C244.5,36.1,244.1,42.8,245.1,44.6z"/>
		<path class="st4" d="M229.8,79.6c-0.9,0.9-1.7,1.9-2.5,2.9l0,0c-0.6,0.8-1.1,1.6-1.5,2.4c-0.2,0.4-0.4,0.7-0.6,1.1
			c-5-0.3-9.9-1.8-14.2-4.5c-3.2-2-5.9-4.6-8.1-7.6c-0.1-0.2-0.2-0.3-0.4-0.5c0.1-0.2,0.2-0.4,0.4-0.6c3.7-6.8,6.1-12.6,6.1-12.6
			s10.4,3.3,17.1,8c0.5,0.4,1,0.8,1.5,1.2C231.4,72.5,233.3,76,229.8,79.6z"/>
		<path class="st17" d="M256.8,55.1c0,14.4-10.3,26.7-24.4,29.4c-1.8,0.3-3.6,0.5-5.4,0.5h-0.1c-0.3,0-0.6,0-1,0
			c-5.2-0.2-10.3-1.7-14.8-4.5c-3.2-2-5.9-4.5-8.1-7.6c-9.7-13.3-6.8-31.9,6.4-41.7c13.3-9.7,31.9-6.8,41.7,6.4
			C254.8,42.7,256.8,48.8,256.8,55.1z"/>
		<path class="st4" d="M230.9,128.8c0,0,15,8.5,11.2,1.3l-19.6-29l0,0l22.3,28.6c0,0,14.2,19.5,6.4,33c0,0-1.1,11.2,0.2,13.8
			s-0.4,30.9-0.4,30.9s-5.3-4.9-8.1-4S220,206,220,206L230.9,128.8z"/>
		<path class="st4" d="M249.6,201.6l-0.3,5.2c-1.8-1.3-4.3-2.8-6-2.2c-2.8,0.9-22.9,2.7-22.9,2.7l0.9-6.5L249.6,201.6z"/>
		<path class="st11" d="M231.5,128.8c0,0,15,8.5,11.2,1.3l-19.6-29l0,0l22.3,28.6c0,0,14.2,19.5,6.4,33c0,0-1.1,11.2,0.2,13.8
			s-0.4,30.9-0.4,30.9s-5.3-4.9-8.1-4s-22.9,2.6-22.9,2.6L231.5,128.8z"/>
		<path class="st4" d="M239.5,143.4c-0.9,9.1-4.6,19.9-4.6,19.9s-2.6,26.9-6,34.9s-1.9,18.9-3.8,39.2c-0.7,7.3-3,12.3-6.2,15.7
			c-5.2,5.6-12.7,6.7-18.6,6.4c-0.5,0-0.9-0.1-1.4-0.1c-9.5-1-18.6-46.6-18.6-46.6s-4.4-38.8-2.6-44.1s-1.7-35.6-2.8-42.2
			c-0.7-4.2,1.4-11.1,3.1-15.5c1-2.6,1.8-4.4,1.8-4.4s3.2-10.2,8.5-15.5c1.5-1.5,3.5-2.4,5.6-2.4c2.5,0.1,4.9,0.9,7,2.2l0.2,0.2
			c0,0,34.5,35.2,37.7,43.4C239.7,136.6,239.8,139.9,239.5,143.4z"/>
		<path class="st19" d="M238.3,142.8c-0.9,9.1-4.6,19.9-4.6,19.9s-2.6,26.9-6.1,34.9s-1.9,18.9-3.8,39.2c-0.7,7.3-3,12.3-6.2,15.7
			c-5.2,5.6-12.7,6.7-18.6,6.4l-1.4-0.1c-9.5-0.9-18.6-46.6-18.6-46.6s-4.4-38.8-2.6-44.1s-1.7-35.6-2.8-42.2
			c-0.7-4.2,1.4-11.1,3.1-15.5c1-2.6,1.8-4.4,1.8-4.4s3.2-10.2,8.5-15.5c1.5-1.5,3.5-2.4,5.6-2.4c2.5,0.1,4.9,0.9,7,2.2l0.3,0.2
			c0,0,34.5,35.2,37.7,43.4C238.6,136,238.7,139.3,238.3,142.8z"/>
		<path class="st4" d="M199.7,281.5c0,0-7.8,7-10.5,6.7S199.7,281.5,199.7,281.5z"/>
		<path class="st4" d="M201.8,288.2c0,0-8.2,3.8-10.7,4.4S198.6,287.2,201.8,288.2z"/>
		<path class="st4" d="M233.7,183.6c0,0,12.2,0.1,14.1,4S237.7,182,233.7,183.6z"/>
		<path class="st4" d="M232,190.3c0,0,9.4,2,12.2,4.3S232,190.3,232,190.3z"/>
		<path class="st4" d="M216.2,167.1c0,0-1.1,38.5-5.3,43.5S216.2,167.1,216.2,167.1z"/>
		<path class="st4" d="M205.7,275.9c0,0-7.8,34,7.9,36.1s10.9-38.6,10.9-38.6L205.7,275.9z"/>
		<path class="st17" d="M205.1,275.4c0,0-7.8,34,7.9,36.1s10.9-38.6,10.9-38.6L205.1,275.4z"/>
		<path class="st4" d="M256.6,51.8c-0.4-0.6-0.8-1.3-1.1-2.1c-2.1-4.3-7.5-2.2-11.4-0.1l-2.1,2.7c-1,1.1-1.8,2.4-2.4,3.7
			c-0.4,1.1-0.7,2.2-1,3.3c-0.5,1.9-1.3,3.8-2.1,5.6c-2.4,6.2-3.8,12.8-4.2,19.5c-1.8,0.3-3.6,0.5-5.4,0.5h-0.1v-0.1
			c0.2-0.8,0.4-1.5,0.5-2.3l0,0c0.8-4.3,0.9-8.7,0.3-13c0-0.1,0-0.2,0-0.3c-0.1-1-0.3-1.9-0.4-2.9c-0.4,0.7-0.7,1.3-1.1,2
			c-2.4,4.5-4.9,8.8-9.4,10.8c-1.8,0.7-3.7,1.1-5.7,1.3c-2.4,0.1-4.8,0.5-7.1,1.2c-0.8,0.2-1.5,0.7-2.1,1.3c-0.6,0.9-1,2-1,3.1
			c-0.2,1.5-0.6,2.9-1.1,4.3c-2,5.2-5.2,9.9-9.2,13.8l-1,1c-1.7,1.8-3.8,3.2-6.1,4.3c-2.1,0.7-4.3,1.1-6.5,1c1-2.6,1.8-4.4,1.8-4.4
			s3.2-10.2,8.5-15.5c1.5-1.5,3.5-2.4,5.6-2.4c3.9-4.7,7.3-9.8,10.2-15.2c-9.8-13.3-7-31.9,6.3-41.7s31.9-7,41.7,6.3
			C254.1,41.6,256.1,46.6,256.6,51.8L256.6,51.8z"/>
		<path class="st11" d="M258.5,28.5c-1.8-2-4.2-3.1-6.6-4.3c-0.8-0.3-1.6-0.9-2.1-1.6c-0.4-0.8-0.6-1.8-0.7-2.7
			c-0.8-5.8-6.2-9.8-11.5-12.1c-6.9-3-15.1-4.3-21.7-0.7c-3.2,1.7-5.7,4.5-8.6,6.7c-3.7,2.8-7.9,4.8-11.8,7.2s-7.6,5.5-9.5,9.8
			c-2.9,6.5-0.7,14-0.4,21.1c0.6,11.2-4,22.9-13.1,29.6c-1.1,0.7-2.1,1.5-2.9,2.5c-0.8,1-0.9,2.4-0.2,3.6c0.4,0.6,1.2,1,1.7,1.6
			c1,1.2,0.8,3,0.4,4.5c-1.3,4.9-3.9,9.4-7.6,13c0.1,1.2,1.6,1.6,2.7,1.8c3.1,0.5,6.2,0.7,9.3,0.7c4.9,0.4,9.7-1.5,13-5.2
			c5.5-5.2,10.2-11.7,11.4-19.1c0.1-1.1,0.4-2.2,1-3.1c0.6-0.6,1.3-1,2.1-1.3c4.1-1.4,8.8-0.7,12.8-2.5c5.2-2.3,7.7-7.7,10.4-12.8
			c0.1,1,0.3,1.9,0.4,2.9c0.8,5.2,0.5,10.5-0.8,15.6c-0.7,2.9-1.8,5.8-1.7,8.7c0.1,2.2,2.3,13.8,5.3,10.3s1.9-11.1,1.9-15.4
			c0-8,1.5-16,4.3-23.5c0.7-1.9,1.5-3.7,2.1-5.6c0.3-1.1,0.6-2.2,1-3.3c0.6-1.3,1.4-2.6,2.4-3.7l2.1-2.7c3.9-2.1,9.3-4.2,11.4,0.1
			c0.8,1.7,1.2,3.5,3.3,1.9c1.2-1,1.6-2.8,2-4.3C261.6,40.2,262.7,33.1,258.5,28.5z"/>
		<path class="st4" d="M218.5,132.8c-0.8-20.4-29.4-24.6-36-5.3c-0.1,0.1-0.1,0.3-0.1,0.4c-4.4,13.1-2.5,46.2-2.5,46.2
			s0.6,22.2,2.7,29.6s7.9,28.6,7.9,32s5.4,16.5,7.7,17.4s3.5,8.3,4,9.7s2.3,18.6,2.3,18.6s21.4-1.3,21.8-4.7s-4.7-20.1-4.7-20.1
			s-3.8-6.8-4.3-12.3s-3.5-8-2.9-11.7s-1.7-5.7-1.7-8.1s-1.7-9.1-1.7-9.1s-3.6-2.8-3-6.3s-5.1-10.2-3.6-12.7s1.9-8.5,1.9-8.5
			s1.9-27.3,3.2-34.7s9.1-19.3,9.1-19.3S218.6,133.4,218.5,132.8z"/>
		<path class="st4" d="M217.7,252.5c-5.2,5.6-12.7,6.7-18.6,6.4c-0.7-2.6-1.7-5.8-3.1-6.4c-2.3-1-7.7-14-7.7-17.4s-5.9-24.6-8-32
			s-2.6-29.6-2.6-29.6s-1.9-33.1,2.5-46.2c0-0.1,0.1-0.3,0.1-0.4c6.7-19.3,35.2-15.1,36,5.3c0,0.6,0,0.9,0,0.9s-7.8,11.9-9.1,19.3
			s-3.2,34.7-3.2,34.7s-0.4,6.1-1.9,8.5s4.2,9.3,3.6,12.7s3,6.3,3,6.3s1.7,6.6,1.7,9.1s2.3,4.4,1.7,8.1c-0.6,3.8,2.5,6.3,2.9,11.8
			C215.4,246.7,216.3,249.7,217.7,252.5z"/>
		<path class="st19" d="M217.4,132.3c-0.8-20.4-29.4-24.6-36-5.3c0,0.1-0.1,0.3-0.1,0.4c-4.4,13.1-2.5,46.2-2.5,46.2
			s0.6,22.2,2.6,29.6s8,28.6,8,32s5.4,16.5,7.7,17.4s3.4,8.3,4,9.7s2.3,18.6,2.3,18.6s21.4-1.3,21.8-4.7s-4.7-20.1-4.7-20.1
			s-3.8-6.8-4.3-12.3s-3.5-8-2.9-11.7s-1.7-5.7-1.7-8.1s-1.7-9.1-1.7-9.1s-3.6-2.9-3-6.3s-5.1-10.2-3.6-12.7s1.9-8.5,1.9-8.5
			s1.9-27.3,3.2-34.7s9.1-19.3,9.1-19.3S217.4,132.9,217.4,132.3z"/>
		<path class="st4" d="M182.2,184.7c0.6-0.6,11.4-12.5,14.8-8.2S182.2,184.7,182.2,184.7z"/>
		<path class="st4" d="M183.2,194c0.4-0.4,10.8-0.9,13.4-6.7S183.2,194,183.2,194z"/>
		<g class="st15">
			<path d="M171.4,89.2c0.3,0.3,0.5,0.6,0.6,1c0.4-1.3,0.2-2.7-0.6-3.9c-0.5-0.6-1.3-0.9-1.7-1.5l-0.1-0.2c-0.5,0.9-0.5,2.1,0.1,3
				C170.2,88.3,170.9,88.6,171.4,89.2z"/>
			<path d="M185.9,52.4c0-1.1,0-2.2,0-3.2c-0.2-3.9-0.9-7.8-1.1-11.7c-0.2,4.7,0.8,9.7,1.1,14.6C185.9,52.1,185.9,52.2,185.9,52.4z"
				/>
			<path d="M230.2,99.8c-2.6,3.1-4.7-5.8-5.1-9.3c-0.1,0.6-0.1,1.2-0.1,1.8c0.1,2.2,2.3,13.8,5.2,10.3c2-2.3,2.2-6.3,2.1-10
				C232.1,95.4,231.7,98.1,230.2,99.8z"/>
			<path d="M227.4,68c0.2,1.5,0.4,3,0.4,4.5c0.1-2.5,0-4.9-0.4-7.3c-0.1-1-0.3-1.9-0.4-2.9c-2.7,5.1-5.3,10.6-10.4,12.8
				c-4,1.7-8.7,1-12.8,2.5c-0.8,0.2-1.5,0.7-2.1,1.3c-0.6,0.9-1,2-1,3.1c-1.3,7.5-5.9,14-11.4,19.1c-3.3,3.7-8.1,5.6-13,5.2
				c-3.1,0-6.2-0.2-9.3-0.7c-0.5-0.1-0.9-0.2-1.4-0.4c-0.4,0.5-0.9,1-1.4,1.4c0.2,1.2,1.6,1.6,2.7,1.8c3.1,0.5,6.2,0.7,9.3,0.7
				c4.9,0.4,9.7-1.5,13-5.2c5.5-5.2,10.2-11.7,11.4-19.1c0-1.1,0.4-2.2,1-3.1c0.6-0.6,1.3-1,2.1-1.3c4.1-1.4,8.8-0.7,12.8-2.5
				c5.2-2.3,7.7-7.7,10.4-12.8C227.1,66.1,227.3,67.1,227.4,68z"/>
			<path d="M260.6,43.3c-0.3,1.4-0.7,3.3-2,4.3c-2.1,1.6-2.5-0.2-3.3-1.9c-2.1-4.3-7.5-2.2-11.4-0.1l-2.1,2.7
				c-1,1.1-1.8,2.4-2.4,3.7c-0.4,1.1-0.7,2.2-1,3.3c-0.5,1.9-1.3,3.8-2.1,5.6c-2.9,7.5-4.3,15.5-4.3,23.5c0,0.4,0,0.8,0,1.2
				c0.2-7.5,1.7-14.8,4.3-21.8c0.7-1.9,1.5-3.7,2.1-5.6c0.3-1.1,0.6-2.2,1-3.3c0.6-1.3,1.4-2.6,2.4-3.7l2.1-2.7
				c3.9-2.1,9.3-4.2,11.4,0.1c0.8,1.7,1.2,3.5,3.3,1.9c1.2-1,1.6-2.8,2-4.3c0.9-3.3,1.2-6.8,1.1-10.2
				C261.5,38.5,261.1,40.9,260.6,43.3z"/>
		</g>
		<path class="st11" d="M286.4,150.9l0.6,0.4c-1.1-0.7-1.3-2.2-0.6-3.3l0,0l26.3-38.2c0.7-1.1,2.2-1.3,3.3-0.6l-0.6-0.4
			c1.7,1.2,2.2,3.5,1,5.2l0,0l-24.8,35.8C290.5,151.6,288.1,152.1,286.4,150.9L286.4,150.9z"/>
		<path class="st20" d="M315.5,108.9l0.6,0.4l0,0l-29,42.1l0,0l-0.6-0.4c-0.8-0.5-1-1.6-0.4-2.4l27-39.2
			C313.6,108.5,314.7,108.3,315.5,108.9z"/>
		<path class="st11" d="M312.3,114.7l0.1,0.1c0.1,0.1,0.1,0.2,0,0.2l-2.2,3.2c-0.1,0.1-0.2,0.1-0.2,0l-0.1-0.1
			c-0.1-0.1-0.1-0.2,0-0.2l2.2-3.2C312.1,114.6,312.3,114.6,312.3,114.7z"/>
	</g>
	
		<linearGradient id="SVGID_2_" gradientUnits="userSpaceOnUse" x1="493.1893" y1="755.8" x2="493.1893" y2="199.0999" gradientTransform="matrix(1 0 0 1 -39.48 95.9)">
		<stop  offset="0" style="stop-color:#808080;stop-opacity:0.25"/>
		<stop  offset="0.54" style="stop-color:#808080;stop-opacity:0.12"/>
		<stop  offset="1" style="stop-color:#808080;stop-opacity:0.1"/>
	</linearGradient>
	<path class="st21" d="M814.2,759.6l-8-25.5c0,0-6.7-18.1-5.6-27.8s-2.3-20.3-2.3-20.3l6.6-34.3c0,0,0.4-3.7,0.3-8.7
		c0-8.2-1.2-19.7-6.8-22.7c-9.1-4.8-27.7-45.3-31.6-45.3s-16.4-2.6-16.4-7c0-0.2,0-0.3,0-0.5c0,0,0-0.1,0-0.2s-0.1-0.2-0.1-0.3
		l-0.1-0.2l-0.2-0.4l-0.1-0.1c-0.5-0.9-1.1-1.7-1.8-2.4c16.9-3.2,33.8-6.8,50.5-10.9H798l0.6-0.2c-2.2,0-4.4-0.2-6.7-0.5l-0.5,0.1
		c-24.6-3.4-46.8-22.6-52.8-47c-6.7-27,5-55.2,4.5-83c-0.4-17.6-5.6-34.8-15.1-49.6c-1.3-2-2.6-3.9-4.1-5.8
		c18.9-9.2,26.7-31.9,17.6-50.8c-0.9-1.8-1.8-3.4-2.9-5c-0.4-0.6-0.9-1.2-1.3-1.8c9.2,15.2,6.6,34.8-6.2,47.1
		c10.1-18.3,3.4-41.2-14.9-51.3c-18.3-10.1-41.2-3.4-51.3,14.9c-0.1,0.2-0.2,0.4-0.4,0.7c-0.8-0.4-1.6-0.7-2.4-1
		c5.2-14.1,18.2-23.8,33.1-24.7c-0.8,0-1.5-0.1-2.3-0.1c-15.2,0-28.9,9.2-34.8,23.3c-11.3-4.1-23.1-5.9-34.8-2.9
		c-2.2,0.5-4.3,1.3-6.3,2.2l0.5-0.4c-2.9,1.2-5.5,2.9-7.9,5c-3.5,3.2-5.9,7.4-8.9,11.1s-6.6,6.9-10.6,9.6c0.3-0.2,0.7-0.4,1-0.5
		c-13.4,9.5-31.6,12.2-46.9,6.1c-4.3-1.7-8.5-4.1-13-4.7c-3.5-0.4-7.1,0.1-10.3,1.5c0.1-0.1,0.3-0.2,0.4-0.3
		c-4.2,1.7-7.9,4.5-10.8,8.1c-5,6.2-7.5,14-9.3,21.7c-1.3,5.5-2,11.1-2,16.7c0.1,7.2,1.7,14.2,6,19.8c6.7,8.7,15.8,11,25.3,12.6
		c-0.3,1-0.5,1.9-0.8,2.9c-11.4,44.9,14.9,90.7,59.4,103.7l1.8,3.1l0.6,0.1c4.4,7.5,9.3,15.9,13.8,24c0.2,0.4,0.5,0.9,0.7,1.3
		l-8.5,4.4l0,0c-2.2,1.2-7.8,4.2-10.8,7.1c-0.9,0.8-1.6,1.7-2,2.8c-1.3,4.4-8.2,15.7-13,18.7s-8.7,17.8-8.2,25.7s-2.6,7-10.4,7.4
		s0,11.8,0,11.8l0.2,0.8c-0.4,0.6-0.8,1.3-1.2,2c-2,3.1-4.6,6.5-6.5,6.3c-3.5-0.3-5.6,8.2-5.4,9.5s-6.1,11.8-8.4,12.8
		s-12.5,3.2-9.7,12.9L510,693.9l-10,9.6c0,0-14.3-8.1-37.4,17c2.6-0.2,5.2,0,7.7,0.7l-0.7,0.3c-6.1,2.9-16.7,7.8-24.5,11l-41.6,1.3
		v-31c0,0-3.7-8.7-8,0l-1.1,31.3L304,737l16.9-18l0,0l0.2-0.2c3.7-3.9,5-9.5,3.3-14.7L253.8,482l0,0l-0.5-1.6
		c-1.4-4.5-5.3-7.7-10-8.4l-98.2-13.3l-0.7-0.1l-9,2.5c-4.7,1.3-7.5,6.1-6.2,10.9v0.1c2.3,8,6.1,21.1,11,37.5h-13.6l10.4,89.7
		l6.3,34.5c1.6,8.8,3.5,17.5,5.7,26.2c5.2,21,15.5,65.8,15.8,91.8l-76,82.9v16.8h485.5c0,0.1,0,0.1,0.1,0.2H811c0,0-2.6-4.6,3-11.1
		s2.8-32.4,2.8-32.4s-3.1-4.1,0.7-13.3S814.2,759.6,814.2,759.6z M211,740l-12.9,0.4l-12-78.1C195,690.9,203.7,718,211,740z
		 M543.2,787.5l-8.4-17.1c1.9,0.1,3.8-0.4,5.4-1.5c5.4-3.9,8.7-13.1,8.7-13.1l14.5-17.3l1.2-1.4c2.9,8.2,6.4,14.7,9.2,17.8
		c6.9,7.8,7.8,30.5,9.9,38.7s0.5,4.8,0,9.6c-0.1,1.2,0,2.3,0.3,3.5C574.5,796.5,560.9,787.2,543.2,787.5z"/>
	<polygon class="st22" points="93.8,835 179.2,742.5 518.2,731.6 577.4,851.6 93.8,851.6 	"/>
	<polygon class="st23" points="93.8,835 179.2,742.5 518.2,731.6 577.4,851.6 93.8,851.6 	"/>
	<path class="st22" d="M535.4,827.3v3.2c0,3.4-2.8,6.2-6.2,6.2H347c-3.5,0,0-6.9,0-6.9l-2.1-45.1c-0.2-3.5,2.2-6.7,5.6-7.6
		c10.1-2.6,17.1,1.5,17.1,1.5l112.9-2.9c2.3-0.1,4.7,0,7,0.3c8.3,1.1,15.8,5.5,20.7,12.3l25.9,35.2
		C535,824.6,535.4,825.9,535.4,827.3z"/>
	<path class="st24" d="M535.4,830.5L535.4,830.5c0,3.4-2.8,6.2-6.2,6.2H347c-3.5,0,0-6.9,0-6.9s10.1-4.9,25-4l133-2.9
		c0,0,15.7,0.4,24.9,1.4C533,824.6,535.4,827.3,535.4,830.5z"/>
	<polygon class="st25" points="483.7,783.5 369.4,783.5 372.5,818.3 505,816 	"/>
	<path class="st22" d="M289.8,808v12L170,824.9c0,0-27.4-1.9-30.8-18.7c-0.3-1.8-0.2-3.6,0.1-5.3c1.2-7.1,7.3-19.5,34.1-25.2l33-3.4
		H280C280,772.3,289.5,781.8,289.8,808z"/>
	<path class="st24" d="M289.8,808.4V820L170,824.9c0,0-27.4-1.9-30.8-18.7c-0.3-1.8-0.2-3.6,0.1-5.3c0,0,16.6,15.7,39,13.4
		l105.4-4.6C285.8,809.3,287.8,808.9,289.8,808.4z"/>
	
		<ellipse transform="matrix(0.9987 -5.146061e-02 5.146061e-02 0.9987 -40.3877 11.2257)" class="st24" cx="197.8" cy="789.9" rx="36.8" ry="6.3"/>
	<path class="st22" d="M209.5,786.9l-19.4,9.6l-20.6-4.9l-0.1-33.6c1.3-24.5-10-73.6-15.6-95.9c-2.2-8.6-4-17.3-5.6-26l-6.3-34.2
		l-10.3-88.7h24.6l14.4,20.7L209.5,786.9z"/>
	<path class="st22" d="M209.5,786.9l-19.4,9.6l-12.4-71.8c0.2-12.2-15.1-70.3-16.1-72.7C149.5,622.9,139,513.3,139,513.3h17.1
		l14.4,20.6L209.5,786.9z"/>
	<path class="st26" d="M209.5,786.9l-19.4,9.6l-12.4-71.8c0.2-12.2-15.1-70.3-16.1-72.7C149.5,622.9,139,513.3,139,513.3h17.1
		l14.4,20.6L209.5,786.9z"/>
	<path class="st22" d="M325,720.3l-66,69.5l-7.7,0.5l-9.4,0.7c-4.5,0.3-8.7-2.2-10.5-6.3c-20-45-83.9-262.6-97.4-308.7
		c-1.4-4.6,1.3-9.5,5.9-10.8c0.1,0,0.1,0,0.2-0.1l9-2.4l0.7,0.1l96.2,12.9c5.6,0.8,10.3,4.7,12,10.1l70.4,219.9
		C330,710.9,328.7,716.4,325,720.3z"/>
	<path class="st24" d="M325,720.3l-66,69.5l-7.7,0.5l-9.4,0.7c-4.5,0.3-8.7-2.2-10.5-6.3c-20-45-83.9-262.6-97.4-308.7
		c-1.4-4.6,1.3-9.5,5.9-10.8c0.1,0,0.1,0,0.2-0.1l9-2.4l0.7,0.1l96.2,12.9c5.6,0.8,10.3,4.7,12,10.1l70.4,219.9
		C330,710.9,328.7,716.4,325,720.3z"/>
	<path class="st22" d="M324.8,720.6L259,789.9l-7.7,0.5l-98.7-316c-1.7-3.6-2.6-7.6-2.8-11.5l97.8,13.1c4.6,0.6,8.5,3.9,9.9,8.3
		l70.8,221.1C330,710.8,328.6,716.5,324.8,720.6z"/>
	<path class="st25" d="M320,708.9c-0.7,1.2-1.6,2.3-2.7,3.3l-64.7,60.2l-88.3-292.8l84.8,8.4c6,0.6,11.1,4.8,12.8,10.5L321.5,697
		C322.7,701,322.1,705.3,320,708.9z"/>
	<path class="st24" d="M320,708.9L249.1,488c6,0.6,11.1,4.8,12.8,10.5L321.5,697C322.7,701,322.1,705.3,320,708.9z"/>
	<circle class="st27" cx="700.3" cy="344.1" r="37.5"/>
	<path class="st27" d="M662.3,338.6c0-19.9,15.5-36.3,35.3-37.5c-0.7,0-1.5-0.1-2.2-0.1c-20.7-0.3-37.8,16.2-38.2,36.9
		s16.2,37.8,36.9,38.2c0.4,0,0.8,0,1.2,0c0.8,0,1.5,0,2.2-0.1C677.8,374.9,662.3,358.4,662.3,338.6z"/>
	<path class="st24" d="M667.2,344.1c0-19.9,15.5-36.3,35.3-37.5c-0.7,0-1.5-0.1-2.2-0.1c-20.7,0.3-37.3,17.4-36.9,38.2
		c0.3,20.3,16.7,36.6,36.9,36.9c0.8,0,1.5,0,2.2-0.1C682.7,380.5,667.2,364,667.2,344.1z"/>
	<path class="st28" d="M507,765.2c-3.5,1.9-7.1,3.5-10.8,4.9c-9.7,3.8-24.4,8.2-38.1,6.5c-23-2.8-36.8,4.7-36.8,4.7l-5.2-38.3
		c0,0,17-5,23.9-6.3c5.2-1,23.9-9.6,32.8-13.8c3-1.4,4.9-2.3,4.9-2.3h17.2L507,765.2z"/>
	<path class="st24" d="M507,765.2c-3.5,1.9-7.1,3.5-10.8,4.9c-1.2-34.2-14.3-44.3-23.3-47.2c3-1.4,4.9-2.3,4.9-2.3H495L507,765.2z"
		/>
	<path class="st29" d="M570.8,650.6v84l-4.5,5.3L551.8,757c0,0-3.2,9-8.6,12.9s-17.7-1.3-17.7-1.3l-3.5,5.6c0,0-7.8,1.5-11.4,0
		c-3.7-1.5-12.7,4.3-12.7,4.3c1.3-61.6-32.1-56.7-32.1-56.7c23.1-24.8,37.3-16.8,37.3-16.8l9.9-9.5l12.3-12.4
		c-2.8-9.6,7.3-11.7,9.7-12.8s8.6-11.4,8.4-12.7s1.9-9.7,5.4-9.4c1.9,0.2,4.5-3.2,6.5-6.2c1.6-2.4,2.7-4.7,2.7-4.7L570.8,650.6z"/>
	<path class="st29" d="M600.6,566.6l25.4-13l-1.4,15.2l5,15.3c0,0-4.6,11.8-5.2,13.1s-11.5,28.3-11.5,28.3l-8.8-11.1L600.6,566.6z"
		/>
	<polyline class="st24" points="604.2,614.5 600.6,566.6 626,553.6 	"/>
	<path class="st28" d="M709.8,552.3c0,0-8.4,12.1-20,27.6c-26.9,36-70.7,90-64,50.8c0.2-1.3,0.4-2.6,0.5-3.8
		c-1.6,1.1-5.4,0.1-9.5-1.8l-0.3-0.1c-2-1-4-2.1-5.8-3.4c-0.2-0.1-0.4-0.3-0.6-0.4c-4.5-3.2-8.2-6.9-8-9.4
		c3.2-56.2,16.3-29.4,20-23.2c0.2,0.4,0.5,0.8,0.8,1.2c-0.2-0.4-0.3-0.9-0.5-1.4c-2.6-6.3-7.5-15.8-13.1-25.9v-0.1l-0.8-1.3
		c-4.7-8.3-9.8-17.1-14.3-24.7l-1.2-2.1c-7.2-12.1-12.8-21.1-12.8-21.1s32.7-29.9,60.3-48.1c23-15.2,42.5-22.2,36.3,3.3
		c-4,16.4-2.8,30.4,0.9,42c0.1,0.4,0.3,0.9,0.4,1.3c0.7,2.2,1.6,4.4,2.6,6.5c1.3,2.9,2.8,5.8,4.5,8.5
		C691.3,536.9,699.7,545.6,709.8,552.3z"/>
	<path class="st26" d="M658.9,506.9c-15.5,16.9-18.8,33-43.5,33c-7.2,0-14.3-0.9-21.3-2.7c-7.8-13.1-14-23.2-14-23.2
		s110.2-100.8,96.5-44.8C672.4,486.1,654.9,495,658.9,506.9z"/>
	<path class="st28" d="M700.3,452.3c0,46.9-38,84.9-84.9,84.9s-84.9-38-84.9-84.9s38-84.9,84.9-84.9l0,0
		c46.7-0.2,84.7,37.5,84.9,84.1C700.3,451.8,700.3,452.1,700.3,452.3z"/>
	<path class="st24" d="M613.4,599.3c0,0,1.5,24.1,16.8,22.2s3.7,51.3,3.7,51.3l-17,15.5l-18.3,5.6c0,0-16.2-4.7-15.9-5.6
		s6.5-51.3,6.5-51.3l9.5-26.9L613.4,599.3z"/>
	<path class="st22" d="M613.4,601c0,0,1.5,24.1,16.8,22.2s3.7,51.3,3.7,51.3l-17,15.5l-18.3,5.6c0,0-16.2-4.7-15.9-5.6
		s6.5-51.3,6.5-51.3l9.5-26.9L613.4,601z"/>
	<path class="st24" d="M570.8,650.6v84l-4.5,5.3c-4.7-12.3-8.2-29.1-6-44.1c2.8-19.9-2.8-45.5-4.9-53.7c1.6-2.4,2.7-4.7,2.7-4.7
		L570.8,650.6z"/>
	<path class="st24" d="M615.4,603.6c-0.5,4.7-1.8,9.4-3.7,13.7c-0.6,1.3-1.1,2.6-1.7,3.8c-4.5-3.2-8.2-6.9-8-9.4
		c3.2-56.2,16.3-29.4,20-23.2C620.2,589.9,616.2,593.9,615.4,603.6z"/>
	<path class="st24" d="M622.3,588.3c-2.7-6.6-8-16.7-13.9-27.3l0.8-0.4l13.7,27.4C622.7,588.1,622.5,588.2,622.3,588.3z"/>
	<path class="st24" d="M709.8,552.3c0,0-93.5,134.5-84,78.4c0.2-1.3,0.4-2.6,0.5-3.8c-1.7,1.1-5.6,0.1-9.8-1.9c0.6-3.7,1-6.3,1-6.3
		l10.3-29.3c0,0,6-23.3,5.2-28l0.3-0.2l51.5-34.5l0,0l0,0C691.1,536.9,699.7,545.7,709.8,552.3z"/>
	<path class="st29" d="M806.7,654l-7.3,37.9l-22,159.9H586.5c0,0,3.4-28,3.4-32.3s-3.9-10.8-3.4-15.5s2.1-1.3,0-9.5
		s-3-30.6-9.9-38.3s-18.1-36.2-14.7-60.3s-5.6-56.5-5.6-56.5s-7.8-11.2,0-11.6s10.8,0.4,10.3-7.3s3.4-22.4,8.2-25.4
		s11.6-14.2,12.9-18.5c0.4-1.1,1.1-2,2-2.8c3.9-3.7,11.8-7.5,11.8-7.5l7.5-3.8v0.1l13.7,27.3c0,0-6.4,3.1-7.5,15.6
		c-0.5,4.7-1.8,9.4-3.7,13.7c-0.4,0.9-0.7,1.7-1.1,2.5c-1.1,2.4-2.2,4.6-3.2,6.3l0,0c-1.4,2.5-2.4,4.1-2.4,4.1s-0.4,2.9-0.9,7l0,0
		c-1.2,8.4-3.1,21.7-4.2,24.8c-1,2.8-3,7.7-4.1,12c-0.7,2.7-1.1,5.2-0.7,6.9c0,0.1,0.1,0.3,0.1,0.4c1.3,4,7.8-13.2,7.8-13.2
		s4.7-14.7,6.9-14.7c1.7,0,5.4-20.7,7-30.2c0.5-2.8,0.8-4.7,0.8-4.7l10.3-29.3c0,0,1.4-5.5,2.8-11.8c1.4-6.5,2.8-13.8,2.4-16.3
		l0.3-0.2l51.5-34.5l0,0l0.8-0.5h-0.1c-0.4,0-1.4-0.6-3.4-5.3c-0.5-1.2-1.1-2.6-1.7-4.4c0,0,16.5-6.6,22.3-1.8
		c0.4,0.3,0.7,0.7,1,1.1c0.2,0.2,0.3,0.5,0.4,0.7c3.9,8,5.6,14,9.5,19.2c0.4,0.6,0.9,1.1,1.4,1.6c4.7,4.9,14,10.7,12.4,12.2
		c-1.7,1.7,12.9,9,12.9,9s8.6,4.9,11.3,9c0.5,0.6,0.7,1.4,0.8,2.2c0,4.3,12.5,6.9,16.4,6.9s22.4,40.1,31.5,44.8S806.7,654,806.7,654
		z"/>
	<g class="st30">
		<path d="M613.4,589.7c0,0-6.4,3.1-7.5,15.6c-0.5,4.7-1.8,9.4-3.7,13.7c-1.3,3-2.7,6-4.3,8.8l0,0c-1.4,2.5-2.4,4.1-2.4,4.1
			s-0.4,2.9-0.9,7l0,0c-1.1,8.5-3.1,21.7-4.3,24.9c-1,2.8-3,7.7-4.1,12c-0.7,2.7-1.1,5.2-0.7,6.9c0,0.1,0.1,0.3,0.1,0.4
			c1.3,4,7.8-13.2,7.8-13.2s4.7-14.7,6.9-14.7c0.6,0,1.5-2.9,2.5-6.9c0.5-3.3,1-6.5,1.3-9.3l0,0c0.6-4.1,0.9-7,0.9-7
			s0.6-0.9,1.5-2.4c0.9-5.3,1.6-9.3,1.6-9.3l10.3-29.3c0,0,0.8-2.9,1.7-6.9l-11-21.9l-7.5,3.8l0,0L613.4,589.7z"/>
		<path d="M800.2,623c-9-4.7-27.6-44.8-31.5-44.8s-16.4-2.6-16.4-6.9s-12.1-11.2-12.1-11.2s-14.7-7.3-12.9-9
			c1.5-1.6-7.7-7.3-12.4-12.2c-0.5-0.5-0.9-1-1.4-1.6c-3.9-5.2-5.6-11.2-9.5-19.2c-0.1-0.3-0.3-0.5-0.4-0.7c-0.3-0.4-0.6-0.7-1-1.1
			c-2.6-2.2-7.4-2-11.9-1.2c0.9,0.3,1.7,0.7,2.4,1.2c0.4,0.3,0.7,0.7,1,1.1c0.2,0.2,0.3,0.5,0.4,0.7c3.9,8,5.6,14,9.5,19.2
			c0.4,0.5,0.9,1,1.4,1.5c4.7,4.9,14,10.7,12.4,12.2c-1.7,1.7,12.9,9,12.9,9s12.1,6.9,12.1,11.2s12.5,6.9,16.4,6.9
			s22.4,40.1,31.5,44.8s6.5,31,6.5,31l-7.3,38l-22,159.9h9.5l22-159.9l7.3-37.9C806.7,654,809.3,627.7,800.2,623z"/>
	</g>
	<path class="st28" d="M423.9,743.8c0,0-54.8-15.9-58.7,8.5s22.4,38.3,39.2,37.9s24.1-16.4,24.1-16.4L423.9,743.8z"/>
	<path class="st28" d="M698.8,818.6c0,0-12.3,8.8-38.3,8.8S604,833,604,833s-38.8-91.3-116.6-13.1c0,0-14,18.1,58.6,20
		c0,0,25.6-0.9,31.2,11.8h145l19.8-14.8L698.8,818.6z"/>
	<path class="st22" d="M407,704.4c0,0-3.7-8.6-8,0l-2.4,66.8l5.2,15.7l5.2-14L407,704.4z"/>
	<path class="st24" d="M703.7,517.3c-7.5,2.6-15.8,8.6-18.2,10.4c-0.5,0-2-1-5.1-9.7C680.4,518.1,699,510.6,703.7,517.3z"/>
	<path class="st29" d="M622.9,589.7c0,0-6.4,3.1-7.5,15.6c-0.5,4.7-1.8,9.4-3.7,13.7l-4.2,8.9l0,0l-3.3,11.1l0,0l0.3,22.7l-8.8,14.2
		l-0.7,6.9l-2.3,21.2l-11.6-5.6c0,0,4.8-34.2,8.4-41.2s8.4-43.6,8.4-43.6s-0.2-13.5,1.5-15.8s-3-1.9-3.5-6.9
		c-0.3-2.9-3.5-11.1-6.2-17.3c3.9-3.7,11.8-7.5,11.8-7.5l7.5-3.8L622.9,589.7z"/>
	<path class="st24" d="M622.9,589.7c0,0-6.4,3.1-7.5,15.6c-0.5,4.7-1.8,9.4-3.7,13.7l-4.2,8.9l0,0l-3.3,11.1l0,0l0.3,22.7l-8.8,14.2
		l-0.7,6.9l-2.3,21.2l-11.6-5.6c0,0,4.8-34.2,8.4-41.2s8.4-43.6,8.4-43.6s-0.2-13.5,1.5-15.8s-3-1.9-3.5-6.9
		c-0.3-2.9-3.5-11.1-6.2-17.3c3.9-3.7,11.8-7.5,11.8-7.5l7.5-3.8L622.9,589.7z"/>
	<path class="st24" d="M715,540.5c-9.6,7.9-35.5,30.2-38.4,45.3c-3.7,18.7-14.7,16.9-14.7,16.9c-13.7-29.8-23.2-37.1-28.6-38.1
		l51.5-34.6l0,0l0.8-0.5h-0.1c-0.4,0-1.4-0.6-3.4-5.3l20.6-6.2c0.4,0.3,0.7,0.7,1,1.1c0.2,0.2,0.3,0.5,0.4,0.7
		c3.9,8,5.6,14,9.5,19.2C714.1,539.5,714.5,540,715,540.5z"/>
	<path class="st29" d="M715,538.8c-9.6,7.9-35.5,30.2-38.4,45.3c-3.7,18.7-14.7,16.9-14.7,16.9c-13.7-29.8-23.2-37.1-28.6-38.1
		l51.5-34.5l0,0l0.8-0.5h-0.1c-0.4,0-1.4-0.6-3.4-5.3l20.6-6.2c0.4,0.3,0.7,0.7,1,1.1c0.2,0.2,0.3,0.5,0.4,0.7
		c3.9,8,5.6,14,9.5,19.2C714.1,537.8,714.5,538.3,715,538.8z"/>
	<path class="st24" d="M656.8,689.8c0.6-0.2,34.2-19.2,30.4-4.8S656.8,689.8,656.8,689.8z"/>
	<path class="st24" d="M511.5,708c0,0,17.7,27.5,23.9,26.6S511.5,708,511.5,708z"/>
	<path class="st24" d="M533.5,697.8c0,0,1.1,21.3,10.3,22.8S533.5,697.8,533.5,697.8z"/>
	<path class="st24" d="M631.5,766.3c0,0,21.9,36.5,17.7,49.1L631.5,766.3z"/>
	<path class="st24" d="M657,770.6c0,0,29.7,39,24.5,42.2S657,770.6,657,770.6z"/>
	<path class="st24" d="M590.2,708c0,0-3,27.7,8.4,35.8L590.2,708z"/>
	<path class="st24" d="M723.3,584.6c0,0-50.8,39.4-42.7,80.4s16,44,16,44s3,16.4,8.6,23.3s4.7,11.4,4.7,11.4s5.2-2.4,6.9,9.5
		s10.8,20.3,10.8,20.3s3,9.5-4.7,14.7s-6,10.8-6,10.8l-31.5,18.3l35,34.7H811c0,0-2.6-4.5,3-11s2.8-32.1,2.8-32.1s-3.1-4.1,0.7-13.2
		s-3.3-34.9-3.3-34.9l-8-25.2c0,0-6.7-17.9-5.6-27.5s-2.2-20.1-2.2-20.1L781,633.2C781.1,633.1,781.9,578.4,723.3,584.6z"/>
	<path class="st29" d="M725.1,584.6c0,0-50.8,39.4-42.7,80.4s15.9,44,15.9,44s3,16.4,8.6,23.3s4.7,11.4,4.7,11.4s5.2-2.4,6.9,9.5
		s10.8,20.3,10.8,20.3s3,9.5-4.7,14.7s-6,10.8-6,10.8l-31.5,18.3l35.1,34.7h90.5c0,0-2.6-4.5,3-11s2.8-32.1,2.8-32.1
		s-3.1-4.1,0.7-13.2s-3.3-34.9-3.3-34.9l-8-25.2c0,0-6.7-17.9-5.6-27.5s-2.2-20.1-2.2-20.1l-17.4-54.8
		C782.8,633.1,783.7,578.4,725.1,584.6z"/>
	<path class="st24" d="M742.1,612.4c0,0,36.2,12.3,45.9,18.3S773.7,606.8,742.1,612.4z"/>
	<path class="st24" d="M761,798.8c0,0,51.5,6.5,48.5,16.6S761,798.8,761,798.8z"/>
	<path class="st24" d="M750.9,809.8c0,0,37.7,12.1,31,22S750.9,809.8,750.9,809.8z"/>
	<path class="st24" d="M751.6,569.1c-20.5,4-41.2,7.4-61.9,10.8l-5.4,0.9c-11.4,1.9-22.8,3.8-34.3,3.7c-5.6,0-11.4-0.6-16.4-3.2
		c-1.1-0.6-2.1-1.2-3-2c-3.5-2.8-6-6.9-5.9-11.3c0.1-8.1,7.7-13.7,14.3-18.3c9.6-6.8,19.1-15.5,22.9-26.4c0.7-2,1.2-4.2,1.5-6.3
		c1.1-9.3-2.3-18.4-5.9-27c-3.9-9.4-9.3-19.4-17.2-25.1c-3.2-2.3-6.9-3.8-10.8-4.4c-12.1-1.6-23.5,7-35.7,6.5
		c-9.9-0.4-18.3-6.8-24.2-14.3c-4.3-5.4-7.1-12.7-13.6-16c-7.1-3.5-15.1-4.3-22.9-5.5c11.6-45.4,57.8-72.9,103.2-61.3
		s72.9,57.8,61.3,103.2c-3.5,13.8-10.5,26.6-20.2,37c0.1,0.4,0.3,0.9,0.4,1.3c0.7,2.2,1.6,4.4,2.6,6.5c0,0,16.5-6.6,22.3-1.8
		c0.4,0.3,0.7,0.7,1,1.1c0.2,0.2,0.3,0.5,0.4,0.7c3.9,8,5.6,14,9.5,19.2c0.4,0.6,0.9,1.1,1.4,1.6c4.7,4.9,14,10.7,12.4,12.2
		c-1.7,1.7,12.9,9,12.9,9S748.9,565,751.6,569.1z"/>
	<path class="st27" d="M508.7,416.1c-7.7-9.9-6.8-23.8-4-36c1.8-7.7,4.3-15.4,9.3-21.5s12.8-10.4,20.6-9.3c4.6,0.6,8.7,3,13,4.6
		c19.3,7.6,43.2,1.3,56.2-14.9c2.9-3.7,5.4-7.8,8.8-11c3.9-3.4,8.6-5.7,13.6-6.9c21.7-5.5,44.1,5.3,62.7,17.8
		c15.9,10.7,30.9,23.1,41.3,39.2c9.5,14.6,14.7,31.6,15,49.1c0.5,27.6-11.1,55.4-4.5,82.2c6.6,26.5,32.4,46.8,59.7,47
		c-37.4,9.2-75.5,15.5-113.5,21.7c-11.4,1.9-22.8,3.8-34.3,3.7c-5.6,0-11.4-0.6-16.4-3.2s-9-7.7-9-13.3c0.1-8.1,7.7-13.7,14.3-18.3
		c11.4-8.1,22.7-18.8,24.3-32.7c1.1-9.3-2.3-18.4-5.9-27c-5.5-13.1-13.9-27.6-27.9-29.5c-12.1-1.6-23.5,7-35.7,6.5
		c-9.9-0.4-18.3-6.8-24.2-14.3c-4.3-5.4-7.1-12.7-13.6-16C542.5,426.3,521.2,432.3,508.7,416.1z"/>
	<path class="st27" d="M728.8,365.8c16.3-11.3,21-33.4,10.7-50.4c0.5,0.6,0.9,1.2,1.3,1.8c12.1,16.9,8.2,40.3-8.6,52.4
		c-16.9,12.1-40.3,8.2-52.4-8.6c-0.2-0.3-0.4-0.6-0.7-0.9c-0.4-0.6-0.8-1.3-1.2-1.9C690.1,373.7,712.4,377.1,728.8,365.8z"/>
	<g class="st30">
		<path d="M609.8,335.4c2.9-3.7,5.4-7.8,8.8-11c0.6-0.5,1.2-1,1.8-1.5c-2.9,1.2-5.5,2.8-7.8,4.9c-3.5,3.2-5.9,7.3-8.8,11
			c-3,3.7-6.5,6.9-10.5,9.5C599.6,345.3,605.3,340.9,609.8,335.4z"/>
		<path d="M693,574.6c-11.4,1.9-22.8,3.8-34.3,3.7c-5.6,0-11.4-0.6-16.4-3.2s-9-7.7-9-13.3c0.1-8.1,7.7-13.6,14.3-18.3
			c11.4-8.1,22.7-18.8,24.3-32.7c1.1-9.2-2.3-18.4-5.9-27c-5.5-13.1-13.8-27.6-27.9-29.5c-12.1-1.6-23.5,7-35.7,6.5
			c-9.9-0.4-18.3-6.8-24.2-14.2c-4.3-5.4-7.1-12.7-13.6-16c-16.2-8-37.4-2-50-18.2c-7.7-9.9-6.8-23.9-4-36
			c1.8-7.7,4.3-15.4,9.3-21.5c1.4-1.7,3-3.2,4.7-4.6c-4.2,1.7-7.9,4.5-10.8,8c-5,6.1-7.5,13.8-9.3,21.5c-2.8,12.2-3.7,26.1,4,36
			c12.6,16.2,33.8,10.2,50,18.2c6.5,3.2,9.3,10.5,13.6,16c6,7.5,14.4,13.8,24.2,14.2c12.2,0.5,23.6-8.1,35.7-6.5
			c14.1,1.9,22.5,16.4,27.9,29.5c3.6,8.6,7,17.7,5.9,27c-1.7,13.9-12.9,24.6-24.3,32.7c-6.6,4.7-14.2,10.3-14.3,18.3
			c0,5.6,4,10.7,9,13.3s10.8,3.1,16.4,3.2c11.5,0.1,23-1.8,34.3-3.7c38-6.3,76.1-12.5,113.5-21.7c-2.2,0-4.4-0.2-6.6-0.5
			C760.5,563.5,726.7,569,693,574.6z"/>
	</g>
	<ellipse class="st28" cx="410.7" cy="755.5" rx="16.4" ry="9"/>
	<path class="st31" d="M681.7,89.1c-18.3-4.9-36.7-9.8-55.6-10.5s-38.5,2.9-53.9,13.8c-7.7,5.5-14.1,12.5-20.6,19.4
		c-34.5,36.5-72.9,69-114.7,96.9c-16.8,11.2-34.8,21.9-54.8,24.7s-42.7-4.1-53-21.5l6.2-3.2"/>
	<path class="st22" d="M842.8,62.8H713.6c-5.1,0-9.2-4.1-9.2-9.2V35.2c0-5.1,4.1-9.2,9.2-9.2l0,0h129.2c5.1,0,9.2,4.1,9.2,9.2v18.5
		C852,58.7,847.9,62.8,842.8,62.8z M829,37.5c-3.8,0-6.9,3.1-6.9,6.9c0,3.8,3.1,6.9,6.9,6.9c3.8,0,6.9-3.1,6.9-6.9
		S832.8,37.5,829,37.5L829,37.5z M810.5,37.5c-3.8,0-6.9,3.1-6.9,6.9c0,3.8,3.1,6.9,6.9,6.9c3.8,0,6.9-3.1,6.9-6.9l0,0
		C817.4,40.6,814.3,37.5,810.5,37.5L810.5,37.5z M842.8,109H713.6c-5.1,0-9.2-4.1-9.2-9.2V81.3c0-5.1,4.1-9.2,9.2-9.2h129.2
		c5.1,0,9.2,4.1,9.2,9.2v18.5C852,104.9,847.9,109,842.8,109z M829,83.6c-3.8,0-6.9,3.1-6.9,6.9s3.1,6.9,6.9,6.9s6.9-3.1,6.9-6.9
		l0,0C835.9,86.7,832.8,83.6,829,83.6L829,83.6z M810.5,83.6c-3.8,0-6.9,3.1-6.9,6.9s3.1,6.9,6.9,6.9s6.9-3.1,6.9-6.9l0,0
		C817.4,86.7,814.3,83.6,810.5,83.6L810.5,83.6z M842.8,155.1H713.6c-5.1,0-9.2-4.1-9.2-9.2v-18.5c0-5.1,4.1-9.2,9.2-9.2h129.2
		c5.1,0,9.2,4.1,9.2,9.2v18.4C852.1,151,847.9,155.1,842.8,155.1L842.8,155.1z M829,129.8c-3.8,0-6.9,3.1-6.9,6.9s3.1,6.9,6.9,6.9
		s6.9-3.1,6.9-6.9l0,0C835.9,132.9,832.8,129.8,829,129.8L829,129.8z M810.5,129.8c-3.8,0-6.9,3.1-6.9,6.9c0,3.8,3.1,6.9,6.9,6.9
		s6.9-3.1,6.9-6.9l0,0C817.4,132.9,814.3,129.8,810.5,129.8L810.5,129.8z"/>
	<path class="st31" d="M863.7,87.6c8.3-0.9,17.2-0.6,24.3,3.7c7.5,4.6,11.9,13.3,13.3,22s0.4,17.6-0.6,26.4l-5.6,47.4
		c-0.8,6.6-1.5,13.5,0.6,19.9s8.1,11.9,14.8,11.3"/>
	<path class="st31" d="M322.1,489.6c21.4,0.5,45.4,0,60.2-15.4c11.2-11.7,13.8-28.9,17.6-44.7c6.8-28.5,19.2-55.9,38-78.3
		s44.2-39.8,72.6-46.7c22.8-5.6,46.9-4.6,69.8-9.6s46.5-18.7,52.9-41.3"/>
	<path class="st32" d="M680,203.9l-57.6,21c-0.6,0.2-0.9,0.9-0.7,1.5c0.1,0.2,0.2,0.4,0.4,0.5l8.6,4.8c0.5,0.3,0.8,0.8,1,1.3
		l4.9,15.6c0,0.7,1.2,1,1.3,0.4l0.7-12.2c0.2-0.9,0.7-1.7,1.3-2.3l31.7-23c0.2-0.1,0.4-0.2,0.6-0.1c0.3,0.1,0.5,0.5,0.4,0.8
		c0,0.1-0.1,0.2-0.2,0.2l-28.2,25.7c-0.6,0.6-1.1,1.4-1.3,2.3l-3,10.2c0,0.9,0.6,1.4,1.3,0.6l6-5.3c0.4-0.4,1.1-0.4,1.5,0l0,0
		l11.8,11.6c0.4,0.4,1.1,0.4,1.5,0c0.1-0.1,0.2-0.3,0.3-0.4l18.7-51.7c0.2-0.6,0-1.2-0.6-1.4C680.4,203.9,680.2,203.9,680,203.9
		L680,203.9z"/>
</g>
<g id="Layer_2_1_">
	<g class="st0">
		<g class="st33">
			
				<linearGradient id="SVGID_3_" gradientUnits="userSpaceOnUse" x1="2024.24" y1="475.05" x2="2309.4399" y2="475.05" gradientTransform="matrix(-1 0 0 -1 2651.04 912)">
				<stop  offset="0" style="stop-color:#FFFFFF"/>
				<stop  offset="1" style="stop-color:#413E66"/>
			</linearGradient>
			<polygon class="st34" points="342.1,456.8 626.3,456.8 626.3,417.1 357.1,417.1 357.1,419.8 623.6,419.8 623.6,454.1 
				344.7,454.1 344.7,432 342.1,432 			"/>
		</g>
		<g class="st33">
			
				<linearGradient id="SVGID_4_" gradientUnits="userSpaceOnUse" x1="2292.1401" y1="493.55" x2="2323.1401" y2="493.55" gradientTransform="matrix(-1 0 0 -1 2651.04 912)">
				<stop  offset="0" style="stop-color:#FFFFFF"/>
				<stop  offset="1" style="stop-color:#413E66"/>
			</linearGradient>
			<path class="st35" d="M328.4,403.6h30v29.7h-30V403.6z M355.7,406.2H331v24.5h24.7V406.2z"/>
		</g>
		<g class="st33">
			<g>
				
					<linearGradient id="SVGID_5_" gradientUnits="userSpaceOnUse" x1="2018.4187" y1="1009.9629" x2="2030.2526" y2="1009.9629" gradientTransform="matrix(-0.7071 0.7071 -0.7071 -0.7071 2488.9561 -298.8185)">
					<stop  offset="0" style="stop-color:#FFFFFF"/>
					<stop  offset="1" style="stop-color:#413E66"/>
				</linearGradient>
				<polygon class="st36" points="338.2,421.7 346.8,413.3 348.7,415.1 340.1,423.6 				"/>
			</g>
			<g>
				
					<linearGradient id="SVGID_6_" gradientUnits="userSpaceOnUse" x1="2018.3292" y1="1009.9687" x2="2030.3433" y2="1009.9687" gradientTransform="matrix(-0.7071 0.7071 -0.7071 -0.7071 2488.9558 -298.8179)">
					<stop  offset="0" style="stop-color:#FFFFFF"/>
					<stop  offset="1" style="stop-color:#413E66"/>
				</linearGradient>
				<polygon class="st37" points="338.2,415.1 340.1,413.3 348.7,421.7 346.8,423.6 				"/>
			</g>
		</g>
		<g class="st33">
			<g>
				
					<linearGradient id="SVGID_7_" gradientUnits="userSpaceOnUse" x1="511.064" y1="312.0478" x2="753.1639" y2="312.0478" gradientTransform="matrix(1 0 0 1 -143.064 120.2522)">
					<stop  offset="0" style="stop-color:#FFFFFF"/>
					<stop  offset="1" style="stop-color:#413E66"/>
				</linearGradient>
				<rect x="368.5" y="429.8" class="st38" width="241.1" height="5"/>
			</g>
			<g>
				
					<linearGradient id="SVGID_8_" gradientUnits="userSpaceOnUse" x1="511.064" y1="302.4607" x2="753.1639" y2="302.4607" gradientTransform="matrix(1 0 0 1 -143.064 139.2393)">
					<stop  offset="0" style="stop-color:#FFFFFF"/>
					<stop  offset="1" style="stop-color:#413E66"/>
				</linearGradient>
				<rect x="368.5" y="439.2" class="st39" width="241.1" height="5"/>
			</g>
		</g>
	</g>
	<g class="st0">
		<g class="st33">
			
				<linearGradient id="SVGID_9_" gradientUnits="userSpaceOnUse" x1="2031.74" y1="445.7" x2="2316.9399" y2="445.7" gradientTransform="matrix(-1 0 0 -1 2651.04 912)">
				<stop  offset="0" style="stop-color:#FFFFFF"/>
				<stop  offset="1" style="stop-color:#413E66"/>
			</linearGradient>
			<polygon class="st40" points="334.6,486.1 618.8,486.1 618.8,446.5 349.7,446.5 349.7,449.1 616.2,449.1 616.2,483.5 
				337.3,483.5 337.3,461.4 334.6,461.4 			"/>
		</g>
		<g class="st33">
			
				<linearGradient id="SVGID_10_" gradientUnits="userSpaceOnUse" x1="2299.54" y1="464.25" x2="2330.54" y2="464.25" gradientTransform="matrix(-1 0 0 -1 2651.04 912)">
				<stop  offset="0" style="stop-color:#FFFFFF"/>
				<stop  offset="1" style="stop-color:#413E66"/>
			</linearGradient>
			<path class="st41" d="M321,432.9h30v29.7h-30V432.9z M348.3,435.6h-24.7v24.5h24.7V435.6z"/>
		</g>
		<g class="st33">
			<g>
				
					<linearGradient id="SVGID_11_" gradientUnits="userSpaceOnUse" x1="2025.6716" y1="980.5569" x2="2037.5056" y2="980.5569" gradientTransform="matrix(-0.7071 0.7071 -0.7071 -0.7071 2465.8535 -295.402)">
					<stop  offset="0" style="stop-color:#FFFFFF"/>
					<stop  offset="1" style="stop-color:#413E66"/>
				</linearGradient>
				<polygon class="st42" points="330.7,451.1 339.3,442.6 341.2,444.5 332.7,453 				"/>
			</g>
			<g>
				
					<linearGradient id="SVGID_12_" gradientUnits="userSpaceOnUse" x1="2025.5813" y1="980.5571" x2="2037.5952" y2="980.5571" gradientTransform="matrix(-0.7071 0.7071 -0.7071 -0.7071 2465.8545 -295.41)">
					<stop  offset="0" style="stop-color:#FFFFFF"/>
					<stop  offset="1" style="stop-color:#413E66"/>
				</linearGradient>
				<polygon class="st43" points="330.7,444.5 332.7,442.6 341.2,451.1 339.3,453 				"/>
			</g>
		</g>
		<g class="st33">
			<g>
				
					<linearGradient id="SVGID_13_" gradientUnits="userSpaceOnUse" x1="518.4381" y1="282.1679" x2="760.5381" y2="282.1679" gradientTransform="matrix(1 0 0 1 -157.9381 179.4321)">
					<stop  offset="0" style="stop-color:#FFFFFF"/>
					<stop  offset="1" style="stop-color:#413E66"/>
				</linearGradient>
				<rect x="361" y="459.1" class="st44" width="241.1" height="5"/>
			</g>
			<g>
				
					<linearGradient id="SVGID_14_" gradientUnits="userSpaceOnUse" x1="518.4381" y1="272.5811" x2="760.5381" y2="272.5811" gradientTransform="matrix(1 0 0 1 -157.9381 198.4189)">
					<stop  offset="0" style="stop-color:#FFFFFF"/>
					<stop  offset="1" style="stop-color:#413E66"/>
				</linearGradient>
				<rect x="361" y="468.5" class="st45" width="241.1" height="5"/>
			</g>
		</g>
	</g>
	<g>
		<g>
			
				<linearGradient id="SVGID_15_" gradientUnits="userSpaceOnUse" x1="938.2781" y1="1195.5647" x2="1197.9829" y2="1195.5647" gradientTransform="matrix(0.7071 -0.7071 -0.7071 -0.7071 876.1087 1833.9587)">
				<stop  offset="0" style="stop-color:#413E66"/>
				<stop  offset="0" style="stop-color:#45426D"/>
				<stop  offset="0" style="stop-color:#6160A0"/>
				<stop  offset="8.526373e-02" style="stop-color:#56548B"/>
				<stop  offset="0.1887" style="stop-color:#4C4A7A"/>
				<stop  offset="0.3176" style="stop-color:#46436F"/>
				<stop  offset="0.4983" style="stop-color:#423F68"/>
				<stop  offset="1" style="stop-color:#413E66"/>
			</linearGradient>
			<ellipse class="st46" cx="786" cy="233.3" rx="128.4" ry="127.3"/>
			
				<linearGradient id="SVGID_16_" gradientUnits="userSpaceOnUse" x1="783.9702" y1="678.7" x2="787.9702" y2="678.7" gradientTransform="matrix(1 0 0 -1 0 912)">
				<stop  offset="0" style="stop-color:#413E66"/>
				<stop  offset="0" style="stop-color:#45426D"/>
				<stop  offset="0" style="stop-color:#6160A0"/>
				<stop  offset="8.526373e-02" style="stop-color:#56548B"/>
				<stop  offset="0.1887" style="stop-color:#4C4A7A"/>
				<stop  offset="0.3176" style="stop-color:#46436F"/>
				<stop  offset="0.4983" style="stop-color:#423F68"/>
				<stop  offset="1" style="stop-color:#413E66"/>
			</linearGradient>
			<line class="st47" x1="786" y1="106" x2="786" y2="360.6"/>
			
				<linearGradient id="SVGID_17_" gradientUnits="userSpaceOnUse" x1="657.5" y1="678.7" x2="914.4" y2="678.7" gradientTransform="matrix(1 0 0 -1 0 912)">
				<stop  offset="0" style="stop-color:#413E66"/>
				<stop  offset="0" style="stop-color:#45426D"/>
				<stop  offset="0" style="stop-color:#6160A0"/>
				<stop  offset="8.526373e-02" style="stop-color:#56548B"/>
				<stop  offset="0.1887" style="stop-color:#4C4A7A"/>
				<stop  offset="0.3176" style="stop-color:#46436F"/>
				<stop  offset="0.4983" style="stop-color:#423F68"/>
				<stop  offset="1" style="stop-color:#413E66"/>
			</linearGradient>
			<line class="st48" x1="657.5" y1="233.3" x2="914.4" y2="233.3"/>
			
				<linearGradient id="SVGID_18_" gradientUnits="userSpaceOnUse" x1="686.6442" y1="748.7783" x2="885.3558" y2="748.7783" gradientTransform="matrix(1 0 0 -1 0 912)">
				<stop  offset="0" style="stop-color:#413E66"/>
				<stop  offset="0" style="stop-color:#45426D"/>
				<stop  offset="0" style="stop-color:#6160A0"/>
				<stop  offset="8.526373e-02" style="stop-color:#56548B"/>
				<stop  offset="0.1887" style="stop-color:#4C4A7A"/>
				<stop  offset="0.3176" style="stop-color:#46436F"/>
				<stop  offset="0.4983" style="stop-color:#423F68"/>
				<stop  offset="1" style="stop-color:#413E66"/>
			</linearGradient>
			<path class="st49" d="M687.9,151.1c0,0,29.5,23.8,98.1,23.8s98.1-23.8,98.1-23.8"/>
			
				<linearGradient id="SVGID_19_" gradientUnits="userSpaceOnUse" x1="686.6442" y1="608.7217" x2="885.3558" y2="608.7217" gradientTransform="matrix(1 0 0 -1 0 912)">
				<stop  offset="0" style="stop-color:#413E66"/>
				<stop  offset="0" style="stop-color:#45426D"/>
				<stop  offset="0" style="stop-color:#6160A0"/>
				<stop  offset="8.526373e-02" style="stop-color:#56548B"/>
				<stop  offset="0.1887" style="stop-color:#4C4A7A"/>
				<stop  offset="0.3176" style="stop-color:#46436F"/>
				<stop  offset="0.4983" style="stop-color:#423F68"/>
				<stop  offset="1" style="stop-color:#413E66"/>
			</linearGradient>
			<path class="st50" d="M687.9,315.4c0,0,29.5-23.8,98.1-23.8s98.1,23.8,98.1,23.8"/>
			
				<linearGradient id="SVGID_20_" gradientUnits="userSpaceOnUse" x1="798.64" y1="678.8" x2="862.5" y2="678.8" gradientTransform="matrix(1 0 0 -1 0 912)">
				<stop  offset="0" style="stop-color:#413E66"/>
				<stop  offset="0" style="stop-color:#45426D"/>
				<stop  offset="0" style="stop-color:#6160A0"/>
				<stop  offset="8.526373e-02" style="stop-color:#56548B"/>
				<stop  offset="0.1887" style="stop-color:#4C4A7A"/>
				<stop  offset="0.3176" style="stop-color:#46436F"/>
				<stop  offset="0.4983" style="stop-color:#423F68"/>
				<stop  offset="1" style="stop-color:#413E66"/>
			</linearGradient>
			<path class="st51" d="M799.1,359.9c51.2-12.1,61.4-99.3,61.4-126.7s-10.2-114.6-61.4-126.7"/>
			
				<linearGradient id="SVGID_21_" gradientUnits="userSpaceOnUse" x1="709.4" y1="678.8" x2="773.2599" y2="678.8" gradientTransform="matrix(1 0 0 -1 0 912)">
				<stop  offset="0" style="stop-color:#413E66"/>
				<stop  offset="0" style="stop-color:#45426D"/>
				<stop  offset="0" style="stop-color:#6160A0"/>
				<stop  offset="8.526373e-02" style="stop-color:#56548B"/>
				<stop  offset="0.1887" style="stop-color:#4C4A7A"/>
				<stop  offset="0.3176" style="stop-color:#46436F"/>
				<stop  offset="0.4983" style="stop-color:#423F68"/>
				<stop  offset="1" style="stop-color:#413E66"/>
			</linearGradient>
			<path class="st52" d="M772.8,359.9c-51.2-12.1-61.4-99.3-61.4-126.7s10.2-114.6,61.4-126.7"/>
		</g>
		<g>
			
				<linearGradient id="SVGID_22_" gradientUnits="userSpaceOnUse" x1="544.0133" y1="683.2664" x2="978.3" y2="683.2664" gradientTransform="matrix(1 0 0 -1 0 912)">
				<stop  offset="0" style="stop-color:#6361AD"/>
				<stop  offset="0.4818" style="stop-color:#6260AB"/>
				<stop  offset="0.6553" style="stop-color:#5F5DA4"/>
				<stop  offset="0.779" style="stop-color:#595799"/>
				<stop  offset="0.879" style="stop-color:#514F88"/>
				<stop  offset="0.9637" style="stop-color:#474472"/>
				<stop  offset="1" style="stop-color:#413E66"/>
			</linearGradient>
			
				<linearGradient id="SVGID_23_" gradientUnits="userSpaceOnUse" x1="543.5133" y1="683.2665" x2="978.3289" y2="683.2665" gradientTransform="matrix(1 0 0 -1 0 912)">
				<stop  offset="0" style="stop-color:#413E66"/>
				<stop  offset="0" style="stop-color:#45426D"/>
				<stop  offset="0" style="stop-color:#6160A0"/>
				<stop  offset="8.526373e-02" style="stop-color:#56548B"/>
				<stop  offset="0.1887" style="stop-color:#4C4A7A"/>
				<stop  offset="0.3176" style="stop-color:#46436F"/>
				<stop  offset="0.4983" style="stop-color:#423F68"/>
				<stop  offset="1" style="stop-color:#413E66"/>
			</linearGradient>
			<path class="st53" d="M978.3,290.3c-22.5-1.3-44.8-4.1-67.1-7.4c-22.2-3.3-44.4-7.3-66.4-11.6c-44.1-8.7-87.9-18.9-131.2-30.7
				c-21.6-5.8-43.2-12.2-64.4-19c-21.2-6.9-42.4-14.3-62.4-23.3c-5-2.3-9.9-4.7-14.4-7.2c-2.3-1.3-4.5-2.6-6.4-4s-3.7-2.9-4.5-3.9
				c-0.4-0.4-0.1-0.7,0.2,1c0.1,0.7,0,2-0.5,2.7c-0.3,0.8-0.8,1.1-0.8,1.2c-0.3,0.2,0.3-0.2,1.1-0.4c0.8-0.3,1.8-0.5,2.9-0.7
				c4.5-0.9,9.8-1.1,15.1-1.2c10.7-0.1,21.7,0.6,32.7,1.6s22.1,2.3,33.1,3.8l0,0c5.9,0.8,11.3-3.3,12-9.1c0.8-5.8-3.3-11.2-9.2-11.9
				c-0.1,0-0.3,0-0.4,0c-11.3-1.1-22.7-2-34.2-2.5s-23-0.8-34.8-0.2c-5.9,0.4-11.9,0.8-18.4,2.3c-1.7,0.4-3.3,0.9-5.2,1.6
				c-1.8,0.7-3.9,1.6-6.3,3.6c-1.2,1-2.5,2.4-3.5,4.4s-1.5,4.7-1.2,6.7c0.2,2.3,0.9,3.8,1.6,5.3c0.3,0.6,0.7,1.2,1.1,1.8l1.1,1.4
				c2.9,3.3,5.7,5.2,8.4,6.9s5.4,3.2,8,4.6c5.3,2.8,10.7,5.1,16,7.2c21.4,8.6,43.1,15.2,64.9,21.3c21.8,6.1,43.7,11.6,65.7,16.7
				c44,10.1,88.3,18.6,132.9,25.7c22.3,3.5,44.6,6.6,67,9C933.3,287.9,955.8,289.9,978.3,290.3z"/>
			
				<linearGradient id="SVGID_24_" gradientUnits="userSpaceOnUse" x1="793.1" y1="656.7288" x2="1012.3636" y2="656.7288" gradientTransform="matrix(1 0 0 -1 0 912)">
				<stop  offset="0" style="stop-color:#6361AD"/>
				<stop  offset="0.4818" style="stop-color:#6260AB"/>
				<stop  offset="0.6553" style="stop-color:#5F5DA4"/>
				<stop  offset="0.779" style="stop-color:#595799"/>
				<stop  offset="0.879" style="stop-color:#514F88"/>
				<stop  offset="0.9637" style="stop-color:#474472"/>
				<stop  offset="1" style="stop-color:#413E66"/>
			</linearGradient>
			
				<linearGradient id="SVGID_25_" gradientUnits="userSpaceOnUse" x1="792.9843" y1="656.7288" x2="1012.8636" y2="656.7288" gradientTransform="matrix(1 0 0 -1 0 912)">
				<stop  offset="0" style="stop-color:#413E66"/>
				<stop  offset="0" style="stop-color:#45426D"/>
				<stop  offset="0" style="stop-color:#6160A0"/>
				<stop  offset="8.526373e-02" style="stop-color:#56548B"/>
				<stop  offset="0.1887" style="stop-color:#4C4A7A"/>
				<stop  offset="0.3176" style="stop-color:#46436F"/>
				<stop  offset="0.4983" style="stop-color:#423F68"/>
				<stop  offset="1" style="stop-color:#413E66"/>
			</linearGradient>
			<path class="st54" d="M793.1,254.4c24.8,5.9,49.8,11.3,75,15.9s50.4,8.6,76,11.1c12.8,1.2,25.6,2.2,38.6,1.9
				c6.5-0.2,13-0.5,19.9-2.4c1.7-0.5,3.5-1.2,5.3-2.3c0.9-0.6,1.9-1.3,2.7-2.4c0.9-1,1.6-2.5,1.7-4.1c0.2-1.6-0.1-3-0.5-4.2
				s-1-2.1-1.6-3c-1.2-1.7-2.5-3-3.8-4.2c-5.4-4.7-11.1-7.8-16.8-10.9c-5.8-3.1-11.7-5.7-17.6-8.3c-11.9-5.2-23.9-9.7-36-14
				c-2.8-1-5.9,0.5-6.8,3.2c-1,2.8,0.5,5.8,3.2,6.7c0.1,0,0.1,0,0.2,0.1c12.1,3.9,24.1,7.9,35.8,12.5c5.9,2.3,11.6,4.8,17.2,7.4
				c5.5,2.7,11.1,5.6,15.5,9.2c1.1,0.9,2.1,1.8,2.7,2.7c0.7,0.9,0.9,1.7,0.9,1.7c0.1,0,0,0.4-0.9,1.1c-0.9,0.6-2.1,1.1-3.4,1.6
				c-5.4,1.7-11.8,2.4-18,2.7c-12.5,0.7-25.3,0.2-37.9-0.6c-25.4-1.6-50.7-4.8-76-8.4C843.3,263.9,818.1,259.4,793.1,254.4z"/>
		</g>
	</g>
	
		<linearGradient id="SVGID_26_" gradientUnits="userSpaceOnUse" x1="361.1629" y1="604.75" x2="885.7629" y2="604.75" gradientTransform="matrix(-1 0 0 -1 1353.4 852)">
		<stop  offset="5.586592e-03" style="stop-color:#FB7B65"/>
		<stop  offset="7.841279e-02" style="stop-color:#EC735F"/>
		<stop  offset="0.182" style="stop-color:#FB7B65"/>
		<stop  offset="0.311" style="stop-color:#FB7B65"/>
		<stop  offset="0.4919" style="stop-color:#F79586"/>
		<stop  offset="0.9944" style="stop-color:#F5A195"/>
	</linearGradient>
	<path class="st55" d="M992.2,103.8v73.3c0,4.5-3.7,8.2-8.3,8.2s-8.3-3.6-8.3-8.2v-53.6L860.9,237.2c-1.5,1.5-3.6,2.4-5.8,2.4h-94.7
		l-74,73.3c-1.5,1.5-3.6,2.4-5.8,2.4H563.5l-81.9,81.2c-1.6,1.6-3.7,2.4-5.8,2.4s-4.2-0.8-5.8-2.4c-3.2-3.2-3.2-8.4,0-11.6
		l84.3-83.6c1.5-1.5,3.6-2.4,5.8-2.4h117.2l74-73.3c1.5-1.5,3.6-2.4,5.8-2.4h94.7L964,112h-54.1c-4.6,0-8.3-3.6-8.3-8.2
		c0-4.5,3.7-8.2,8.3-8.2h74C988.4,95.6,992.1,99.3,992.2,103.8z"/>
	<g>
		<path class="st56" d="M1121,852.5c-51.4-96.4-157.8-252.3-315.5-130.7c-102.2,69.9-110.6-38.1-231-75.8
			C454,608.1,407.1,680.3,353.7,746.3C248.7,876.1,86.8,710,17.1,852.5H1121L1121,852.5z"/>
	</g>
	<g>
		<path class="st57" d="M481.8,373.8c-4.2,4,12.5,68.2,27.9,133.7v66.1c-18.4,42.1-72.4,39.1-87-0.6
			C408.1,533.4,447.5,397.4,481.8,373.8z"/>
		<path class="st57" d="M761.2,533.7l-22-8.1l-1.4-18l0,0l2.5-14.1c10.2-36.2,29.2-73.1,29.2-111.8c63.8,36.6,88.8,185.7,47,230.1
			c-9.6,10.2-25.8,13.6-43.7,10.8C793,625.6,805.1,533.6,761.2,533.7z"/>
		<path class="st57" d="M750.9,852.5c0,0,4.6-50-4.3-125.9H522.4l-30.5,125.9h107.2l14.2-37.4c0,0,14.2,0.9,17.5,16.1
			c3.3,15.1,4.2,21.3,4.2,21.3L750.9,852.5L750.9,852.5z"/>
		
			<linearGradient id="SVGID_27_" gradientUnits="userSpaceOnUse" x1="1881.54" y1="374.3265" x2="2169.7969" y2="374.3265" gradientTransform="matrix(-1 0 0 -1 2651.04 912)">
			<stop  offset="5.586592e-03" style="stop-color:#413E66"/>
			<stop  offset="1" style="stop-color:#5F5DB2"/>
		</linearGradient>
		<path class="st58" d="M769.5,381.7c0,0-41.3-23.3-131.1-31.4c-89.9-8.2-148.9,16.4-156.5,23.6s53.3,211.1,50.8,264.7
			c-2.5,53.5-10.2,88.1-10.2,88.1h224.2c0,0-9.5-133.4-12.1-185.1C732,490,769.5,437.8,769.5,381.7z"/>
		
			<linearGradient id="SVGID_28_" gradientUnits="userSpaceOnUse" x1="2076.8848" y1="681.9948" x2="2056.1084" y2="640.0258" gradientTransform="matrix(-1 0 0 -1 2651.04 912)">
			<stop  offset="0" style="stop-color:#F0ECE1"/>
			<stop  offset="1" style="stop-color:#E0AB81"/>
		</linearGradient>
		<path class="st59" d="M583.8,267.3c1.3,7.5,5.9,12.9,10.4,12.1s7.1-7.5,5.8-15s-5.9-12.9-10.4-12.1
			C585.1,253,582.5,259.7,583.8,267.3z"/>
		<path class="st57" d="M596.8,342.9c0,9.5,19.3,18.3,43.2,19.9c23.8,1.5,43.2-5,43.2-14.5S663.9,330,640,328.4
			C616.2,326.9,596.8,333.4,596.8,342.9z"/>
		<g>
			<path class="st60" d="M666.9,269.4c0,0-3.8,58.2,9.8,84.9l-38.4,19.5l-34.9-24.9l-5.7-62L666.9,269.4z"/>
			
				<linearGradient id="SVGID_29_" gradientUnits="userSpaceOnUse" x1="1974.3401" y1="597.85" x2="2053.3401" y2="597.85" gradientTransform="matrix(-1 0 0 -1 2651.04 912)">
				<stop  offset="0" style="stop-color:#AF5448"/>
				<stop  offset="1" style="stop-color:#FB7B65"/>
			</linearGradient>
			<path class="st61" d="M597.7,287l69.2-17.6c0,0-3.8,58.2,9.8,84.9l-8.9,4.6c-13.1-14.8-11.1-51.6-16.8-44.7
				c-24,28.9-47,41.9-49.1,18.8l-3-32.5L597.7,287z"/>
		</g>
		<path class="st60" d="M586.3,269.5c2.2,25.1,10.7,52,32.7,52.1c25.1,0.1,49-29.8,46.4-59.5c-2.6-29.5-22.5-51.8-44.3-49.9
			C599.2,214.3,583.7,239.9,586.3,269.5z"/>
		<path class="st60" d="M661,264.5c-1.1,7.5,1.6,14.2,6.1,14.9c4.5,0.7,9-4.9,10.2-12.3c1.1-7.5-1.6-14.2-6.1-14.9
			C666.6,251.5,662.1,257.1,661,264.5z"/>
		<path class="st57" d="M668.3,252.7c-3.1,1.4-4.9,7.7-6.1,12.7c-0.5,2.2-3.3,2.6-4.4,0.6c-2.4-4.5-5.8-12.7-10.2-28.1
			c-0.8-2.9-4.1-4.1-6.3-2.3c-7.4,5.7-21.9,15.9-33.2,15.7c-15.7-0.3-19-8.1-19-8.1c-0.4,1.1-1.9,5.6-2.3,9.3c0,0-9.2-14.7,3-32.7
			c10.9-16.1,27.2-8.1,27.2-8.1s2.2-10.8,14.2-9.7c11.2,1,12.8,12.1,12.8,12.1s4-4.5,7.3-2.2c3.2,2.3,1.4,6.4,1.4,6.4
			s23.1,1.7,22.1,36.3C674.8,254.5,672.3,250.8,668.3,252.7z"/>
		<path class="st57" d="M700.1,359.3c-2.5,19.8-25.6,36.6-37.6,39.6c-2,0-6.4-8.3-6.4-15c0-7.4-2-11.2-4.2-12.4
			c-2.2-1.2-13.5,2.2-13.5,2.2l38.4-19.5L700.1,359.3z"/>
		<path class="st57" d="M663.3,393.7c0,0-4-3.2-4.8-10.4c-0.8-7.2-4-13.3-6.6-13.3s-13.5,3.7-13.5,3.7s27.2-13.4,38.4-19.5
			c11.2-6,2.9-15.2-5.9-17.6l-0.4-2c0,0,12.7,3.3,14.8,11.7s14.9,8.6,14.9,12.8C700.1,370.2,681.5,388.7,663.3,393.7z"/>
		<path class="st57" d="M638.3,373.8c0,0-11-4.1-13-3.6c-7.6,1.9-2.2,18-14.7,24.3c0,0-30.7-14.8-28.5-45.5l43.7,15.9L638.3,373.8z"
			/>
		<path class="st57" d="M582.1,349.1c1.2-4,10.6-2.5,14-10.6c1.2-2.8,3.4-4.6,5.9-5.6c0.1,0.9,0.2,1.8,0.2,2.7
			c-4.1,3-5.7,8.2,1.2,13.4c10.9,8.1,34.9,24.9,34.9,24.9s-10.2-5.3-12.8-5.6c-2.6-0.4-6.6,5.2-8.5,12.1c-1.9,7-6.3,9.5-6.3,9.5
			C593.4,382.2,579,358.9,582.1,349.1z"/>
		
			<linearGradient id="SVGID_30_" gradientUnits="userSpaceOnUse" x1="646.473" y1="368.2617" x2="791.1109" y2="368.2617" gradientTransform="matrix(1 0 0 -1 0 912)">
			<stop  offset="0" style="stop-color:#F4A79D"/>
			<stop  offset="1" style="stop-color:#FB7B65"/>
		</linearGradient>
		<path class="st62" d="M672.7,465.1l16.1,14.6c2,1.8,3.4,4.1,4.2,6.5l1.1,3.5c2.4,1.4,4.4,3.5,5.6,5.9l9.4,18.7l52,19.2
			c43.9-0.1,31.8,91.9,11.6,88.8c-33.9-5.2-75-32.7-96.1-82.6c-10.8,3.5-30.3-18.1-30.3-18.1L672.7,465.1z"/>
		
			<linearGradient id="SVGID_31_" gradientUnits="userSpaceOnUse" x1="1970.4866" y1="435.25" x2="2135.0935" y2="435.25" gradientTransform="matrix(-1 0 0 -1 2651.04 912)">
			<stop  offset="0" style="stop-color:#413E66"/>
			<stop  offset="7.841279e-02" style="stop-color:#4B4979"/>
			<stop  offset="0.182" style="stop-color:#54538A"/>
			<stop  offset="0.311" style="stop-color:#5A5A95"/>
			<stop  offset="0.4919" style="stop-color:#5E5E9C"/>
			<stop  offset="0.9944" style="stop-color:#5F5F9E"/>
		</linearGradient>
		<path class="st63" d="M532.2,521.8h144.4c2.4,0,4.3-2.1,3.9-4.5l-12.4-82.2c-0.3-1.9-2-3.4-3.9-3.4H519.9c-2.4,0-4.3,2.1-3.9,4.5
			l12.4,82.2C528.6,520.4,530.3,521.8,532.2,521.8z"/>
		<polygon class="st57" points="599.8,498.8 569.3,521.8 547.6,521.8 		"/>
		<path class="st57" d="M572,465.1c-0.4,0-52.1-3-52.1-3l0.4,3H572z"/>
		<path class="st60" d="M478,515.8l17.7-18.4l2.8-26.2c0.5-5,1.9-9.7,4-14.3l2.7-5.6c1-2.1,1.2-4.5,0.7-6.7
			c-1.6-7.2,1.5-12.7,7-12.7c2.7,0,4,1.4,4,1.4c-0.7,0.8-1.1,2-0.9,3.2l4.3,28.8h78.1c3.7,0,6.6,3,6.6,6.5h2.9c2.8,0,5,2.2,5,5
			c0,2.4-1.6,4.4-4,4.9h-0.2l0.3,0.1c2.2,0.4,3.8,2.3,3.8,4.5c0,2.5-2,4.6-4.6,4.6H608c0,2.8-1.6,5.3-4.2,6.3l-73.9,32.7
			c0,0-10.1,45.8-34.8,63.8c-27.4,19.9-62.9,2.7-65.9-26.3C425.5,531.1,456.4,508.2,478,515.8z"/>
	</g>
	<g>
		
			<linearGradient id="SVGID_32_" gradientUnits="userSpaceOnUse" x1="1529.9399" y1="146.7473" x2="2589.1401" y2="146.7473" gradientTransform="matrix(-1 0 0 -1 2651.04 912)">
			<stop  offset="0" style="stop-color:#413E66"/>
			<stop  offset="7.280165e-02" style="stop-color:#423F6C"/>
			<stop  offset="0.4271" style="stop-color:#474586"/>
			<stop  offset="0.7468" style="stop-color:#4A4896"/>
			<stop  offset="1" style="stop-color:#4B499B"/>
		</linearGradient>
		<path class="st64" d="M61.9,852c26.4-16.3,47.6-30,74.3-44.2c61.6-32.6,138.1,8.2,185.7,3.8c47.6-4.5,67.5-43.4,121.2-93.5
			c18.9-17.7,38.1-28.7,58-34.3c67.9-19,135.1,18.5,151.1,28.3c48.2,29.7,43.7,51.8,76.9,61.2c51.6,14.5,88-31.5,139-44.6
			c49-12.6,126.7-4.8,253,123.3l0,0H61.9z"/>
		
			<linearGradient id="SVGID_33_" gradientUnits="userSpaceOnUse" x1="1003" y1="429" x2="1003" y2="429" gradientTransform="matrix(1 0 0 1 0 60)">
			<stop  offset="0" style="stop-color:#413E66"/>
			<stop  offset="7.280165e-02" style="stop-color:#423F6C"/>
			<stop  offset="0.4271" style="stop-color:#474586"/>
			<stop  offset="0.7468" style="stop-color:#4A4896"/>
			<stop  offset="1" style="stop-color:#4B499B"/>
		</linearGradient>
		
			<linearGradient id="SVGID_34_" gradientUnits="userSpaceOnUse" x1="1003" y1="429" x2="1003" y2="429" gradientTransform="matrix(1 0 0 1 0 60)">
			<stop  offset="0" style="stop-color:#FFFFFF"/>
			<stop  offset="1" style="stop-color:#000000"/>
		</linearGradient>
		<path class="st65" d="M1003,489"/>
	</g>
</g>
<linearGradient id="SVGID_35_" gradientUnits="userSpaceOnUse" x1="1114" y1="464.8" x2="1114" y2="464.8" gradientTransform="matrix(1 0 0 1 0 60)">
	<stop  offset="0" style="stop-color:#413E66"/>
	<stop  offset="7.280165e-02" style="stop-color:#423F6C"/>
	<stop  offset="0.4271" style="stop-color:#474586"/>
	<stop  offset="0.7468" style="stop-color:#4A4896"/>
	<stop  offset="1" style="stop-color:#4B499B"/>
</linearGradient>
<linearGradient id="SVGID_36_" gradientUnits="userSpaceOnUse" x1="1114" y1="464.8" x2="1114" y2="464.8" gradientTransform="matrix(1 0 0 1 0 60)">
	<stop  offset="0" style="stop-color:#FFFFFF"/>
	<stop  offset="1" style="stop-color:#000000"/>
</linearGradient>
<path class="st66" d="M1114,524.8"/>
</svg>
