<?xml version="1.0" encoding="utf-8"?>
<!-- Generator: Adobe Illustrator 24.1.0, SVG Export Plug-In . SVG Version: 6.00 Build 0)  -->
<svg version="1.1"
	 id="svg24" xmlns:cc="http://creativecommons.org/ns#" xmlns:dc="http://purl.org/dc/elements/1.1/" xmlns:rdf="http://www.w3.org/1999/02/22-rdf-syntax-ns#" xmlns:svg="http://www.w3.org/2000/svg"
	 xmlns="http://www.w3.org/2000/svg" xmlns:xlink="http://www.w3.org/1999/xlink" x="0px" y="0px" viewBox="0 0 140 81.1"
	 style="enable-background:new 0 0 140 81.1;" xml:space="preserve">
<style type="text/css">
	.st0{fill:#413E66;}
	.st1{font-family:'OpenSans-ExtraBold';}
	.st2{font-size:12px;}
</style>
<g id="SvgjsG1049" transform="matrix(0.45631541,0,0,0.45631541,47.18423,-7.8883245)">
	<path id="path17" class="st0" d="M35.3,28.6c13.3,0,24.8,7.3,30.8,18.1c2.1-0.7,4.4-1,6.7-1c10,0,18.5,6.7,21.3,15.9
		c18,1.7,32,16.7,32,35.2c0,19.5-15.9,35.3-35.3,35.3H9.1c-19.5,0-35.3-15.9-35.3-35.3c0-16.3,11.2-30,26.2-34
		C0.8,43.7,16.3,28.6,35.3,28.6 M35.3,23.5c-20.5,0-37.5,15.2-40.1,35.2c-15.7,5.8-26.6,20.9-26.6,38c0,22.3,18.2,40.5,40.5,40.5
		h81.7c22.3,0,40.5-18.2,40.5-40.5c0-19.9-14.2-36.5-33.4-39.9c-4.5-9.8-14.2-16.3-25.2-16.3c-1.5,0-2.9,0.1-4.4,0.3
		C60.9,29.9,48.5,23.5,35.3,23.5z"/>
	<path id="path19" class="st0" d="M37.8,111.9l11.5-11.5c0.9-0.9,1.5-2.1,1.5-3.3c0-1.3-0.6-2.6-1.5-3.3l0,0L37.8,82.2
		c-1.9-1.9-4.9-1.9-6.8,0c-1.9,1.9-1.9,4.8,0,6.7l3.3,3.2H5.9c-2.7,0-4.8,2.1-4.8,4.8s2.1,4.8,4.8,4.8h28.5l-3.3,3.3
		c-0.9,0.9-1.5,2.2-1.5,3.5S30,111,31,112C32.9,113.7,35.9,113.7,37.8,111.9z"/>
	<path id="path21" class="st0" d="M62.3,71.6L50.8,83.1c-0.9,0.9-1.5,2.1-1.5,3.3c0,1.3,0.6,2.6,1.5,3.3l0,0l11.5,11.5
		c1.9,1.9,4.9,1.9,6.8,0c1.9-1.9,1.9-4.8,0-6.7l-3.3-3.2h28.5c2.7,0,4.8-2.1,4.8-4.8s-2.1-4.8-4.8-4.8H65.7l3.3-3.3
		c0.9-0.9,1.5-2.2,1.5-3.5c0-1.2-0.4-2.5-1.5-3.5C67.2,69.7,64.2,69.7,62.3,71.6z"/>
</g>
<text transform="matrix(1 0 0 1 0.7861 73.126)" class="st0 st1 st2">WWW.MAJORSKY.RU</text>
</svg>
